<mxfile host="app.diagrams.net" modified="2021-12-15T02:33:26.085Z" agent="5.0 (Macintosh; Intel Mac OS X 10_15_7) AppleWebKit/537.36 (KHTML, like Gecko) Chrome/96.0.4664.110 Safari/537.36" etag="sHFl0nP0PxiQL3-_vn_a" version="15.9.6" type="github">
  <diagram id="R2lEEEUBdFMjLlhIrx00" name="Page-1">
    <mxGraphModel dx="1723" dy="769" grid="0" gridSize="10" guides="1" tooltips="1" connect="1" arrows="1" fold="1" page="1" pageScale="1" pageWidth="850" pageHeight="1100" math="0" shadow="0" extFonts="Permanent Marker^https://fonts.googleapis.com/css?family=Permanent+Marker">
      <root>
        <mxCell id="0" />
        <mxCell id="1" parent="0" />
        <mxCell id="VaGtuXmXfvkTdjbK2FE8-1" value="" style="shape=image;verticalLabelPosition=bottom;verticalAlign=top;aspect=fixed;imageAspect=0;image=data:image/png,iVBORw0KGgoAAAANSUhEUgAAAWUAAAGaCAYAAADXQVJ3AAAK0mlDQ1BJQ0MgUHJvZmlsZQAASImVlwdUU+kSgP970xslgQhICb1JbwGkhB5AQTqISkgCCSXGhCBiRxZXcC2IiIANXYoouLoCshbEgoVFQQX7BllU1FUs2FDZCzzC7r7z3jtvzpnMd+bOP//MPXfOmQBA8eOIxRmwCgCZoixJRKAPIy4+gYEbBGSgBPCAASAOVypmhYeHAkSm7N/lfS+Axu0Nq/Fc//78vwqVx5dyAYASEU7mSbmZCLch+pgrlmQBgKpF/IZLs8Tj3ImwmgQpEGH5OKdO8rtxTp5gNH4iJirCF2FtAPBkDkeSCgDZDPEzsrmpSB5yEMK2Ip5QhHAOwp5cAYeHcAvCszIzF4/z7wibIfFiAChkhJnJf8mZ+rf8yYr8HE6qgif7mhC8n1AqzuAs+z9fzf+WzAzZ1B0miJIFkqAIxCoh7+92+uIQBYuS54ZNsZA3ET/BAllQ9BRzpb4JU8zj+IUozmbMDZ3iFGEAW5Enix01xXypf+QUSxZHKO5Kkfiyppgjmb5Xlh6t8Av4bEX+XEFU7BRnC2PmTrE0PTJkOsZX4ZfIIhT180WBPtP3Bih6z5T+pV8hW3E2SxAVpOidM10/X8SazimNU9TG4/v5T8dEK+LFWT6Ku8QZ4Yp4fkagwi/NjlSczUI+zumz4Yp3mMYJDp9iEATCkdkLB/bAAVGQxc/JGm/Cd7F4mUSYKshisJBJ4zPYIq71LIa9rb0dAONzO/kpvL09MY8QHT/tEyF9M3uQWXGb9i26D8AxOgDKIdM+s0PI+GgA0FbDlUmyJ33o8R8MIAJloAY0gS4wBGbACqnLGbgDb+APgkEYiALxYCHgAgHIBBKwFKwAa0EBKAJbwHZQDvaA/aAWHAZHQTM4Cc6Ci+AquA5ugXtADgbBczAM3oNRCIJwEAWiQZqQHmQMWUL2EBPyhPyhUCgCioeSoFRIBMmgFdA6qAgqhsqhfVAd9BN0AjoLXYa6oTtQPzQEvYE+wyiYDKvBOrAJbAMzYRYcAkfBC+BUeAmcC+fDm+AyuAo+BDfBZ+Gr8C1YDj+HR1AARULRUfooKxQT5YsKQyWgUlAS1CpUIaoUVYVqQLWiOlA3UHLUC9QnNBZNQzPQVmh3dBA6Gs1FL0GvQm9El6Nr0U3o8+gb6H70MPobhoLRxlhi3DBsTBwmFbMUU4ApxVRjjmMuYG5hBjHvsVgsHWuKdcEGYeOxadjl2I3YXdhGbBu2GzuAHcHhcJo4S5wHLgzHwWXhCnA7cYdwZ3A9uEHcRzwJr4e3xwfgE/AifB6+FH8Qfxrfg3+CHyWoEIwJboQwAo+wjLCZcIDQSrhGGCSMElWJpkQPYhQxjbiWWEZsIF4g3ie+JZFIBiRX0jySkLSGVEY6QrpE6id9IlPJFmRfciJZRt5EriG3ke+Q31IoFBOKNyWBkkXZRKmjnKM8pHxUoilZK7GVeEqrlSqUmpR6lF4qE5SNlVnKC5VzlUuVjylfU36hQlAxUfFV4aisUqlQOaHSpzKiSlO1Uw1TzVTdqHpQ9bLqUyqOakL1p/Ko+dT91HPUARqKZkjzpXFp62gHaBdog2pYNVM1tlqaWpHaYbUutWF1qrqjeox6jnqF+il1OR1FN6Gz6Rn0zfSj9F765xk6M1gz+DM2zGiY0TPjg8ZMDW8NvkahRqPGLY3PmgxNf810za2azZoPtNBaFlrztJZq7da6oPViptpM95ncmYUzj868qw1rW2hHaC/X3q/dqT2io6sTqCPW2alzTueFLl3XWzdNt0T3tO6QHk3PU0+oV6J3Ru8ZQ53BYmQwyhjnGcP62vpB+jL9ffpd+qMGpgbRBnkGjQYPDImGTMMUwxLDdsNhIz2jOUYrjOqN7hoTjJnGAuMdxh3GH0xMTWJN1ps0mzw11TBlm+aa1pveN6OYeZktMasyu2mONWeap5vvMr9uAVs4WQgsKiyuWcKWzpZCy12W3bMws1xniWZVzeqzIluxrLKt6q36renWodZ51s3WL22MbBJsttp02HyzdbLNsD1ge8+Oahdsl2fXavfG3sKea19hf9OB4hDgsNqhxeG1o6Uj33G3420nmtMcp/VO7U5fnV2cJc4NzkMuRi5JLpUufUw1ZjhzI/OSK8bVx3W160nXT27OblluR91euVu5p7sfdH8623Q2f/aB2QMeBh4cj30eck+GZ5LnXk+5l74Xx6vK65G3oTfPu9r7CcuclcY6xHrpY+sj8Tnu88HXzXelb5sfyi/Qr9Cvy5/qH+1f7v8wwCAgNaA+YDjQKXB5YFsQJigkaGtQH1uHzWXXsYeDXYJXBp8PIYdEhpSHPAq1CJWEts6B5wTP2Tbn/lzjuaK5zWEgjB22LexBuGn4kvBf5mHnhc+rmPc4wi5iRURHJC1yUeTByPdRPlGbo+5Fm0XLottjlGMSY+piPsT6xRbHyuNs4lbGXY3XihfGtyTgEmISqhNG5vvP3z5/MNEpsSCxd4HpgpwFlxdqLcxYeGqR8iLOomNJmKTYpINJXzhhnCrOSDI7uTJ5mOvL3cF9zvPmlfCG+B78Yv6TFI+U4pSnqR6p21KHBF6CUsELoa+wXPg6LShtT9qH9LD0mvSxjNiMxkx8ZlLmCRFVlC46v1h3cc7ibrGluEAsX+K2ZPuSYUmIpFoKSRdIW7LUkAWpU2Ym+07Wn+2ZXZH9cWnM0mM5qjminM5lFss2LHuSG5D743L0cu7y9hX6K9au6F/JWrlvFbQqeVX7asPV+asH1wSuqV1LXJu+9tc827zivHfrYte15uvkr8kf+C7wu/oCpQJJQd969/V7vkd/L/y+a4PDhp0bvhXyCq8U2RaVFn3ZyN145Qe7H8p+GNuUsqlrs/Pm3VuwW0Rberd6ba0tVi3OLR7YNmdbUwmjpLDk3fZF2y+XOpbu2UHcIdshLwsta9lptHPLzi/lgvJbFT4VjZXalRsqP+zi7erZ7b27YY/OnqI9n/cK997eF7ivqcqkqnQ/dn/2/scHYg50/Mj8sa5aq7qo+muNqEZeG1F7vs6lru6g9sHN9XC9rH7oUOKh64f9Drc0WDXsa6Q3Fh0BR2RHnv2U9FPv0ZCj7ceYxxp+Nv658jjteGET1LSsabhZ0CxviW/pPhF8or3VvfX4L9a/1JzUP1lxSv3U5tPE0/mnx87knhlpE7e9OJt6dqB9Ufu9c3Hnbp6fd77rQsiFSxcDLp7rYHWcueRx6eRlt8snrjCvNF91vtrU6dR5/FenX493OXc1XXO51nLd9Xpr9+zu0z1ePWdv+N24eJN98+qtube6e6N7b/cl9slv824/vZNx5/Xd7Luj99bcx9wvfKDyoPSh9sOq38x/a5Q7y0/1+/V3Pop8dG+AO/D8d+nvXwbzH1Melz7Re1L31P7pyaGAoevP5j8bfC5+Pvqi4A/VPypfmr38+ZX3q87huOHB15LXY282vtV8W/PO8V37SPjIw/eZ70c/FH7U/Fj7ifmp43Ps5yejS7/gvpR9Nf/a+i3k2/2xzLExMUfCmVgFUIjCKSkAvKlB9uJ4AGjXASDOn9yrJwSa/C8wQeA/8eTuPSHOAOxvAyDaG4AwxO5FrCmiVORROGKjvAHs4KDQf4k0xcF+MhepGVlNSsfG3iJ7I84cgK99Y2OjzWNjX6uRYu8ie8z7yX1+XAyGAbC3GafeoFfgnzK56/+lx39aMF6BI/in/RN6zxW2eEeolAAAADhlWElmTU0AKgAAAAgAAYdpAAQAAAABAAAAGgAAAAAAAqACAAQAAAABAAABZaADAAQAAAABAAABmgAAAABY37xAAABAAElEQVR4AexdBXwUxxd+SBLcPWhwKVKgxQlBiltx11A8OMXdCe7uWtxpKS2UP6UUKO4SCO6eEOD/vgm73bvcxQiB277H77jd2dnZmW92v3nzzdtclPdsJCYICAKCgCDwRSAQ9YuohVRCEBAEBAFBQCEgpCw3giAgCAgCXxACQspfUGdIVQQBQUAQEFKWe0AQEAQEgS8IASHlL6gzpCqCgCAgCAgpyz0gCAgCgsAXhICQ8hfUGVIVQUAQEASElOUeEAQEAUHgC0JASPkL6gypiiAgCAgCQspyDwgCgoAg8AUhIKT8BXWGVEUQEAQEASFluQcEAQMCAW8CyN/f35Aim4JA5CIQPXIv99+42oMHD8n3hi9lzZqFXGK46I2+ds2HAgICKGNGNz0tLBu3b98hp+jRKXGSxDZPu3DhEl28eInc3YtTzJgxbeb50hIf3H9AVxmX6NyuKCFUDn85C/ilT5fWLgZ79uylu3fuUd26tShK1OBLfPnyFd2/f5+cnJwoSpTAvFOnzCT8ja6OndrqtcE1kyZNSi4uznqaGTZOnz5L+/b9QY0bN6BYsUJ3v+AeS548KcWLF88MEHyRbfjiSfnC+YuUMFFCSmKHiD41qi9evKBr166Tj891fjCTUEa3DJQgYYJgL3v8nxM0ZMhIWrBwFqVPn07Pu2LFGrp8+QrNnj1VTwvtxrNnz6lHjz70kAl/5aolFDdunCCnnjx5iiZPmk6FChUMFym/e/eObt26Tdeu+tDLly/JjQePtGlTK8IMcrEISgAxDBgwNNSkACIdPmIQFbFxP7x/957mzl1EuXJm1wkZaTdv3aKECRJQrNixLGrtw4NBt269KT4f0+zWzVuqLl279taSCGnTpk+kHDmy6WlPnjyll3xvpEyVUk+LyI03b97Qixcv1UBgHGBvcl2mTJ7BA0l0esNe/dOnT+nevfuMyWDKnDljmKpw4/oNWsn3ZKNG9UJ1HrDs2bMvPX70WLXbLUN6SuWaku/FuJQyRXIqU9YjVOVIpuARiHBSHjliLOGGtWe169Sk/Pnz2Ttske732o88PTtQwYL5aczY4eoYbghnZ2eLB+z58+f09u07ih8/4kZveHDe3lPowIGDep3gTYAUMmfJREOHDmCPIZl+zLiheccuXE+jRYsWVXm6xrTQbIMUevbqRzeu+9K48SNtEjLKiRYtmiouerSwd+uuXb/QpIlTVfus69SuvSfVrl3TIvm33/bR9m27LNK0nfYd2lCaNKlpwYIldO7seS2Z+82JsmTJTKU8SpKrayqVHjNmDPW9afNaVX88+JAPFi1eRlWrVqIU/LDD7t65qwbncmWrkDN7tprNnj2fLl+6QjG5b974v1EECpw7d+pO97gPgR3M23sU5fs6r3Yabdq0VZVZq1YNPQ0b+//4n6pH4ULf6OmLFy+nzZz/9OkzpOWfO2cBwSvfum29ns+44et7kwnVJYgzceCPg3SJB2bcsxhonz97Rs+ZfLH//PkLevL4sUUfDBjwo8JLKxv3PogwZowYFIM/Z86c43qdpWhRw65ERmdih0UN5bmYecyYMUnNxuAswVE5c/ocPXj4UA2EQspaL33cd9if3hCuB6LCAwLDA3mWP9WqV9bPMo76eqKdDZBbjx5dKHXqwAcY2Zq3+IHKlvEgEIVm06bOojNnz9HChbO1pI/6PnrkGPXrN1h5uSNHDeEp7gMaP24SLVk6Xz088OxaNG9DY8eN1L2nu3fv0cGDh9SAceHCRXX9337bT4nYy9fs6pVr9OjxE9q182d6y14ppsMeHu7aYZvfGBSGDxtNsWPHpvkLZlKGDOlt5gtv4tu3b2nwoOE8jT1ArVo1oxIli1GvXv0JpNTmh5a0bt0mmj5tNvnwbKGzV3vda4aU8ueff1n0rVYHEAcM/X/u/AVuY0m1f93nBs2bt4hWrFhNU6ZOIDe39OzR/ksmE3gQhHl16UAXeZoMjxBe8bFjx6mLV0/lreK48ZzcuXOpqbS/n58aBHLlyskkVkKRVuw4sSkBe8HogxTJA8kd58OSJUuqvjGAfVAu1H4cxhkkpQ0GKpH/w+woYcJ/+9KZ+w59YsuAKeqLWZLmTGj5/ve/P+nYP8fZs0zB5SXggT05ZeJZD+SA+w8e0LKlK5WnXqlSBcqUyY2+4vYZDTPGjh3/lVaG8b3hljGD+iAf7tVp02ZRkyYNQrxXtEEcxP6O6/yY700MGNmzZ6USJYoZL6tvAxd8ihUroqfJRsQiEOGk3KJlU72GK1euVaTs5dVBTwvrRsVK34X1lCD5oRFqmmGQg1YJr1+/ppEjx1FSfmhHjR6mvFJ4RfCS8XDjM2WKN/VkKWHQwGG0YuUi5VlBQ9ZIRSty1qx5FtNyeNmwSZOmKW8IBOLh4c4pQe3hw0d8nRm099ffKVu2LGp6aiT4oGf8mxLwNuDfnRC2tmzZrgi5Z88uVKHidzwlf6m8ywxMmCDXevVqUeLEiWjE8DGUM1cOKl++rEWJIfVt5kwZLUgEmqRn6/a0Y/sui4EVhZYt50EdO3Qjj9Lu1Nqzhcp35cpVWr5sFRUo8LXN6XkhHjzw+WntBlWvvv16Ugz2UOMniB9sn+OcIzz4djPIFMaGYSAwWtGihQj9pRm84DesNdsykF2Hjj/QwAHD6Nc9v1l4ut26dw5yCu7PrdwPIGSQKfRwa6klyEmcgBnFLz//Sm3atNQP4/7FPYMyQjJo6TANA3WPc1+7BiPJYL3kBt/rN3km8JS9fMxmMVjlzJldHxhCuq4cDx6BCCfl4C9HNHbsBLWwoj3MmAYNGTqS2rdvox4unI+b8x/WZeFl9OzRl77On4/KlClFXbr0VHrW1q3b6X8H/6Qe3b2Ud6Q9QI0bt6QqlStSnbrfq2rgQf355z1qYChSpBDVq1+bvvoq8MGaO3chk89tpZlu2LiFCn1bkHr17kYbNmxRGt3q6Ut1meA81zFnzhx606DnVqlSSbXlLHsZIKu8efPQr3t3qDzwhvr8OJCWr1hIKVOm0M8DsUH/mzBxjErDw2htWP3/+Zdf2Uucrk9jhw0fZOFxW59jvd+oYQuqW682VapUXhGq9XFtHw/UbB44MJMBIcNAgrAMBi0c2E+fPpv2/LI3CCmrzGH4D7onPDt4Z9YG0itevAhtWL+JBg7qS7hHoOf/9dffNHvONOvs+j6kgqlTZ6oBsG/fQUrOgP4PnCGTQN7YsXM3k3omKmvQPTH979mrq5qxaIVt2bJDSQEVKpbTksjPz19JI3oCb4D4IaXZM3iakEsm88BagOU3W2sA2rk7duym8eMnU6vWzalhw7pacrDf6LvfeZEOVrjwt3retwFv1XZoFiU1GWjW7CnKq9ZIWi/MsIGZIuQazbEwHNI3MaA0b9FE35eN8CEQ6aScJk0aWsJ6YadO7dQ08SBPgaGVYhUY3gtsz6+/UZ7cX6ntG/zAZeRpXNw4cahdO08aNnSUIsDKVSowoaahxnwjwPBg4niqD6P8iuWreUFtPjVp2lAR1E6+8Tt17KZLAPBEcZPBC23JN1KGDOm5FKKTJ04pzRgPNQw3IUjBOANAeq6vAkn6zt27lJNy6AtLOGaLbJGOhxtRBpoZvffrvOiCOq5nQsI1QVCpUqUgaL3aw6OdF9J31mxZacH8xeoDXRYPi62IDWiCuJbxoT58+IgqPhN7uJqhnvl5YIR2aW2YqhsNeYPTKHE9kKRR0sL50Iyhm3+dL68aPJFWjAm6CQ+0mC2BzLH4ZW1YiB08eIRKxv3QoEFdRcT9+g+hUSPHk5+/H2Hghxeo6cFaGSdOnKT9+/5HTqx1a5qsNigZ9fLXTIDZc2S10KS16AO0X5MBtHK1704cwdG8WRslV31fq7qWbPENcp3KxO3h4R4qQsYi7CQesCGxadauXWflNLi7l2CZJb5KjsPPS0jmwoMSLFasWMpRCi4/BrBv2HFB/6AvMNjFjReXsDh86eJl9axBey9WvKjNGU1wZcsxSwT+ZQjL9E+2V7Dg1zRr5lzlkSE07AAvrEAXxJSrezcvevb8mXpoW7PXYDToyyAPZ/ZQcENoRPJ1wry0m4nrES+QaGl4UEDITZs1omb8gWH62bBBc9qOaTOTt2bwpnDDaXaeNdDSPH3W7O+/j6rNouxpGw3kAosaNZoxWW1j0RFmTc7XfHx08lcZPvwHTXzt2sAFI3iRIFF4WhvZawcph9UGD+5HN2/epMWLlqsFLSxqwYOpXbuGRVQGQtFgObJn0y/x697f1bW1xUrtwAtehMICmrWVKV3JOkmfMeDArdu39TZgloCBEIZ1AaPF4AW/8t+VpbU/Bc5uGjWqT3/xAJGIp9MdOvxgzKpvg6T79R2sSBeDL3DDTGPNmnVKgsEin3upEtSSJTXIH0byXLN6Hd29e0+RrV4gb9zjEDnkg3xjNCxALl++SpE+0rUIHHjLGPBQF+jsWODUDJoyBn0MdPZI+fKVK2pghA4ekkEv9uLZImSsPn17KkmpXLnSXNcMdOzoP2rmppVhfe9p6cZvzZt+9eq1MdnmNhZvbRkGYCx8N23WULUTM0eQtlj4EYh0Unb7EFJ2/PhJdXNhIRBTU+iMFy5epPv3HqjW5MkT6CmHp2nwAGFrVv+kr75jH6QAaUEjZYQ4GQkZeaATvjPICtA+EfYEsjTaCa4/LGXK5MZktR2TBxB4utH54dYMWh+8nIoVgmrkiEbAQ13uuzL6wqF2Xri+uf5Zs0KHHkSnTp7mBcmJymu+c+eOWjjVyrR+cM+dO6/qiLhVoyFOF4uYkICsbTxHNUQxJBqJD8mYBc2YMUflAIHBY8WCbLr0aQ1nkVroasihWYjOweIiBm5Y8+aNLQYS40kgBJAjCANesBalgrBBEMWrV69o4MA+xlP0bSxGI4IBg7zRPDzcjbv6NvRbp+j/Rn1ouis8a5AyZhGDeMF0/vwZFguCefPmJqytYLDQoh30QnnjJktoMDwXIdk0lmhgiIA4deqM2q5bt5a6N6H9I5yxXTsvJavUrdNYLdzW4qgZjXxxAjzzk6dOE/oa0R4whD9+rPn7B85ikiS1HUP/seX/l86PdFLG9BYrt38fPqokidRpXNXIirC3v/46wiFBT1QIXFiiNKw7DAQHg84Lb1yzmjXjUKYQRvFMnP8oex0grBMsZSD6oW3b1loR6huxoZs2b1VkDZ3S2qAh4mO0vXv3qd28+XIbk9U2BgdjDGyQDB+RAL177pzpynssWqywRUkaseAhhXQ0d85CRZqYVRht27adahdep7V9bQgzsz6GfWM446pVa2nmjLlqgchWXqTBG4Q3DfLGfaLC6s5doO49OpP1lBwDQP/+vZVcAmmoW/c+FJ+n1BMnjFGLlxs2brZ3GapcuYI6hoXFG76+dvPhAF7YWb1mqUUebVA5cOBP1dd/HTqsyNA6IiPHh7UIkCD6wtrSfvCs4aRo0pt1Hm3/GK+zVGLtHwuwW7fuIDw7RmfhAUdvYOCDZAWCxroJ7istFBCzA6wNwDCYaZq4V+ceah2mDhO4LZlLu769b8witrIWD8uRI7tFNsgsMz4MsDVrVvvoNQmLwk26E+mkDBy//bYAIZ4ZWl7JksUVtEWLFuZp7s/0gkftatX+DaGzhbsfhz9ZmzZSIz1DhvT8P1HuPLn0RT/sY3pp1HGRZm1Y4Bk6ZJRaYMS0E9pylaoV9WyIwe7atZfyAIcPHxSsfqqdBL179KjxaiprHCS045/6Gx5a/QZ1glwGDxBmAWPGTKBUvCAJbw/haMbZw5Yt21VUCTx/vCn4MVa9elUVJYGokpkzJ1tgB214KS/wgjhANPPmz1ShV5g9DGB9GIuXixcHes/GOsBbhh09ekx5ysOGDdTlBGuv3Xietv3y1Uu1yPvth/UMLV37PnPmLG3ZvE3b1b9BjIhE2blzN2Gw28oDF6QEpBstR/asavcZxyHbMrQVBIlIHdxr0O7tGWQLzPYQwYKoC/SVZnAiZs2cr3Yxu0D0CYhbC6lDHDQIGYNvL17cxDURi1+rVkN1X65e9ZNqZ+fO7dWMTSs3pG84QBMmTFUDKWYrxncFICMO4TUghEQmT5ZMPQPp0qXhkLt/5bKQyv8vHv8spIwpHTRZ6MiTp4xXuBdgrXnixKmB26z/2bOcTCRYdf6WFx1ww2FVG4tSWMHetnUnR2rkVQ9zjRpVlVeGhyQ7L3xBJkEoGhbsGjeub694KlWqpFrxX8u6JEgI+bEqjZhcRIRs3BDofUGLRjuCM0xZf/t9P3mPn6Q8vyFDB1jomsGdGxnH8DLAyJGDaThHhdxkzwoPJLwsvDV27OhxFQUCTwcecu/e3W0uBuElEmv7+ut8NqMNMI325FA3XO/n3XssHv7oLA1cuXxVvd6MQVkjVJDUIiZjRH7EC+blICxWwRBtA1KCDIIPvLi79+7RSZZxsOYAD9xouA4WmxHnbsswCNszaNi477p3+1Fl0aJ+jPnhee7YsdHidXvjcVx//PhRHArYRZUD7Rsv2ABza20WkUW4h7HOADKHBg/DfTZh4hRu4yn68cfuinCRrs0GsA3ZApbxwyAAEj/EC9iwTp3bKfkIESAIB/0fS1X2ZB/kR1mYXfzBL8JgYRoeNwYkRI8YDQMajiGyCoMnpENE3QgpG1EKuv1JSZmVCpuGaSgI7fz5C/q0HYt3mI6hw42LJSjA6N1iweT8iAvUl0OfRo0eqsgZ5AmvFuF28Ajx4ENnxHlYEdamaTjW4IPHiLrZWqTDOXio8dEMmip0UWjCuFYzPpaO//5CcIZBp1nT1sqzgb7Zt29P5QkFd471sTcBgTKMdYSDdT5tX8unfWvpwX2jHdavfSMEEFjCi8YiG6adIHCjRfmgJA8aONyYrLZnzpqsNG1jv2mZSpcuxVLAOjWlxSzpPa/ew2rXCtSx8dbcvLkLVZr1f4sWBUoI2jnG4zlzZlfhboi6wQeeIF4oQT9oZuvlG2D1FcsKue2sYUAzhvNgy4AP1kO2s5f8Dc/+7M2CrBdNrctyc0vPr+TPVou9uBbu5WT89yWsSbl6jSqUgtcwrvJ9iNA+lIuonT59BqqZG+6xMpxuyzA4gOiXccw3vHoYngvIMBgEMDiMGzeCZzBzgw2jvHTpMrVq2U6/BBbpe/TwsrnegBdkYJs2blX1RuiqFgqrFyAbQRCIwiNm0GDZINm+rARUGXKFcQEDNcQDBiLQprRIQ17o1Ajf0bwvpIfVMNVDGdbT0+DKweIYvGyEEVmTWnDnacdwE0NrxLTQ2sPT8hi/kRfnfP99Nbtvmxnz29sGjmhvMjuvkds7Lzzp+/cfoP79hpD3hNF6WJq9crAIC6906LABdt8ow2LfZSbSp0+fKS0Y3nU8/tsM+Mbbptb3QAOOyEnNDkGWrJltXhZ/HwNvO+7Zsz1cfWiz0BASgT2kPS3sLrjsmAksWbqCSnK0jqZz28uP8DXcI3jjFC8JpeG/a1K0aJEgzxGeGVsDqlYu1gbwJiIGQkguwRnWB/D3SAJY5sB7AhjgxYJHwCFJOfgmyVFHQgBRKY84ZhxeZ0gGssACVuJEiezKASGVYX0ci7Yuzi52y8MAhdePoecGR1TW5cq+JQIYPMLjmFiW8t/YE1L+b/SztFIQEAQcBIHApWsHqaxUUxAQBAQBsyMgpGz2Hpb2CQKCgEMhIKTsUN0llRUEBAGzIyCkbPYelvYJAoKAQyEgpOxQ3SWVFQQEAbMjIKRs9h6W9gkCgoBDISCk7FDdJZUVBAQBsyMgpGz2Hpb2CQKCgEMhIKTsUN0llRUEBAGzIyCkbPYelvYJAoKAQyEgpOxQ3SWVFQQEAbMjIKRs9h6W9gkCgoBDISCk7FDdJZUVBAQBsyMgpGz2Hpb2CQKCgEMhIKTsUN0llRUEBAGzIyCkbPYelvYJAoKAQyEgpOxQ3SWVFQQEAbMjIKRs9h6W9gkCgoBDISCk7FDdJZUVBAQBsyMgpGz2Hpb2CQKCgEMhIKTsUN0llRUEBAGzIyCkbPYelvYJAoKAQyEgpOxQ3SWVFQQEAbMjIKRs9h6W9gkCgoBDISCk7FDdJZUVBAQBsyMgpGz2Hpb2CQKCgEMhIKTsUN0llRUEBAGzIyCkbPYelvYJAoKAQyEgpOxQ3SWVFQQEAbMjIKRs9h6W9gkCgoBDISCk7FDdJZUVBAQBsyMgpGz2Hpb2CQKCgEMhIKTsUN0llRUEBAGzIyCkbPYelvYJAoKAQyHwRZPyq1evyO+1n0MBKpUVBAQBQeBjEPikpPxj7wG0desOm/Xz9b1J/foOpuvXb9g8HhAQQAP6D6V69ZvS3Tt36fGjx/TgwUN6/PiJzfwfm3jw4CGqVLGGXszvv++nMWMmqP3GjVvSkSPH6MWLF9S3zyB6cP+Bnk/bWLx4ObVs2ZbevHlDqDsMZXbt2lvLQu/fvafDf/1N79+/19OwcfXqNZtl4piPz3W7GAHDDes309OnT5HVpuFaq1f9RKdPn9WPP3z4iPB5/vy5ahPaZe+DPFp+vQDDxv79B+jPP/8ypIS8GfAmgC5duqz6NOTcwecABhs3bqHXr18Hn9HOUeCycOFSevv2rZ0ckiwIRC4C0T/l5W7dvk0vX7y0eYl3797RH3/8j1q1bhbkOLzjUaPG0eHDR9SxunWb6HkSJExAq1cvIScnJz3N3gZIHIR37959Sps2DWXIkI5ixoxpM3vUqP+OTzdv3qKZM+dR5crlFYE+5HJ8rl0nEPW9+/fp6bNnlChxIooSJYoqCx79qpVrqFr1KqrO06fPprlzpjNR+NG5s+cUGZ84cZLmzFlIJ0+eolGjh9K33xbU69GzR1/KmSsHDRzYR0/TNiZOnEZJkySmH/v00JL0b7Rv0qRplO/rPBQvXjxF+JmzZKb48ePpeYDzjBlzeHDoRDlyZFPpY3mwwYARFitU6BsaOWpIkFOWLV3J14tv0Z4gmawSQKStWrajHj26UMVK31kdDdvulStXaeKEqVSuXGmLEzEARoka2D8WB6x2bnJdFjEpN23S0OqI7AoCnweBCCfln3fvoVevXlP06NHoyZOn7KGdoW1bd9LLVy/pu3JlKG68uKqlGglakys85xHDx9Ar9nxWrVpMyZInU/m3bN5G48dPpkGD+ipChgcIwokWLVoQ5M6cOUsjRoylG9d99WOxYsWkly9fqYcXBOUSw0U/Bk9T87QuX7qiPN7UaVwpTpw4NJLLcXZxUeSHE0aMHEwd2nehwYP7UYGC+VUZ27fv0sv29/cnkPjChUuYBLOr9IaNWtAtJnoQUJcuHcgtYwb92vBEMWgUK1ZETzNuROf24fq2zNnZWSXj+9mz5zSc65o0aRImqTEUK3Ysdez58xfqO36Cf4m6tWcLatykgcIx6gfiAjadOnajjp3aUp48X1lczs/Pn2LEiGGRpu3kzZeHNrGnGloSVOd94Mp48QPvBa2skL4xkJw8cYrbmJQxcSan6NHp3LkL6rQ1a9bTc8YAg+apk6epbt1a9H2t6urY7dt36Pjxk/SWZzBoi5+/H/n784yGZzUXL15WeaZMmUHv3r9jj/mdmu2UKe2u929I9ZLjgkBEIhDhpHyCHxp4cE5O0SkvP9znzl+kvXv3ETytS/wAxIrFZMEPJR4g2IIFS5j8YpOXVweaP28RLVmyQm+f0UPWEr06/+sx5s2bmyZMHKMdUt+rVq2lmTPmKvLt3asbbdu+Uz2QixfPpUOHDtOQwSOUJDB8xGBKlCihOqda1Tp6GZAgqlatRJs2baVZM+dSv/696eSpM9S5c3vCgNPnx4FUuUpF/YFt+0MnOnv2vDq/ebM23L6Y5JralVauXEtNmPhgbdq0oIIFC6hj69dvUgMVyoBdu+qjvrNmzay+9/3+ByVmz9iFSScK/4Os4HPNh9at26gkiObNG5OrayqVN9oH7x4DVNy4ccjbe5QaMIYMGakGDwx8mrSR/MPghhPd3NKr843/gZRhIPiMGd2Mh4LdzpkzO61csYbgsRoHGwyuIHIMEtb2NiBQKrA3a7HOr+1jgLp79x5f6xqTqr/6PHz0SB3GvZUgQXyeDaVXXvtXX+XUTqMLFy6p2QLqgoE2JtcLdcPAjHJg0fl+VQM8Y+nPZO1iZxDSC5UNQeATIRDhpNyla0eCt6k9oJMnTaf77L0MGTpAES702GjsRRt11ahRAqWDjJncqE/fnspTnjFjEmVwC/Qot2/bSZu3bKPp0yfpMCxZvEz3crREXBeE/F35stSrZ1c1fZ06dSZlzZpFSQ2QDKZMnUAdO3ShObPnU6/e3dSpmzYzkc+cozz6H3/sTh4e7nT58lV17AIPKhg03rNXnpE93EdMApdZD8WDnjlzRkXW12/4KoIHybuwVwtN+Zdf9lLyZMkUEcMLxgMPb/Ioa9Pw9DS7wvIKzDVVINEOGDBUO2Tx/ZzJOUvmTIo09QMf5BPMGGAZMqSn/gN+JGj5a9lzrFP3ezVA4ljKlCnwFaKNHzeJ9u87QM2aNaJs2bOGmD9XrkDy+/vIUYK09Ntv+wgzB+BWr14tavNDqyBlBLwN1Nw1Tz9IBjsJmJlosxMtC/Ts3r36U38ePEGsMMhJxhlY8eJFCB/N0D/wkP39/OjxkydKcmrbtrUuR2n55FsQ+BwIRDgpY1EO3iZucpACyKtoscKqbYWYFEHWICjoirvZ8zR6fiVLFtc9u7U/bdA9WTxAt2/dpnnzFuoYneDpaNy4ltPf2Uy06dKnpe7dOytCxoISvNgSJYrp57mxl1i0aGHasWM3de/hpeoCL3Pvr7+rPDPYO/ZlqQHab736tZUnDylj3bpNKg3eFuSGtWvWKZ0XxNW2bWe9fG0DpJbKNaWSL8qUrqTIWfNGBw3uq2Wje+z5gcw0/XPX7s30muUf5cEx6UL/TZosKXXr1kk/R9swespaGmYkpcuU0ss7evQfSpkqpdKctTzBfVerVplAsGiTe6kS1L59G0rCnrs9g3eKPl3IM57p02arbNmyZSFPlkiKFClk87SAD54y5IewGNYaJk+ZTsmTJ1feLogXHjoMg+8jXgy+4eurnIIFC2dR+vTp1DHjf1go9vLqoc9QjMdkWxD4EhAI21MRihpDA8ZUHwtQIAOQWytezIOk4enZgafyLRXZ2SsKD1rtOjVZL3SiR48fE7xkWEH2ktasXkfl2QvG9B4PHL41gxcKr6l+gzqsZwc268SJk+owpthGy8OyBwYE1CkZEx4WA0GYIMciRb5Vx+BVYyEP3ygntasrubsXp2P/nKBJk8exZrxULxKSRZcuHanYB28MUSMYeCCvzJs3Q+mcWN1HGjxWLDpqBg8YRK8Z2m/08mJy2YjosGUakb97G+gpa3n68mxDW4SE51qwwNfaoRC/CxX+RunKkG8wyzkET/THHhaeplYICG6C9xRFgsAAA5EHa7Fp0qTWstj81qJTogVDyphRGfsXBUHzffjgkVorAG4YuKABwzDIY/AoXryo0pONmKoMH/6DvAXJaPacaZSC79XRo73VgrM/a83GdQbjObItCEQmAhFOyqh89RpVCJEXA/oPUW3JnCmjWnhq195TeVNFihZSBGXdUEzD77Cn7cayBab5u3b9oogdi2SQNTp27ErZsmWlEiWLUi+esp6/cJFatGhC0E7v3L2rijNqiQcO/Kk8VEQ2GE2LCNE8zfXsBcO7Q/hZu3ae9Ct7zZhag9hA/iBTLMgV5XpDH//fgYNUoUI5Y5E0nz3Fn9i7h8E7z507F+3Zs5emTJlJ69evVOlY+ES0Ql2e1ifm6A0Y6pI4USK10GhrMS0GyyGah61OMPynyT4gK82gQT99+kyRP2YpICBo62ExtLdGjaqUP38+XtAcwQuqQcPF0JZ27bzUAuYPbVtR9WpVQk1qWHCDYTHYlmEAa9KkFXXjGY+Hh7ueBRq0dQQI1jCwQNl/QO9QzQYQRQPJBdITzDV1oGx0zceHsnDkipgg8LkR+CSkjEZh+nqAyQuRCHjIYd9/X10toM2ds8Cm1vgPe6Fdu/RSniOmvli4usqLXPDY5syZTzVrVqOFi5aqDzyhYUMHKEJG2dB81Tcv1MAQTbFt2w723Erp11cH+D/EHMMSMRneYlkEXmHLlk0VKWN1HvvQROHpIxztCUdnaAtymbNkYu//DN28eZvKlvVQ5eA/SDOaBrt8+SqVDo8duiUkHWjMS5cGLmJi4CheoqjKg4EoHkekDB40ggp+k1+18RmT6iGOZwbBInJA8/zVCYb/NE8ZswQQ2Z49v7HuPptqcGhe48YNOApjihpstHoZTg3VJjz6WTOnqDUA6xPQhxgsp8+YSNmzB4baWeext//uQx9p3rx1PkTPYCDSvGDr4/Ciz3CoIWLXgQ/sBUeZICwwJENY4Ny5CzmyZ626LxDDDUM5QsohoSfHIwOBT0bKWCjTQtJmzZpHnTq3UwQKDXnH9t2KRKwbmC9fHlq+YqHSBvGSRb9+HCHBHmWTpg1p8aJlLBkg/neBSps2bYLFND/JBwkAWjMIHQtdeLArVfzO4jLnz19QMboITwOpwVuGNJLjg8SBxbpZs6ZQ5Uo1KV++3CqWFtP0GtXrUt9+vdQAkYWJGXUyGiQGLawO4VYwRE+gDogiwfS+bt1aahZhJA94x1goxMwAXv+K5asJ2jjywzQvGS+n1GFZx+hNa2GFu3/ewwts+xVJQsevwYPXho2bVbQGJBlEYBivqQoO5X/a4pl1dswCypUrHWZCRjnaIA3t3NowSC1dEjizKMr9aG0Y8ObMXqCSMWg+YYkL1qpVOxUn/j233Vr2UBk+/Ferdk21iIsFYRj6/i++1xImDIzE+ZBNfaFPsMYAg0MA6UxMEPjUCET9FBeAZug9fpKaJmIKijAwLDjBSpUqSaPHDNMfTOP14Y224kXC9jwtPsmxpji3ZctmSgZAPoQ/DRjYR5E9QsSMBh22atVKKhQN0QfzOLwOGrDRS4Ss0MWrp9KOGzSoq06HBo7YZ6PdYJIEGWLxb9So8UrKwMOL+OTLV65SpUrlg7yBd+LkKSVtQN7QiEIrEx7/xo1rFJGf57hahNZpFpsjO/DwY7EMHxAyFtsQEbJl6zrVJuRdMH8xtW7dXnnw2McbcZBdYAhJy8oDxaLFc9QC666dP6vBAxIEPHXovhFtGCyBkxb5EZbytZdbMAuytiU8+GBtoGHDunqstZYHbxaCkBHVsXv3Flq+fAHLQ97qcGEmcAxokD3QfmN0j3Y+vhFqCKljx85NtHXbeqXXY+DKzgu2RsPMY8jQUYRZTRmebY3m+wAevJgg8KkRiHBPGR7jUI6TBQEuXDSb0qZJQzt3/KwW/uDp2puyoqGInIA3imkzPFos7EHnbdykIb+uvV29VVetemWqzd4OPJ0H9x9S8xaN9bf0EH4Fr/bw4b9V5EfjxvUJUsDfTHp48WDnjt3qGmPGDFcLfBq42osW2v42XlyETDF8+CAaOXKcWghE6BSiLpAWwA9si+ZtaMuWdXqUQ6tWzfQXQDAoaAaPN9/XebVd5b1isbDMB+lDix8uyREi0IiRH3IJNFtgeeToMbXIBjli4KDhdIpjplG3TRu3KpkFxAsNH5hhIJk2dRatXbteDQCYlXydPy/17zeE4nCoG14MCWsYml5xq43KlSuoPsBAgZeCkiRNrBZnEY6GF1lAuFc5nnjK1PFWZ5KqK2QEzKAg3UA2uHjxEv2x/3+M6Xb15mEj7jtr8/vwKrVxtnD48BGVrWfPLuTZujnfZ9NVnwEnhGfaM4RpIlrk2LHjhIVRa4kIBAx5BNEnmJH8739/MimfC9fMwF4dJF0QsIVAhJPyoIHDlZaMBZl06dKqa3br3kn9/QTs/Mq653v+d/fOPXUMcb2aQbKA94cHDeRUlqfHePsuDnuTeJEjDoeuwdq2a63S8OLJfn5VexGTPzxlnDN4SD+tOPWNhcPBTGY4BjJv0rSBeoHAIhPvvGOihSFUDp4nvCkMCClTJleeO8LM8NLGxIlTlfaLF0Q0TRfnQSZFDDMWnrDIibfisJqvESU0cBDWho1bLKbBWvxwFn55BOUhimM4v9GoheipNg3qp7zo6SzZaKSKcL3Wns1VW0CC8BJXc5gePGNIRSBrGGKkm7MsAk8bxDdx4libC3LaYp51JIcqxMZ/kGIgiezgmGS8xm1t8D7RZnjSmsyi5YF80ZvjwTt16q7+loiWjm94wS1bNtNjjpGmGeQKzIYQ+YIPsAG+TTnqA7hg1jNs2EC15pCJF5dtGTzggQOGqYgLHEdYpDZAGvOnTJFC7WLwS8H3AMgbLziJCQKfGoEIJ+Vy35WmSvw3IxAvqxkiGLSY0WtMdNu27qA3LHFAXkAYk2bJUyTnByAFjRs/UoWTYXrcrKmnOoyHHCFmMHjb0HRBOA8f4u1BJ5Vu6z94oitWLlIvchhJ1DovXg3HA45Xbxs2qqd06fYsV6Tl8K6Jk8YqkkXcM+Jhd+/+hXr37q4XgfMQnoW/dYG/mYFBBKFlCA1DeN9N31vqjwqh3mXLeFDdOt/r5yLqAwMAokpgIAh39xKEl0qcuV2p07jqUg8w0Ewjc+y/fPlSLSJWqlRB1V2TB7S8eLMQBAmZxF7YF9oAw+vtoTVEoGhRKEpTZwwR5haDByNrIrYuE9isWb2UX5M+z7LUY0rBfZ+eZ0rB9SXKgPfbij1izKSwuJuGZwjabAPH0ceYIdgzDAj5C+SjtOnSKJnIeK7xHOjS6Je5cxepewKzDMzkxASBT41AFNbeAsMVPvWVwlE+qob4U3jTCCEL6UEPxyX0UxDpgIgKLVQKB2x5eUhHvYwyDLzxBPxHeewRHs751IaoEeilH2PwIoGxsW0fU55Zzg3T3/UwS6OlHZ8NgS+alD8bKnJhQUAQEAQ+EwKfJPriM7VFLisICAKCgMMjIKTs8F0oDRAEBAEzISCkbKbelLYIAoKAwyMgpOzwXSgNEAQEATMhIKRspt6UtggCgoDDIyCk7PBdKA0QBAQBMyEgpGym3pS2CAKCgMMjIKTs8F0oDRAEBAEzISCkbKbelLYIAoKAwyMgpOzwXSgNEAQEATMhIKRspt6UtggCgoDDIyCk7PBdKA0QBAQBMyEgpGym3pS2CAKCgMMjIKTs8F0oDRAEBAEzISCkbKbelLYIAoKAwyMgpOzwXSgNEAQEATMhIKRspt6UtggCgoDDIyCk7PBdKA0QBAQBMyEgpGym3pS2CAKCgMMjIKTs8F0oDRAEBAEzISCkbKbelLYIAoKAwyMgpOzwXSgNEAQEATMhIKRspt6UtggCgoDDIyCk7PBdKA0QBAQBMyEgpGym3pS2CAKCgMMjIKTs8F0oDRAEBAEzISCkbKbelLYIAoKAwyMgpOzwXSgNEAQEATMhIKRspt6UtggCgoDDIyCk7PBdKA0QBAQBMyEgpGym3pS2CAKCgMMjIKTs8F0oDRAEBAEzISCkbKbelLYIAoKAwyMgpPyJu/DUydN0/fqNT3wVKV4QEATMgoCQcjh78v3793Tp0mW6f/+BRQmvXr2iy5eu0O7de6hr19505uw5mjxpukUe486SJSto7959xqRQb/u99qMaNerRn3/+FeI5AW8C6Nmz54TvgADbH5SHPKG1PXv20tatO0Kb3WY+4CgmCAgC/yIQ/d9N2QoLAm8D3lKrlu2oabNG1Iw/mh0/fpJ69+pPs+dMo3NMyI0a1aNpU2fRjRu+lDq1q5ZNfd+9e4/mz1tEPXp00dPfvHlD131ukFvGDHoaNkD0J0+dJicnJz393bt39PjRY/r776P08OEjPf39u/eEcqpVr6yn/br3dxoxfIy+b28jXfq0tHDhbHuHLdKPHvmHbt++Q5UqlbdIt945euQYbd22k6JFjUr+XC9/P396/vw5PXn6lF6+eEmzZ0+lBAkTWJ8m+4LAfxIBhyflf/45QXt+2UsuLi5BOtD/jT8lSJCAmjZtSFGiRAly/GMSojsFQufi7GxRTPTogemxY8eixk0akr+/P82bN4NSJE+u8sF7jhUzpqrv7du3Vdru3b/Q5s1b6cGDh3Tv3n2VtnPXJnI2lO178xbt33cgCCkj8wkeCHxv3FTn4T+QtR9f10jKuXPnolGjh1KMGDHsYgEij8rEabQzZ86y/OKr2oG2gFDxDW/7NB/DYICZAK759u1bevX6NXl6tqBkyZLqxUSLFo2iMv4xY8WkRDETUUxu/5nTZwkDWL6v81K0D5jpJ8iGIPAfRsDhSRlEAAkBZBg1qiXxQhZImSqlhSf7sX2NKbsimajRVFGXLl+hfUyWml28cFFtQlJw5Ws/ffqM8ubNTRqJlyxZjF69fEW+vjfpNBPTd+XLUrasWShGzBgUL15cNYgkSZzIgnxRYPHiRSg9e7EvX75kggskzrdMhAcPHqIKFb+j7Nmyquu+p/dMmG8po5ulp508eTLCJ6wGDNG++Fy3uHHjMqm7kDMPgC4uzoqEUZ6Ts5MicxBztOjRuO6Wt1XuPF8RPpqhvAXzF5N7qRL044/dLQYfLY98CwL/VQSisKZnWlGvTu1Gigz69esVYf1bqWINJsZXYSpv+fIFanAwntSv72C6xZ7yzJmTVXnx48czHra5PX78ZNqyeZvNY9aJS5bO0+USyCe3bt1Wg4l1Puv99+/f0atXr6lR4/qUx0CkWr4XL17QxYuXKW6cOLRjx266cuUqjR03Qjsc4veWLdtp/LhJrIVXpQ4dfwjimYdYgGQQBEyOgKVLE0mNnThxKu3a9Yu6WrlypcnLq0OEXxkLWpAC0qZJHaFlr1u3Unl2UdgrL+Ventq0aUn16tfWrwHP9cfeA2j1mqWUJElinuq/CeI5wtv+44//UeYsmahOncZKF4Y3DXKDzHLs2HECeUGrTpcurV52164dqVu3Tvo+PNPSHhXJ23uUkgG0AxhnjXKNC3u38GZjWEk8v/++n+KzvJOHpQ3NMEJDTjBq19oxRJL07NnXYlAqUOBr7XCw39C5FyxYTFjYbNfOk2cIZejJkyeUMGHCYM+Tg4LAfw2BSCdlEPLGDVt0nLXtiCbmu/fuqWuksUHKixcto90/7wn1tBme4/RpE9RiFAguOPPz81OHIXGAGDHNN9rly1eVp4i0DOnTUdsfWhFnpK5detGQwSPoBBMfFu+SJk1CPrzgB1KG1tuwQXPCtVGutQ0ZOoqsPW0MBtWrVaY6db+nVq2aqVMg9dy9c1f32s+z1ILBoGPHtkqKuMPHUrHkYs8mTZ5OadOmoWHDBtJrbmcXr570miM2QjJEdYwaPZ72/vq7atfChUto+vTAxUTIS/nz5yPP1s0pLkskYoLAfx2BSCdlzUM2Ao+0iCZlTNdhqVNbRjwgLXbs2GrhTSNOpNkyeJxq0YwJSNOEtXya6qN9a+mPHz9Rm7FjxdKS9G9EKnTr1lt5moMG96WSJYsrbx4kBUMURcWK5alsOQ/KkiWzfh4W3+CNx+IyNVLezZj99dffVLBgfvXdoH4dNWhgEe431oGLsQbt5pZeLwMbhw4dpj4/DlSRIZkzZ7Q4Bg9248YttHr1EpteMjJfOH9Ree+JeQYAA4mePHlKYWS9QKgy8H/QzgfzYINzEWHxbaFvlP6NWcKzZ8/oCEdmrF+3kfX1MzRr5pQgOGvlyLcg8F9BINJJObKAvXbNR10qlWtQz+/7WtUJn48xhMQhbA1EaTSEriGszJZHDfkgUaKENHz4IMqRI5siycGDhisJAZ5x8RJFqX2HNsbi1DaIuGbNamob3u48DqMDITdoUJdatW5GXp170P0HD6h6jSo0aOBwdQwRJzlz5bAoa91PG1WdM2Vys0jHTtmyHrRo4VIlK9kLcUOkxAYm7uQpktNlXuBEW2EYiNAua3vAC7CNGrZQybXr1KSWLZoGweVrLjMva9c9evQleO7ARUwQ+C8jELiMH4kIQEO2Nltp1nnCuo/FKHhm8Io/hcFzRqibMewMJLRp01b65psCNi+J+iAmF8Rz9eo16tWzn4pAWLhwFmXLloXjeKPZPA+J0MjxQkrLlm1pxfLVKh9IHBJJB5YfVq/6iTp17EYHDhykceNHBiFkeKqHDx+hevVqq3OsL+TqmorQD9OnzaJHj/6NeTbm69HDi2cYyWj0qPG0lTXvXLlyqsOIGrFl8Kib8OAwdao3NW7cgOOfl/BA0lzFcUM31yxDhvRqU5vdqB35TxD4jyIQ6Z6yJlNoMgaIQEsLSx+AAAcMGKrCtIyLWloZx4+fUDIBFt1giKtFWFZjjir4FAYPdurUmarosmU87F5Ckx927vyZveyYLGd0VhEIb9++s3vOs2fPqUmTVkprhrfat28v1mDb6/kzsxQBT3odywDQj6HRGu0pv6TRt+8gSp3GldzdixsPWWy3bNmU9u8/wKTrTcNHDNKlEi1TypQpaAZHi+CtReje7dp3odJlSqlwRC2P9Xfz5o1V0rKlK2kHt7kpx25jMRR69ISJY5SmvZ8XPWFZWNIQEwT+6whEOikDcJBweIjY2FmIENBe1LDWdZHvq68CIwpsHTOWExHbPj7XaeLEaYQ317p27aSiKkIqF5ozQuv++OMgFStWWJEgzgG5X7vqQ5BfSnmUVMXEjRuHSbkBpeeFwXz58vDi2muVDr0bEsLfR45S1qyZqXLlCjR37kJ6wbHMDRrUoTgctoaoh6FDRintev6CmXb1YhSYjL3gH/v0oP79hvCbhouptWdzdR3r/zALGTlyHL9I4keNG4VukLt565Z6aaR8hbJUtVolfqGnNc2ZPZ++/bYgR2UsofIcr21L/7e+tuwLAmZHwNRxypHRedOnzaY1a9apS3l16UDVOOIhNIY34Xr06KPrspA2QHJaDDS86K3b1lsU9eTJU/p1z29q8Wzt2n+PQcNu0aIJv2BSlFaxjDFr5lx1Hrzmhvya93Z+xRkat4eHu/o7GSdOnFKEvWTxMhUv3IojH4y2csUapW9D0jDaLX6rsF//IarOqO8I9qazZw+dBnzhwiUaOHAYoQws8vnya+doK9r5/ffVedBpKIt8RrBl+z+LgJDyR3Y9IipAlHirLkGC+GEqDV78RSYreJH4GxAx2XuGPos35xDiZnxVGQVDxqhXtzFr0tmVLp2FvWPo09axvnhde8ni5ZSXvWprueI4v5aOhUK8Dg1vHS9wZMzoFqp6o77jxk1U+cuXL6cINVQnfsiEWQB0bYTe4VVzLBgiQuRT6f5hqZvkFQS+FASElL+UnghlPSBH4MUVMUFAEDAnAkLK5uxXaZUgIAg4KAJRHbTeUm1BQBAQBEyJgJCyKbtVGiUICAKOioCQsqP2nNRbEBAETImAkLIpu1UaJQgIAo6KgJCyo/ac1FsQEARMiYCQsim7VRolCAgCjoqAkLKj9pzUWxAQBEyJgJCyKbtVGiUICAKOioCQsqP2nNRbEBAETImAkLIpu1UaJQgIAo6KgJCyo/ac1FsQEARMiYCQsim7VRolCAgCjoqAkLKj9pzUWxAQBEyJgJCyKbtVGiUICAKOioCQsqP2nNRbEBAETImAkLIpu1UaJQgIAo6KgJCyo/ac1FsQEARMiYCQsim7VRolCAgCjoqAkHIIPXfq5OkQcoT9MH7Jevv2XepXqcN+tuUZp0+fpYULlxJ+lDS8hh9EFRMEBIEvA4HoX0Y1IqYWu3fvUQWVLethUaCv700C8bi6pqIoUUL/o6ObNm2lCd5TyNOzBdVvUMeizI/Zwa9NjxntTUOG9Fd1+piybnLbFjEpN23SMNhiHj16RJMnzyAXFxd64/+G3rzxp+f8C9rPnz8n3xu+NHLkEMqd56tgy5CDgoAg8OkRcGhSXrliDR05coxGjxmmyPbs2XO07qeNVLBgfkqQIL6O3saNW2jN6nW0cdNqihcvnp5ubwMEjrJnz55PJUoUo5o1q9nLGq706NGjqfOiffgOqZDbt+/Q8eMn6W1AAPn5+ZOfvx/5M7EGvHlDFy9eVqdPmTKD3r1/xx7zOybcN1SmtDsVYBw0ixo18Jouzs6MQVyKFSsWPXv2TOGVIGECihM3rpZVvgUBQeAzIuDQpOya2pVmzZpH+/cdoOIlilKD+nUUyWzcsJmaNmukw3rs2HHKkSNbqAj56dOnyqP85edfqV792tS6dXOKGvXzqjwXLlyiGTPmUNKkSShOnDgUM0YMisEflxguTM7+qp3RnaJTtGhMvDyg+DMpu/Bxo8WPH48GDuyjJ/n4XKfOnXtQ6jSu5O09WpWtH5QNQUAQ+GwIODQpFytaWJHKavaCQcqJkyRWnu0G9owbN2mgyPQGT80vnL9IHTu1DRHkvXv30dgx3vTy5Svq1r0zVa5cIcRzPibD24DQ6cDFixchfDQLYI8ZHrK/nx89fvKEDh8+Qm3btg61NHPmzFnq3u1HcnNzoxEjBlFc9pzFBAFB4MtA4LOQ8sSJU2nXrl8UAuXKlSYvrw7hQiNK1ChUvnw5mjtnAd26eYtSpkpJJd2L0a3btwm6LTzL35hoYZAh7Bk05+nTZtOBAwdVlho1qn5yQsaFBgwYSpWrVKQa1auQW8YM9qpnkf748RPGqwddu+pjkR7anT/++B/16zuYSpcpRe3be9Kr169ZuogTakIP7XUknyAgCIQPgUgnZRDyxg1b9Npq2+El5mLFCtPhv/5Wi1Yo1MPDXX2wjYiEHTt3U76v81IS9qKNhmn/gQN/0tYt25WniWOtWKoAwTs5Oxmz6tu4jveEqRQzpqU0oGew2sA12rXzpMKFv7U6EribLVsW2rJ5m/oUKPC1WlDMnCWTzbxa4qpVaxUhz54zjVIkT0ajecEQROvPWjPkDHsGnXzVqp9o1sy5Ksvxf05QzRr11XasWDGpQIH81KhxfcqcOaO9IiRdEBAEIgGBSCdlzUM2tg1p4SXldOnS0oSJY4zF6dvLl6+mG9d9qUXzJnoaNuAZe7Zur2QK7MMzbtiwrpI/QMr2zJkXyVKkSE7OTk4hepYgQWi7WFCzZ02aNqRMmTLSypVrlBYOGQIzh5Ytm1IyJlxb5nPtOuXKlVMnT9fUqVS2az4+lCVLZlun0EuOssBgqEWnuJcqQTlzZqesWbOQMw9A0NwRoufVuTvNmj2VUrNWLyYICAKfB4FIJ+XIaibid+fPW0RFWXcu5VHS4rIIjatYsTylS5eG5Y4SFJen76ExhIx5e48KTdZQ5QFxQ2Lp2LEt1a3zvVpgxAB19Og/7NUuIcgz1oYFy7lzF/LxtWphbzV7vzBEaNgjZa8uPZWujqiU7qyVWxM+yLlChXJUrWodtWiKBU4xQUAQ+DwIRDopwxPUJAutyUiLSLt//wENGjiMvdSY1L2Hl82i23doYzP9cyWCKIcNH0j7OJLkPYe22SJk1K1W7Zp0+fJVmjkjUIYA0f7FskrChAntVr1evVoqlK58+bK0du165TFH44gSDExVqlZU5yFUEJq8L2vzYoKAIPD5EIh0UtZkCk3GACFraREBAyIL+vQZRI8fPaaxY4dbxCtHRPmfugxjlIWta7m4OFP/Ab2pZ6+uSjPv22cgIc44e/astrKrNA8Pd/V94sQptaDZ2rM53b1zj73+yYQQwIaN6tHlS1fUYmkO3hYTBASBz4dApJMymgoSjkgiRpl4dRnaLF4SgYc8afI4yp07Fw6Z0u7fv68IFnpw3749KXr0kLsSEgesaJHClC59WhUyCCkEMczz5i9WaSVK2o9SMSWQ0ihB4AtDIOQn+QursK3q4A22zrxIhUU9eJrtO/xAye0slNk63zrtHb8V9ykt4EN8Mt6+C6shomTggGEq4gLnQp4pY/Vaub0yCxf+RkWiNGvmqeK7teuPHz+Z8Gq6Z5uWFDt2bHunS7ogIAhEAgJReLHJFH+NBm+9YSqeP3++cMMGwlu2bBUvmGWiQoW+CXc5IZ14985dDtX7mfDyS2jjk41lUGShKAAAQABJREFUrl+/ie7du0/VqlUO1+Bz9sw5unT5CkXlvwMCLTs9R7DgxRsxQUAQ+PwImIaUPz+UUgNBQBAQBD4egc/7Rx0+vv5SgiAgCAgCpkJASNlU3SmNEQQEAUdHQEjZ0XtQ6i8ICAKmQkBI2VTdKY0RBAQBR0dASNnRe1DqLwgIAqZCQEjZVN0pjREEBAFHR0BI2dF7UOovCAgCpkJASNlU3SmNEQQEAUdHQEjZ0XtQ6i8ICAKmQkBI2VTdKY0RBAQBR0dASNnRe1DqLwgIAqZCQEjZVN0pjREEBAFHR0BI2dF7UOovCAgCpkJASNlU3SmNEQQEAUdHQEjZ0XtQ6i8ICAKmQkBI2VTdKY0RBAQBR0dASNnRe1DqLwgIAqZCQEjZVN0pjREEBAFHR8AUP5z6KTvh1MnTlDNXjgi9BH55+88//1K/tu3qmirUZd+6eYtix4lN8eLFC/U5AW8CaP8f/yN39+L6Ofg9w1evXlG0qJZj8nt6T/7+bygOXyNLlsx6/sN//U1Tp82iceNG0qVLl/nXwmOp3/fTMmjnJUiQgNzc0mvJdr9Pnz5Lhw4dpsaN61O0aNHs5gvuAH5aMgr/xqCYIGA2BExFyrt371H9g19mNpqv703CQwwCDMuDvGnTVprgPYU8PVtQ/QZ1jEV+1PaDBw9pzGhvGjKkv6pTaAvr138IJUqYkMaOGxHaU+j0mbM0eNBwOl2nJrVr56nOW7liDe3Zs5fJNWaQcl6+fEXflS9LvXt304/9/fdRRZ7Arnev/pQgYQL9mLbh7+dHlatUpLZtW2tJdr9vcn8sWriUmjZpaDcPDjx69IgmT55BLi4u9IYHizdv/On5i5f0/Plz8r3hSyNHDqHceb4Ktgw5KAg4GgIOTcoglyNHjtHoMcMU2Z49e47W/bSRChbMTwkSxNf7YuPGLbRm9TrauGl1qLxMEDjKnj17PpUoUYxq1qymlxURG9GjB3qH0T58h6ZMeLyXL12hih2+U9nhbd5gYoobN45q++vXfoqsfHyus1dcgnLkyKby5c6dS5H/gAFDFaHXq1+bCTYq1fy+GnXs2NbmpY0/cO7H5WJwatasMd1kT33W7Ck2z0Eifg38DA8C2bNno9u379Dx4yfpbUAA+fn5k5+/n/LCA968oYsXL6sypkyZQe/ev+Pz3jHhvqEypd2pAPedZlGjBuLk4uzM/RZXeejPnj1TfYyBIU7cuFpW+RYETIOAQ5Oya2pXmjVrHu3fd4CKlyhKDerXUQ/sxg2bqWmzRnonHTt2XJFUaKb9T58+Vd7ZLz//SiCw1q2bU1Srab5ecCRu+N68qa6WI2cg2V5mGWHGjDkEzxamSIplB3jSRYoUUmnaf8CmzQ+tCIQNAwE+efKULpy/qGUJTGcCjR07FqVLl1ZP3759l7oGSL5nz77kzF5rcJYoUUKaN28GQSJB/ZImTcJySByKGSMGxeCPSwwXJmd/VUR0p+iB8gUPgv5cJxc+brT48ePRwIF99CTUv3PnHpQ6jSt5e49WZesHZUMQMAkCDk3KxYoWVg/oavaCQTyJkyRWnu0G9owbN2mgyBTeJMinYyfbXqGxH/fu3Udjx3grEurWvTNVrlzBeDjCt98GvA11mT7XAgk1VapADRpSAT6htXr1aulZ4VUfPLiPMPDYsl27N5OTkxM9e/qMFi1eprJAV9+wcTXdv/9AHbM+D0QPmQGkDCtevIj6aPkCmPDhIUPmePzkCR0+fERJHaGVk+CBd+/2I2vWbjRixCCKy56zmCBgRgQ+CylPnDiVdu36ReFZrlxp8vLqEC5so0SNQuXLl6O5cxYQFsFSpkpJJd2L0a3btwm6Lby035hoYZAh7Bk05+nTZtOBAwdVlho1qn5yQsaFICmAWGtUr0JuGTPYq55Kv3f/vvrGIlxYDGQZPTp383uWF969VdsvX76k5i2a0Pr1m8iTZwIVKgZKIp6eHShr1iw66XpPmEKPHz3WL3fT9xbLGIG6tJ5o2IDMY2vwe/z4CfdxD7p21ceQO/Sbf/BCZb++g6l0mVLUvr0nvXr9mqWLQNkm9KVITkHAMRCIdFIGIW/csEVHR9sOLzEXK1aYEB2ABSCYh4e7+mAbGueOnbsp39d5KQl70UbDFPrAgT9p65btymvDsVZMUCB4J2cnY1Z9G9fxnjCVYsa0nGbrGaw2cA0srhUu/K3VkcDdbNmy0JbN29SnQIGv1YJi5iyZbOZ9xTIFFuaM0Qpnz56nVKlSBKuT9+zRlyDfwBo2qketWjUjn+s3FBGDRJcsXUmlPErSkb+PqRmFJhdgkW3vr78TBiiQNyxN2tS0du0ycmaN19resCesaeXWx1atWqsIefacaZQieTIazYucIFp/1pohZ9gzaNurVv1Es2bOVVmO/3OCataor7aBRYEC+akRR3BkzpzRXhGSLgg4HAKRTsqah2xECmnhJWXonxMmjjEWp28vX76ablz3pRbNm+hp2IBn7Nm6va7HgngaNqyr5A+Qsj0DGaVIkZyceWof0rQbhAKdFOFj9qxJ04aUKVNGWrlyjdLCMaXHzKFly6aUjMnLaNCO43PIGQYaEDNIs1vXXlSNvWxEh9iz1nwMi2uTJk9X8gIW3eD9JkuWVMkL0IyHDR1NR48eo1q1aujRIAlZmwauOFcj5es+N5SnbC9qA+e379AmSFUgveTKlVMnT9fUgRLMNR8fi9A744kveZDFAK5F1LiXKkE5c2ZXnrwzD5oYaFB3r87defFxKqVO7Wo8XbYFAYdFINJJObKQQnTC/HmLqCjrzvAEjYbQuIoVy/OCVhqWO0qoCAbjcXvbCL/y9h5l73CY00HckFgQBVG3zvdqgRED1NGj/7CHuIQgz2j2jqWH+Kyjjhs7kRctsytSxqJbSGFlWhRG/PjxCaVdvhwY+ZAhQzpe1ItNnVhr/7H3AHWZZs3/XRxFQt68udUsRB3k/zAgIdIF2rG1QTNOyIOGLUMd5s5dyG1aqwaU1ez9whChYYyHNp7r1aWn8twRSdOd9X3rQQoyS4UK5aha1TpqoReLsmKCgBkQiHRShieoSRYagEiLSMNi1KCBw9R0v3sPL5tF2/LobGaMpESQzrDhA2kfR5K85zAxIyGjCohMgOe9Y8duqlipPC/UHaK0aVIHO/23VfU//jiotHd4woiQ8B4/WQ0M9+7dVwtpPXp0satvX75yhZYsXsFRFEFJGVJNYY76sKWN16pdkweDqzRzRqAMAaL9i6Ug1MGeYWESXn15jpleu3a98pjxsgsG0ypVAxc4EU2DdQRfXk8QEwTMgkDUyG4IZIpq1StTTNYE8cF2eKULW3XHKn1rliZAMoMH97OIV7aV/0tLQ9SCrUXJWDFjqjhleNa5cuZgDzOTigPewpo4Fjkhazx79lx5l5jWW5sfL4495WiKZawhQ4cfP26SknBSpkxBc+ZOp4ULZ7Mu/4Klk7Y0cMAw69PVPt72O3nyFH3zTQH65lvLzxMOJXzIi6u2zMXFmfoP6M36/ibaum29CslDCF/27FltZVdpHh7uyhM+efK0WoTFG4nwjr29J6s2IBPittH2HMGUg3xigoAjIRDpnjLAAQlHJBGjTLy6DG0WL4lA85w0eZx6jRnHzGDJUwRqzMWKFVFeNML1Dh06rMjVVvswtYeBrKGTQ865eeu2ir2uW7cWe8iTCLMI5EMcNmKCFyyYRTt3/mwRcWEsW4vXrlW7RhBN/cTxkxTSyzD3OYIEUS7Qg/v27RkYFWK8gI1tSBywokUKU7r0aVVdIYWgvvPmL1ZpJUraj6yxUaQkCQJfNAKfhZQjGhGEfXXmBR8s6sHTbN/hB0putVAWlmu+4zfMPqUFfIhPxptsoTXouTA3t/TqGzHZk6eMV7IAXqp4zZ4w3mKEJJDww2vQwKVTx26EKI1Bg/vSAZYu8KYiQtsyuGVQcchr16yngLcBhDpBgsBLJfB4EcaG8t6++7eO2pt+bdp0VHUw/ofXniEl2DIMDPC+EXEBw2BQxupVeFvnIa1w4W9U9AxC8fDSiIbZeJZd8Dq9Z5uWShu3d76kCwKOhoApSBkvOgwY0Ien508pf/584e4DkAfidyENfErDgh2u42qHxGxdO3369ByON5oyGuKZEYWBcDB8bBlwwZS/a7fOKg9kERAZ/pbFJX6R4yX/USL8TQlYVF5UjMbxzIgsgbQAQoaB7GHARttu0KAue8oqWf9v2bJV9PpVYF498cMG6pm/QD5Kywur1apVDtOAGSdOHLW4evbMObp0+Yr6Q0jQ39Nz1A0GJjFBwGwIRGHvh18rEBMEbCOAxTb8vQnEeePvYEA7RjidtSHMDqSOv8UhJggIAuFHQEg5/NjJmYKAICAIRDgCkR59EeEtkAIFAUFAEDARAkLKJupMaYogIAg4PgJCyo7fh9ICQUAQMBECQsom6kxpiiAgCDg+AkLKjt+H0gJBQBAwEQJCyibqTGmKICAIOD4CQsqO34fSAkFAEDARAkLKJupMaYogIAg4PgJCyo7fh9ICQUAQMBECQsom6kxpiiAgCDg+AkLKjt+H0gJBQBAwEQJCyibqTGmKICAIOD4CQsqO34fSAkFAEDARAkLKJupMaYogIAg4PgJCyo7fh9ICQUAQMBECQsom6kxpiiAgCDg+AkLKjt+H0gJBQBAwEQJCyibqTGmKICAIOD4CpvjhVPx2XBT+4U9nZ2eLHsHPD/rzD4M6OUVXP01vcTASdk6dPE05c+WI0Cs9fPiI/vzzL8qdOxe5uqb6qLJPnz5Lhw4dpsaN6xN+3DQ8BoyjWP+KajAF+frepHv37gfpq4CAANUm7dQ1q9fxL2wHUP0GdbQk9Y0ffY3OvwVo9butFnmwg1/hTpQoIaXjH1g1Gn7hG79W7hLDxZistvFr3sAhvFgEKTAMCRfOX6R06dMGwSUMRQTJir7ZufNndZ989VXOIMdDk7Bh/WZKnyEd5c2bOzTZJU8EIGAKUq5Xv6m6aQYO7GMByYULF6mNZ0caNLgvlSxZ3OKY9c7u3XtUEn7t2WggEdzcIMCwkM+mTVtpgvcU8vRsEYRYjOWHdfvBg4c0ZrQ3DRnS/6NJ+Sa3bdHCpdS0ScNgq/Ho0SOaPHkGubi4qF+/fvPGn56/eEnPnz8n3xu+NHLkEMqd5yu7ZQDD2LFjq1/IBs64prXFihWTtm5bryefPXue/Pz89H1to3u3H7XNEL/r1a9Nbdq0tMjnPX4y/f77fotraRm+K1eVatSoSp06t9OSbH6fOHGKjh79h5o0aWBx/NnTZ3T79h3KkCE9RXcK/aN1/vwFdZ8WLJifxowdblHmx+zgfh09ajzV/L4ahYeU8QvmkyZNo9aezUMkZfxw7ouXLz/6nvyY9prl3NDfOV9wi2PGjEkxmDCsLXq0wOZZe9DIt3LFGjpy5BiNHjNMke3Zs+do3U8bCQ9GggTx9aI2btxC8No2blpN8eLF09PtbYDAUfbs2fOpRIliVLNmNXtZw5UePXqgRxvtw3dIhYAkjh8/SW/Z68QvU/v5+6nZQwB7jBcvXlanT5kyg969f0dv2YOEJ1mmtDsVYBw0ixo18JouPBOJFy8uxYoVS/3CNfBKkDABxYkbV8sa5PsGk3bjRi1p7rzpCtdGDeupQQAzG8127NhNUyZP13bVd7RoUdUMxyLxw87gIf0UttiFdwsynTZ9IuXIkU3P3rtXf5seL+4FZxv3Ck7EwODiYjnbQvrhv/6mqdNm0fjxoyhx4kQEAlowfzHlyJ7VAieQdd++g2jEyMFUuPC3ODVEQ9kDBw6j1GlcqUvXjiHmD2sGtAkzi7DY5UtX1MBy985ddZqbW4YQT79z9y790KYTLV+xkFKmTBFifslgH4Gw9Zb9cj77kShRbcjjH6bVtjxc19SuNGvWPNq/7wAVL1GUGtSvo0h544bN1LRZI709x44dVw97aAj56dOnyqP85edfCV5a69bNP4tsoleeNy5cuEQzZsyhpEmTUJw4cShmjBgUgz+YvoPQYPDq1JSdBxR/JmUXPm60+PHjMXH8Owvx8blOnTv3UETi7T1alW3Mb9yeMX0OubsXp4wZ3VQyrgWcnJyc9JmHVg/jeZ9q29a9YHEtG1JM+gzp6dpVH1q+fBV17NiWihUrQm4ZM9CiRcstSPnkqdOqKEhLIRmkGQz2GLzzfZ2XBg/uR3HjxgnptE9+/OXLV9SyZVs1QMVPkEBdD4Pvtq076MmTp5Q+fTqbg0fWrFmoSJFCNHPGXMKgKRZ+BExDymGFoFjRwopUVvODAVJOnCSx8r42sGfcmKelUZnk4eVB6+vYqW2Ixe/du4/GjvEm3NTdunemypUrhHjOx2R4G/A2VKcXL16E8NEMZAAP2Z+lgcdPntDhw0eobdvWOkFq+ex9nzlzliAhuLm50YgRgygue872DFLLgQMHqV//3hZZqlW11IktDoZiB1PymTPnqZzw+GHwUDFj0uzWzVuUKXNGbTfU37ZIOwnfG5A1QE4tWjRRUkyVyhXV1P769RuUJk1qev/uPW3fvouK8n0FqSY4wz01avR4gkdasdJ31MWrY5jkjuDKtnUMfR5ag2e99qflfI9cYiLeScARRAwR340H1uw8O7BnJUsWYylrnCJvDORi4UPgs5DyxIlTadeuX1SNy5UrTV5eHcJX+xDOes9TchgI1towfS5fvhzNnbNA3XgpU6Wkku7F6Nbt2wQygWf5GxMtDDKEPYNeOn3abEU+yIOH91MTMq4zYMBQqlylItWoXkV5bUgLyR4/fsJY91BeX0h5bR3/44//Ub++g6l0mVLUvr0nvXr9mqWLOHYJ/SjLQzDjItGLFy9UWo8eXShnzuxq+z29V4tvaicU/1WsWJ4yZgr0vEHK41knrsKDYCrDwueyZStDUZJlFgyoUW14ysjlUbokrV+/if744yDhni1StJDynO/evadIGV4yZI0yVmsSxis8e/acVqxYTSuWr1bJkCyAw6c2DCa+N24qbblggfxqUTy4a0Kiweeff04ox6Ud93VoTOtn6O2YHYmFD4FIJ2UQ8sYNW/TaatsfS8zvebXd2qChwmzpzUgvVqyw0guxaAXz8HBXH2xjkWPHzt1qaglPyWiYbh848Cdt3bJdeZo41oqlChC8k7OTMau+De3Qe8JU9uYspQE9g9UGrtGunaddbTJbtiy0ZfM29SlQ4Gu1oJg5SyarUix3V61aqwh59pxplCJ5MhrNC4YgWn/GyVY0gnY2dPJVq36iWTPnqqTj/LDWrFFfbcOzKsAPeiOO4Mhs5ZkiugOaMx5wzTCIwQoUyEfJuA5hMXijsILf5KdvvimgtoETSLkQa7hGTXnvr7+r49b/oS22TCvbWrrR8ubIkV0NLpqmnyxZUlq9Zql2WHcyChUqqKdhA9eD1rx9206Cdg6rUPE7unL5ipKKVILVfyDvli1+oFixY9nUxa2yq3u1RPGi1KJlU+tDah/kf+LESRW1g23IasU5v61ZAeQ6rENkz5aVbvAsIG2aNHqZWMh8w17377/tp4SJEgRZPEd/or9PnzojpKyjFvaNSCdlzUM2VhVpH0PKGXh6ZWtx4Q7fXDDcKLYM4VITJo6xdYi9oNV8U/pSi+ZNLI6DVDxbt1cyBQ7AM27YsK6SP0DK9gwLTClSJCdng5ZqLy8eZGi7WFCzZ02aNqRMmTLSypVr1LQaMgQ8uJb8YNojO59r1ylXrpw6ebqmTqWKv+bjQ1myZLZ5qZc8YGEg1aJT3EuVUB4uNERnHoDwEGPa7tW5O82aPZVSp3bVy8GMIxNPeY127uwFtQud22gv+DpDhvZXercx3bj94mWgl42QuitXrqpDAW8Cp+boF+OAh/JsGQaIHNn/XRDU8jx4+FBtIozOlmG2Ze9eAQYYIKtVq2xRfwzsnp4dlEyBMqG5Nm3WUGE9oP8Q8mVpwJZF5Vkc7mdEu+C6tshTOw/3Cq4TLxi5AFId1kk2cx0XLlhCAwcMUwMYBn3rkM2rV64pWUYrH9+VKtbQ7/ehwwbQuXPn1QCzYeNqspYp0rKUg34XCz8CkU7K4a+q/TOHjxhk8+CZM+dUeqqUKW0et5cID2/+vEVKHyzlUdIiG0LjMH1Oly4Nyx0lQr04g5Axb+9RFmV9zA4eRkgsWHiqW+d7tcCIwQ1Tx1WrlticosKTnDt3IR9fqzyw1ez9wuAZ2SNlry49la6OqJTurJVbEz7IuUKFcgSdGIumWODUDDHVSZJazjISJU6oQgSNktI5Dn/DoILFv+DsKXtqsHFjJwbJNmJ40ME1T96vguTDYGbLEH0Dgz4cFoP3OHjwCNUXrVo3szgVi6eQl4ADZI1ULJGFxqBJT5o8LjRZQ5XnHd8rWNytXbsmVWHJa+mSFbRs2Srq0KErOx8LCNKdZtVrVFHy2w1fX2rfzotnB3mUVIPIm9hxYqsBOX/+fIqU/zp0OIhcA5J+9PixVpx8hwOBSCdleHOaZKHVF2kRbViA2bp1uwpxC0vM6P37D2gQhyhhWt69h5fNarXv0MZm+udKBFEOGz6Q9jEpQkc3hpsZ61SLH8rLl6+qFXKkg2j/YlklYULb3iHy1KtXS4XSlS9fltauXa885mjsvWFgqlK1IrKoUEE82NaeXwyO8EAontGwEIaP0aCxXrvmE+JU/QkvTMIQXqfVGfJF/XpNafjwQZTNsAg1dMhI4yWC3X7N2viypStVn2e1M2OwVQCuDQkIWvLESWNVdIt1Puj+X5KBnCG1eXi408E/D1kQslZPPC9Y3EPoYFaWySpVKq8d0r8RfYIXeaw19Dc8cwGBi4UfgajhPzV8Z0KmqFa9MsVk0sMH2x8jXdiqxR2Or+zUqbuacv3wQytbWWymIbKgNUsTmB4jRMkYr2zzhC8sEVEWwS1KIga3/4DerJVvUi9PICYZ0k5wK+oeHu7KEz558rRa0MQCDrxjb+/JisgAAaIIsEqPuF2jQQp49CiQSI3p1ts3b90O1UsH589dVMSZkSURlK19UB7aoe3jG1P/0BiIdUD/oYSXVRCFEpy2biwP3m+3rj8qTR7SQJ5gXp4xnvelbINUGzSoG2x1sO7w58FDQfIgNA59DjnO2iADYTYkFn4EIt1TRlVBwhFNxCgXZPzrnt9oyZLlipD79O0ZqsgEPGDQZhE3Cg8ZU8fQxJrimo5o9+/fVwQLLbQvYxSalwsgccCKFimsXgeG/AApBNPVefwiBV4RLsEhUUbDdB2SyjtehDXKFcY82MaDb+1xWefB/iGeLmPBLSIMi2kobx7LVBhQsDZQKRRhjFg8xqLdnDnz1T2Gt/9wrhktP8sUkDkgdxUrVkSFHAKzdes2qua6s3xnNITeIdwPi45i4Ufgs5By+Ktr/8ytHNyuaY1YzMLDktkqGsDW2fAWO/MiFRb14Gm27/ADJQ9jVICxXPxdhU9pAR/ik/H2XVgNC0JY5EHEBQzyTGjIEHkLF/5GRaI0a+apwqS06yPyAa+me7ZpGSQ+tyBHSCxcuJSweATPTDOkXb50mZJyBAO8rnv37ispRTuOb5SP+mqGxSXEPGOgNZoWNfHu3VvC3xrxYdkqNkct4NsYjWE8B4uELZr/oJIguwwc1JdCG8I1efI0Fb+L9sCxCM/ry7iwdfuM9YvIbYT5hfeeRETNFe47vBCCj2bAbCy/Do6B2GiXL19Ru4iOEQs/AqYh5e/KlaGn/IB/W+gbfrEhfagRweLSgAF91Ftm8AzCayCQ5i2a8IJZpvAWEarz4vPLGriOKz8YYTUsPOXnULS0vEiJSIGwDD5x4sRRC5VnefH0Ej98iOeFlp2eI1jw4o0ty5o1s5IV9u8/YEHKSId3etP3lnqV2qtLB8qXL49FEYhnRgSKZs+fv1AkUKqUpXcG3PECRty4ccnH54aKHcYfqIKcAe/OlmXIkF694INIEZCqepvRVkYbaZA4MOhjHSQs51kXhReWXr96bZ0coftYDEaYXEbDgBiWC0B/xiL6NX6bEYMcYsJByJk4RtzW7AoLvVh8zpLZdiRPWK79X84bhTvu/X8ZAGn7p0UAoXTTp8/mvweyKNR6LWqEqTBCwYzEh/C3sCzaftqWSelGBOCRN2zYnKOBftBj/Y3HZTv0CET6Ql/oqyY5zYBAmdKl1ELhxYuXwtQceGJGQsbJQshhgjBSM6N/K1b4jkqVsgwhjdRKmORi4imbpCOlGYKAIGAOBMRTNkc/SisEAUHAJAgIKZukI6UZgoAgYA4EhJTN0Y/SCkFAEDAJAkLKJulIaYYgIAiYAwEhZXP0o7RCEBAETIKAkLJJOlKaIQgIAuZAQEjZHP0orRAEBAGTICCkbJKOlGYIAoKAORAQUjZHP0orBAFBwCQICCmbpCOlGYKAIGAOBISUzdGP0gpBQBAwCQJCyibpSGmGICAImAMBIWVz9KO0QhAQBEyCgJCySTpSmiEICALmQEBI2Rz9KK0QBAQBkyAgpGySjpRmCAKCgDkQEFI2QT/i17gX8C9K3+TfvRMTBAQBx0bAoX84Fb/Z9vDRI3JxcVE/5GmrK97Te/UDlfghTWdnZ1tZwpyGnzV88OAh/1xRVIrC/+zZ23fv1DXjxo1jL0uEpOMXuRcvXk74FeFUIfyg6gTvKeTn769+A++N/xt69eoVPXv2jG7fuUvf16xG+AVjMUFAEPh8CDg0KeN3wdq27Rwq9Nz5V5AHDuwTqrwhZXr+7DnVrtUwpGzqeJ2633MdW4cqb3CZ/Pz86bff9tE7Jno/Pz/y531/Jtc3/AOjjx8/VqeuXLGWkiX7jX++/q06lpF/dbhWrRoWxeJ37zCYxIubkGLEcFG/SrxgwRKVJ3Wa1BZ5ZUcQEAQiHwGHJmVX11Q0duxw5Y1GiWpbibl2zYfGj5tEyBta6+LVk74rX5bK88eWaT/g2bBRPf6hSMufvDfmb9WyHTk5ORmTwr394sULmjRxKiVNlpTix4tHsWLFUqTqwj8D/56JGubk7MSzhsDZAGYPsTmPtXXq3E5Pwi8Q9+s3mMuKSSNGDqE8eb7Sj8mGICAIfB4EHJqU48aLSwUK5g8WuQMHDqrjZct4BJvPePARe56vX702JtncTpE8GWXM6GbzGBJBdhFliRIlpK3b1lsUhwHn3t175JralXbt+oVqfV+dcubKYZHH3g506N69+9O9e/dp8pTxwbbDXhmSLggIAhGPwGch5Yns8YFEYOXKlSYvrw4R3zIu0e+1H23auIVy5MhG6dKnDXKNjRu20KFDh9V03njw2lUf2rBxMx05cpRlgDfUtl1rSpcu6PnGcyJz+/279zR8xBj65edfw3XZ69dvULeuvQmD2uT/t3cdcFEcX/gJKiqKvcUO9m6MsSvB2HsBe1fsvYu914i9a6Kxm1ixxMTejb3+o2IXu2IXUP/vG9zj7rjjQI4D9T1/x+7OzM7Ofnv3zZtv3rjTJpEDa+3Q57URwGdVKicJAoKAVRCwOSmDkEGGmmn7UUHMu3bvJQzRq1Wvol3OYJvIKSGlz5COSdlel75i+Wq1D4kAHigmwuLHt47H++LFS2rdqj0lcExgcE3dxY12oA2XKV2SWrVubpBz5OgxRch9+/YgNzdXWr3mT1q08Dd6y1qzJTt+/CQNGTxC4eLAmnKzpm10pxT6viDVqFGVXF1L69JkRxAQBGyLgM1JWfOQ9W8TadYmZX//5yoiAVEXZcuU0r+cbt/NzVWRmpagSR04Ll68KDVo6K5lWWVrZxeL0qZNExwtwhp4rFjmIzcQ4QFSdkrsFOrat2/fUWlubq4EYnVxyaKOr127ToULF1L7xn/gXa9h8p49e77KKsKyT16WOnLkzE4pU6akSxf/R3v37qfhw0YTDfMSYjYGUI4FARshYHNStsV9wSPt2bMf+XHcLvRSeKaW7MKFS+Q1cBjV4bCwU6fPEMLZrG2Ojo40leWCyFqOHNlVFVOnzaKCPDm39PcV6tjv7j2zVc+bv4hWrlhDaTlkbuDA3kzIeQzKOjtnpsqVK1DXrr1pi882IWUDdORAELAdAqZDFqLw+tCQjc1UmnGZ8B6/fPmS+vYZSL5Xr1H7Dm0oXz5D8jFVz66de6hP7wEE79HTs5WSFhB6FlMN99SmTQvaw/LM2LGTKGOGDKqpmAw0Z5UqlqeGjTx4kckcevnyFWPkRU2btqa5cxZwiF2AOi0We/IuWbPQ9es3zFUj6YKAIBDFCNjcU9ZkCk3GsOZEH4h43PjJdPm/K0pH9vCoGyZ8T3nhifeUmWrYXrp0CRo0uL9ugYkWZhZWBfv3H6KHjx6bLQI9O6oM4XiQVzBBt3TpcoL0UorvwZxhohMdzutXr2nkiLFUhiUdyBerVq2lK1d8aQKHFr7h9h49epwKFSpgrhpJFwQEgShGwOakjPsBMWvkbI37O3/uAoeLbaet/IH16t2NqlWrHGbVkDhatepAz54+oy5dO1CtWtXJjnVemD1vw5IvNC/67NlzdJMjGcIyrWxYZT43DwS7avUftGzZKtUJhSdCxP/5czXJly9fXqpStSJl5KgS6MiQNqApQ/IZNXLI5zZJzhMEBIFIIhAtpBzJNhucjgmxtWvX0e7d+9Rij0aN61OGcKxMw9LnHj06q/hcUwtL3vNKOXMWyN4pYpC7detEFSr+bK6YkgestXjE+CK/L11BCzniAoaICf1FIcZl9Y8x0ejuXocX3Uyh+QsWE2KtYfPmLVI688xZ3uT8aeJQ/zzZFwQEAdsgEItJ7aNtLhV1V0GkBbRkU+T6OVeF55g7dy5y96jzOafb5Jxz585zDLYP1a5Tg3Llyhnha967d59OnTpD+P8vUqZKoaJCwuNpR/hCcoIgIAhECIGvgpQjdMdSWBAQBASBGIyAzaMvYjAW0jRBQBAQBKIdASHlaH8E0gBBQBAQBEIQEFIOwUL2BAFBQBCIdgSElKP9EUgDBAFBQBAIQUBIOQQL2RMEBAFBINoREFKO9kcgDRAEBAFBIAQBIeUQLGRPEBAEBIFoR0BIOdofgTRAEBAEBIEQBISUQ7CQPUFAEBAEoh0BIeVofwTSAEFAEBAEQhAQUg7BQvYEAUFAEIh2BISUo/0RSAMEAUFAEAhBQEg5BAvZEwQEAUEg2hEQUo72RyANEAQEAUEgBAEh5RAsZE8QEAQEgWhHQEg52h+BNEAQEAQEgRAEhJRDsJA9QUAQEASiHQEh5Wh/BNIAQUAQEARCEBBSDsFC9gQBQUAQiHYEvvi3WUc7gl9IAzZv2kL+z1+QXaxYuhZ/4Hfmpk2bmpyds9CYMRNp9OhhlDJlCl2+uZ1Ll/6jQ4eOqLdoJ0+ezFwxs+nLlq2if48dpyneE8yW0TJevHhJcePEIfvY9lqSwRbv/X379h3FjxePYsex/HV+8uQpbVi/iSpWKk/ffZfWoC45EARiAgKWv8UxoZVm2hAUGERPnj4lBwcHA7LRL/6R+Ef75i0lSZqE4saNq5/12fsggsePn5C9vR3F4n/m7P2HD+qaiRIlNFfEZunbt/9DqdOkogL589GcOfOparXK6g3Wjo6OtHLlWrr83xX6fekK1R6QNfGnV+9uJtu3dct22rvvADVr1kiXDzxwTvIUyXVp2Nm8eSs/G8bJLgSnc2fP0/0HD2nr1r8MyuJ55siZjbJnz6ZLb92qPT18+Eh3bG5n5KghVKpUCXPZuvTAwEBasmQ5FfmxsEVSnvLLdHoXEEBBQUHqrd9v3ryhFy9e0L37D6hunZrUpGlDXb2yIwhYC4EvmpSvXLlKHTqYJg5jgFx/KkNDhw40Tv6s45fsvbnXaxyucz3q1+U2tg1X2agsZMekePz4SQJmKVOlpKNH/6Ub129SsWI/0uHDR6lN25bcuQV3Wh8/MCnr2e7d+2jjRh9K7JSIPdbY9M/fu1Qn16ePFz158oQeMsG+fv2GWrRoQs35o2+HDh6hD9w52dmFKGU3bt4i/2fPaP++g/pF6f3795TAMYEBKfft24Ps7O0pNl/XlKGDBFlmy+qiy373LoD27Nmnrvvu3TsK4OMAJtdAJtdnfF3YyhVrKVWqPeqayHPJ6kz16tXW1YEde74uOl6nREkpXjwH1YbFi5eqMukzpDcoKweCgLUQMP1Nt1btUVxPunTf0cSJo5U3GkvvR69/2Rs3btLkSVMJZcNrPbr3VcPbSjzENWXaMLlxkwb0E5O9OWvTuiPF4aF3TDCQIqSJdHpDdpDy8+fPqWWrZpQtm4uO+EBSzlky65qdIUM6Kla0iCK1tWvXKUJu1NCD4ieITwn4kyRJEvWBFGJsQ7gjvHrVl+u2140qNrKUcuHCRUXiWvkPHz9Q/PjxKWPGDFqS2v5QpLDBcXgOXr16RVO9Z6jOJ7GTE7cxgSJVB5Y4PnIHAYsTN46uE8JIy5HLGFvXbh11Seh0Bg0aru53zNgRVKBAPl2e7AgC1kTgiyblROy5WfrRHjx4WOFV/me3cOP2lL0pSB6WLE3qVOTi4my2GAgrplhQ0HtyYe24QMH8NH3aLKpduwZ1796ZnF2ykK/vNZo7d6HSbtFeyC6NG9enVHx/MNwjPtCSF8xfTMOGe9H33xdiEmUd14wHq07kP/CIO3Xsrh0abD09OxscV6hQjgYM7KPSLl++SgsX/ModbhyKxfKHJUNH4sTfB5yfLFlS8tmyzuAUdM7w6NOlT0d//fUP1atbi/LkzW1QxtwBdOj+/QcrGWXa9MlhPnNzdUi6IBBeBKKFlL3Zi8EPA4YfIsghKuwdTwBt3LCZcufOSZkyZwx1iQ3rN6thPIao+gYPcv2GTXTixEke9gZSh45tKVOm0OfrnxPV+7gXDKc1L93S9YInwN4q7xNl8+fPyzruAzrBEkbJksXpAROUn999pZfWrVeLatasFmaV0GLHjZukymzY4EPDho5WXmO//r2oTJlS9PjRY/r7n10sZzw1kGtA7Dt3bWViDdGUl/2+kiWTYzR9xmSDa6LNmsXhSTsQPrxnePma3b3rR2fOnFPX1O/0IC84sVdsbJBiRo+ZoCQX47zwHN+6dZt69exPcACmTZtEDjwvAe07vM8hPNeQMoKAPgI2J2UQMshQM20/Koh51+69SuusVr2KdjmDbSKnhJSeh+YgO81WLF+tdjHshVcFvRLEYA1DJAEmrqCb6l/TXN3QWMuULkmtWjdXmu6sWfPMFTWbvmv3NpXX1rMl/bF2PS1a9JtB2cOHjxikYZi+Zu0ySqE3YQeynDZtttKgQYRubmWpS5f2asJsyhTuYHkS8cCBQ6reoixzoN24v9Wr/qBNm7eEutcQDdrToC04D53PsuWLKXPmTDRq9FCV/4An1pIlS6aIECMfkHL3Hp0oadKkynsFGWt6uEGFfHDk6DFFyNCm3dxcafWaP2nRwt/oLWvNlgwa/JDBI9R3yIFJv1nTNrpTCn1fUEWfuLqW1qXJjiBgDQRsTsqah6zfeKRZm5T9/Z8r0kDURVn25EyZm5ur+qFqeZrUgePixYtSg4buWpZVtphsS5s2TXC0CHt/+t6j8QVAhCApp8TB3p82EQVSDC+hvzGSYBCJkpj1Xw/3OsaXU8eQbZb8tixU3kImMYTUlShRjPr266lkgl279tD5cxfo2dNnBKzhMZcuXYIQzaFZ7jw5lTcNLRfm7+9PM2fMVdp2Mg6lQxhbHZYRYCdPnqYUnJaUpQd9zxh5g5gYU6VMqSNppMGgHXu4N2GC7mzW0799+44q6+bmSiBWF5ZrYNeuXafChQupfeM/8K7XMHnPnj1fZRVhXTsvSx05cmbntqekSxf/R3v37qfhw0YTDfMiIWZjBOU4MgjYnJQj09jwnguPtGfPfuTHQ11ogPBMLdmFC5fIa+AwqsOhTqdOn1G6qqVzIpoPwprKQ+DPse/ZM8MnMobwPXj+d/38TFYDkjNlKZInV3LBkKED1NB98KARyjOGJIJwtREjBymv1fjcvHnzMJnlUcm+V68pckUn6T11It2/d5+fUX8qVKgA3eJoDITZIRJk7LgRBtWA+BGu17x56GgX4InJWMghlStXMBnymCNHdlXfVNbRC/Lk3NLfg8P+/O7eM7iO/sG8+Ys4OmMNpeVJ0YEDe+vuQSvj7JxZXa9r1960xWebkLIGjGytgoDNSRkasiZZaHeANGvZy5cvqW+fgQQSaN+hDeXLF0wKYdW/a+cemjTJm+AReXq2oi5de6lwqrDO+VLz4NliWG7KjD1rrUyt2tWpeo0qykMfP24ye7WnaNZsb0WCiDAJayIOmuzaNeuU/IL6QLxYtIEPtOh+/QapZwWde/Dg/tolddsVn8gR55myho08aNu2HYQFKS1bNg1VBM+/TZsWtHz5KkX88PZv37qjJgNDFf6UUKlieTWKad6sMZ08dZq/T17kd+8eleI2tmjZTEkliLt2yZqFDh4Inkg2V5ekCwIRRcDmpKzJFJqMYc2JPhDxuPGTlWcFHdnDo26YeDzlhSfeU2aqoSiG3oOYFLQFJlroVFgV7N9/iB7yBJc5gz4bkyzofZCSDjAaMGXPWYaYN2+RyQ4JkglGIDt27FRyQa5cOdUwHvV85HA2U7Zm9Z8EHRySS7dunZRX7et7TVe0ffvW1KhRS92EIeQFfYMGDq16oFdfs5INQugQCw7ZBSMJU6FqCF2EFIUJuqVLlxNkqlL8vM0ZJoXROb9+9ZpGjhirOg/IF6tWreU4b1+awGGYb/jZHj16XHn65uqRdEHgcxCwOSmjkSBmjZw/p9HG52CI68PDXwyBYViJVo1XrIVlIJhWrTooTbRL1w5Uq1Z1nZZpz3ovwsLMGRZDwM6ePUc32RMMy7SyYZWxVR7ilBHaBq8S0g5GBoijBkkV5FA5rDzERB1WsGGCq2fPriomWWuf1mHt/Gc3lSvnSjlz5SBtIhHxzpCA4AFrscZlypZScklt7gRQNybYYCh77uwF+vffEzSVpYwBA4ZQu3ZdOOysl4oSQZlTp87QjBlzVLx4+fJuSDJr8ITPnD5LA7meJUsWhFpViBNBsKtW/6HuHR12eKJp/Lmd6Fjz5ctLVapWpIwcgQMdGdIGNGVgOGrkELPtkgxB4HMQiBZS/pyGmjsHE2JY0IBVZ9AXG3F8bYZwrLYCSfTgCSKQlKmFJe+ZmMxZIHtcmvdXoeLP5opR06atY8TiEWD0+vVrSs/RJMWKB6/gwxJpLBrB6rdKFWsw6VRSE18YIRxjstzHq+0wqadviHDAgoppU2dR9Wr1FAZxeeEFJBHNevTsoiPl1BwO14y1YPw/F4hxPnzkmBrF1Kzhoc7FRBuIfc7c6TRh/BTqxhotwhf7D+itniE61k6d26kJz7lzFlJinvT09b2uLuUQN8SrRseCRSo7WYYyXuaNwlg+jslKWI0aVdU9qAMLfzAp686TohMnTqH5CxYT4tJhGE1AK585y1vFeVuoRrIFgQghEIt/sCHBoRE6NeYUxuw/tGRT5Po5rYQ3lDt3LnL3MB2l8Dl1Ruc5//13mdp5dlFNgHcMXRU6sWbQTI8xcWqGDsedpR8smzZlGGVgRR5wx0gAZOmUKJGK5U2dKpWKctA/DyS2b98B5XHmyJGNcnIUQ1ZeFq0fRYKvIeSgHX/9bSAjafVAy77JE4K4Hrz6du3baFkWt+fOned4dR+qXacGQXaJqN3jSUl47oEBgbxKMIWKoAmPpx3R60h5QQAIfBWkLI/SMgKYcIPnFzu2+cERCM84HM1yzZZLIMRM/z8ksnyGlBAEvl0EhJS/3Wcvdy4ICAIxEIGQ9asxsHHSJEFAEBAEvjUEhJS/tScu9ysICAIxGgEh5Rj9eKRxgoAg8K0hIKT8rT1xuV9BQBCI0QgIKcfoxyONEwQEgW8NASHlb+2Jy/0KAoJAjEZASDlGPx5pnCAgCHxrCAgpf2tPXO5XEBAEYjQCQsox+vFI4wQBQeBbQ0BI+Vt74nK/goAgEKMREFKO0Y9HGicICALfGgJCyt/aE5f7FQQEgRiNgJByjH480jhBQBD41hAQUv7WnrjcryAgCMRoBISUY/TjkcYJAoLAt4aAkPK39sTlfgUBQSBGIyCkHKMfjzROEBAEvjUEzL8b6FtDQu7XLAKbN20h/+cvyC5WLF2ZD/xOvbRpU5OzcxYaM2YijR49jPC2bEuGF6geOnREvcA0efJkloqHysebuPEi1ineE0LlGSfgXYJx+aWq9rHtjbPUMd4L+PbtO4ofLx7FjmP5p/DkyVPasH6TesM23totJghEBQKWv4lRcVUr1RnEb5V+8vQpOfAblfUJQ7/6j8Q/vDdvKUnSJBQ3blz9rM/ex4/58eMn/OJPO4rF/8zZe37nHa6JN2fr29Gj/1IcfldeLDvzA5V3795RqlQpKUuWzPqnRsv+9u3/UOo0qahA/nw0Z858qspvmcb7/hwdHWnlyrXqDdV4YzQMZE386dW7m8m2bt2ynfbyS1TxNm3NgCXOMX4T9ebNW/m5MsZ2IRifO3ue7j94SFu3/qWdrrb4LuTImY2yZ8+mS2/dqj09fPhId2xuZ+SoIVSqVAlz2br0wMBAWrJkORX5sTBZIuUpv0yndwEBFMRvRccLV9+8eUMvXryge/cfUN06NalJ04a6emVHENBH4Ism5StXrlKHDqZ//Po3iX3Xn8rQUH4NvTXsJXtg7vUah6sqj/p1uY1tDcr26zvI4NjcQVr2xpYvX2wu22bpdkyKx4+fJOCdkjsKdCo3rt+kYsV+pMOHj1Kbti25Ywzu8PCSVH3bvXsfbdzoQ4mdErHHGpv++XuX6iD78Bu0nzx5Qg+ZYF+/fqPenN3c6O3Zhw4eUW+v1n+Z6w1+o7X/s2e0f99B/cvQ+/fvKYFjAgNS7tu3B9nZ25t9WSw6V5BlNn6ztmbv3gXQnj371HXRMQbwcQCTayCT6zO+LmzlirXcYe5R10SeS1ZnqlevtlaF2uJN3ei0nRIlpXjxHFQbFi9eqvLSZ0hvUFYOBAF9BL5oUk6X7juaOHG08kbNeZ03btykyZOmEsqG13p076uGqJUqlTd5ijbUbdykAf3EZG/O2rTuSHF4+GzKGjSoR8YkpJUDWdSr28iALLS86NiCFCFNpNMbsoOUnz9/Ti1bNaNs2Vx0xAeScs6SWdfMDBnSUbGiRRSprV27ThFyo4YeFD9BfErAnyRJkqgPpBBjG8Kd6NWrvly3vW5EspGllAsXLioS18p/+PiB4sePTxkzZtCS1PaHIoUNjsNz8OrVK5rqPUN1PomdnLiNCRSpOrDE8ZFHPrA4cePoOiGM0hy5jLF17dZRl4ROZ9Cg4ep+x4wdQQUK5NPlyY4gYIzAF03Kidj7svTDO3jwsLrn8j+7Gd+72eOn7BFB8rBkaVKnIhcXZ7PFQDrmDF5jPP6hm7JnT58p79HFJYupbJunBQW9JxfWjgsUzE/Tp82i2rVrUPfuncmZ2+fre43mzl2otFs0DJJN48b1KRVjAwM++EBLXjB/MQ0b7kXff1+ISZR1XMYgLINH3Kljd5NFPD07G6RXqFCOBgzso9IuX75KCxf8yp11HIrF8oclQ0fixN8lnJ8sWVLy2bLO4BR07PDo06VPR3/99Q93mLUoT97cBmXMHUCH7t9/sJJRpk2fHOb3xVwdkv5tIRD2ryKKsPBmTwRfbhh+TPiBR4W940mcjRs2U+7cOSlT5oyhLrFh/WY1FMcwU9/gBa7fsIlOnDjJQ9dA6tCxLWXKFPp8/XMium88zNc//yoTHSxLlsz8N/IGHDCc1jx8SzXCU3/79q3yPlE2f/68rOM+oBMsYZQsWZweMEH5+d1XemnderWoZs1qYVYJLXbcuEmqzIYNPjRs6GjlNfbr34vKlClFjx89pr//2cVyxlMDqQfEvnPXVibWEE152e8rWTI5RtNnTDa4JtqsWRyetAPhw3uGl6/Z3bt+dObMOXVN/Q4T8oITe8XGhmc0eswEJbkY54Xn+Nat29SrZ3+C8zBt2iRy4PkFaN/hfQ7huYaU+foQsDkpg5BBhppp+1FBzLt271UeZ7XqVbTLGWwTOSWk9Dy8BmFptmL5arWLoSs8I2iO+HFby0Ae0Irjsadozvbu2a+y8usNcxFJgIkr6Kb67TVXBzTWMqVLUqvWzZWmO2vWPHNFzabv2r1N5bX1bEl/rF1Pixb9ZlD28OEjBmkYpq9Zu4xSpEiuK4f7nTZtttKgQYRubmWpS5f2asJsyhTunHkS8cCBQ6p8UZY50G7c3+pVf9CmzVtC3WuIBu2puwZ2cB46n2WswWfOnIlGjR6q8h/wxFqyZMkUEWLUBFLu3qMTJU2aVHmvIGNNDzeokA+OHD2mCBnatJubK61e8yctWvgbvWWt2ZJBgx8yeIT6/jkw6Tdr2kZ3SqHvC6roE1fX0ro02REENARsTsqah6w1AFukWZuU/f2fqx8+oi7KsjdmytzcXNWPTcvTpA4cFy9elBo0dNeyrLaF1xfW5B3I9++/d9IPP3xPiROHeG+YbEPEg4o0Ye9P33s0bhyIECTl9Ol8bSIKpBheQn9jJN8giiUx678e7nWML6eOIfks+W1ZqLyFTGIIqStRohj17ddTyQS7du2h8+cuEGQaPCd4zKVLl1DRHFoFufPkVN40tFyYv78/zZwxV2nbyTiUDmFsdVhGgJ08eZpScFpSlh70PWPkDWJiTJUypY6kkQaDduzh3oQJurNZT//27TuqrJubK4FYNTnp2rXrVLhwIZVn/Afe9Rom79mz56usIqxr52WpI0fO7Nz2lHTp4v9o7979NHzYaKJhXiTEbIygHNuclG0BOYitZ89+5MfDVeh48C4t2YULl8hr4DCqw+FKp06fUdqopXOiIn/xoiXKuzKO2ED42VQeAn+Ofc+eGT6RMYT+YdRw18/PZDUgOVOWInlyJRcMGTpADd0HDxqhPGNIIghXGzFykPJajc/NmzcPk1kelex79ZoiV3Sw3lMn0v179/n59qdChQrQLY7GQJgdIkHGjhthUA2I//J/V6h589CRMsATE7mQQypXrmAyXDJHjuyqvqmsoxfkUcvS34PD/vzu3jO4jv7BvPmLODpjjRoNDRzYW3cPWhln58zqel279qYtPtuElDVgZKtDwOakDA1Zkyy0ViDNWvby5Uvq22cg4YfcvkMbypcv+IcdVv27du6hSZO8CV6Np2cr6tK1lwqJCuucqMjb4rOd1q3bSIjMwCRaTDN4thiWmzJjz1orU6t2dapeo4ry0MePm8xe7SmaNdtbkSCiU8KaiIMmu3bNOiW/oD4QL+KD8YEW3a/fIPWcoXMPHtxfu6Ruu+ITOeI8U9awkQdt27aDsCClZcumoYrgu9OmTQse2axSxA9v//atO2oyMFThTwmVKpZXo5jmzRrTyVOn+bvoRX737lEpbmOLls2UVIK4a5esWejggcPmqpH0bxgBm5OyJlNoMoY1J/pAxOPGT1beEXRkD4+6YT7ap7zwxHvKTDWcxPB5EP+wtQUmWvhTWBXs33+IHvIklTmDxhoew+QPfviIYwUZN+UfdEyzoPdBSjrASMKUPWcZYt68RSY7M0gmGL3s2LFTyQW5cuVUw3jU85HD2UzZmtV/EnRwSC7dunVSXrWvb/AEKMq3b9+aGjVqqZswhLygb9DAoVUP9OprVrJBCB3iyCG7YCRhKlQNYY+QsfCMli5dTpC4SvF3xZxhQhkd++tXr2nkiLGq84B8sWrVWo7z9qUJHML5hr8XR48eV56+uXok/dtFwOakDKhBzBo5WwN6DFN9eAiLYSwMq8mq8aqzsAwk0apVB6VrdunagWrVqq7TI+1Zs0Volzn78Cnv7NlzdJO9ubBMK2uqDCamsLpt2bKVaiIMnpjXoH6KaEyVj840xCkjtA1eJWQhjCoQgw2SKsihcli1iIk6rGDDBFfPnl1VTLLWZq2z2/nPbipXzpVy5spB2kQi4p0hH9WtL5EAACGVSURBVMED1mKNy5QtpeSS2twJoG5MsMFQ9tzZC/TvvydoKksZAwYMoXbtunDYWS8VJYIyp06doRkz5qhY8/Ll3ZBk1uAJnzl9lgZyPUuWLAi1qhAngmBXrf5D3Ts6+/BE4vhzO9Ep58uXl6pUrUgZOXoHOjKkDWjKwHDUyCFm2yUZ3y4C0ULK1oQbk1pYlICVY9AIG3GMbIZwrJjCD70HT/KAaEwtLHnP5GLOAtlr0jy4ChV/NleMmjZtbXbxCE66fuMGjRk9QXmgmOzCqMF4osps5TbKAL6vX7+m9ByJUqx48Ao+LJHGohGsfqtUsQaTTiU18YXRxTEmy3282g6TevqGCAcsqJg2dRZVr1ZP4ReXF15AEtGsR88uOlJOzeFwzVgLxv9zgRjnw0eOqRFQzRoe6lxMtIHY58ydThPGT6FurNEi9LH/gN7q+aNT7tS5nZrwnDtnoZo09fW9ri7lEDfEq0bHgkUqO1nCMl7mjcJYPo7JSliNGlXVPagDC38wKevOk6ITJ06h+QsWE2LaYRhNQCufOcs7RkpUFm5Lsm2AQCz+0YUEeNrgglFxCczgQ0s2Ra6fcz14NLlz5yJ3D9ORBp9Tp7lzLl68xCvislpcSGHu/KhO/++/y9TOs4u6DLxjePPQiTWDZnqMiVMzdFbuLBu1MFoyreVjhIIVeXhmGEUgwsQpUSIVy5s6VSoV5aCVxRYkto9HE/A4c+TIRjk5iiErL4vWjyLBVxhS0o6//jaQoLR6oGXf5AlBXA9efbv2bbQsi9tz585zrLsP1a5TgyC7RNTu8aQkPHf8/xcpU6VQETTh8bQjeh0p//Ug8FWQ8tfzOGLmnWDCDZ5f7NjmB1YgvKjw8hFipv8fEsVMhKRVgoD1EBBSth6WUpMgIAgIApFGIGQNaqSrkgoEAUFAEBAEIouAkHJkEZTzBQFBQBCwIgJCylYEU6oSBAQBQSCyCAgpRxZBOV8QEAQEASsiIKRsRTClKkFAEBAEIouAkHJkEZTzBQFBQBCwIgJCylYEU6oSBAQBQSCyCAgpRxZBOV8QEAQEASsiIKRsRTClKkFAEBAEIouAkHJkEZTzBQFBQBCwIgJCylYEU6oSBAQBQSCyCAgpRxZBOV8QEAQEASsiIKRsRTClKkFAEBAEIouAkHJkEZTzBQFBQBCwIgJCylYEU6oSBAQBQSCyCAgpRxZBOV8QEAQEASsiIKRsRTClKkFAEBAEIouAkHJkEZTzdQjgrc979uzTHcuOICAIRByBr4KU3719RwEBAaHuHi/UxBuX8f64qLDLl6/S1q1/0Zs3byJU/Y0bN+nt27cROie6Cz99+pRwv+/fvzdoyp07d8nP7x61bt2BTp0+Q97eM+n8uQsGZaxxsHPnblq5Yg3hnX1h2ePHT9QzMVUGbUc7F316O7WpMkg7fvwkVa1Sm3DP1rALFy7Rr7/+Hgq7iNT9FbzfOCK3+02XNf8mzC8IlgYNm6u3FA/lV8Xr2+XLV9SbmIcN96KyZUvrZxG+5Bcv/o8cHOIyaX/k4w/04T1/OP3Dh/f0ir2+LJkzUapPr4Y3OPnTAd50PG3qLCpWrAjFjx/fVJFQaXibc4vmntSmbUtq3Lh+qPyYmrBp4xZavHgpbdu+0eBN0qNGjqN06dNRlcoVCWXq1qlJGzf6UJ68ua12KyDiBQt+o7x5culeooq0u35+lDRJEkrgmEB3Lbw5esL4X+jRo8fUtGlDlb7FZzvFikV0nTtD36vXqGjRIoq40VlnyZKZ31xu+JbqOPyC2Nev34R6pn53/YLvHZWx4XzHBAnUm7hVgpk/d7nj+o1JuXmzxmZKBCejE5g2bTZ/Jx3U268DAwPoJX8P8ab2O7fv0NixIyh/gXxh1iGZXz4CXwUpgxDj8RfZ2GLbB99e3LhxjbOU19KpY/dQ6foJ+PGOGz9SP8lgX3vNvXYdg0wzB9ev31A5PxYprLYY7qMziJ8gvtq+ffeW/P2f0/VrNxRxJ0qU0KCmWTPn0XvuNOzt7A3SceDv70/1G7iTs3PmUHmRTYgXL56qAp2YvuEN1iCxn9zK0rnzF6hatcr0xgqjgHnzFikCBS6BAYEUTIh21K1rb3rIhItj2C+/jKNC3xfUNalcOVd68fwFTZ06k9KlS0tubq40f8FiSpYsKaVJnZpKlChGN67fVJ9Tp05T/fr1dKR8+b8rFBgURLeYAGHXuRye8XtOy5rNhbp160MPHz5Sedqfrt06Uu3aNejevft05sw5VRajs3cBGL0FUlBgIF254quKT58+mzv9D/zd+0CBnP4zt/WHT98DFLD79Ewd+Pvq5JSIEjDhv3jxgv78YwMlSZqEEiZKpF1Wtl8xAl8FKeP5xGJyCGWfPJpYn7b6+bGZSObNn0mO7GVh357Pxw/Qzt6O/li7npYsWU716tXSP8Uq+5AuYM4uWdT28KGjtHfvfuWZJWACcnR0VJ5XsqRJKSgoUJXR//Ocf6SvX70y8FaRD1K4dOk/9tp/tBop37x5iwnlKsWJE5d8r11Xzdi376Daan+ePvNXZHL+/EU1Grl56zblz59Xy/7sLepwcnKigHfvlIeeN28eJv4yFJ87B8eEjpSEPWSNaI0vUqt2dfaKb9DbN+90WQ24sypf3k13jJ2ePftz20O+NwtZ1jhy5JiuTIf2XXX769atJId4DtSufRuqVauaSm/YsIXqkHAAaWf27PmUMmUKSpgwoWonOjKco0lrsePw94y/YzwsowAmZYdPHZ12kcSJnUh/tAf80RGkz5COO5/xqm6trGy/XgS+GlL+nEeUjb0fY4O8sHbtOuU96XsxxuX0j4PeB+kfhrl/jcktU+aMOlLt178X4RNe62+m7I4dO2nM6Ak6sg9vfWGVO3P6LE2ePM2gyJDBIwyOcQCvFVIOrHKVilYhZXQu+KCDhHkN6qtGQ4mTJGYpIpZKC+tP9+6dDbK3+Gyji6zt6hueRcGC+XVJI0cNUc9l+/a/CZ46iBj6eOfOPcmeO24YRmTaqAEjBKWLcHrp0iXURxXiP0HsXcNDRqfyjEcw//57gjp0aBuutqOOixcvUe9eA7iDdaYxY4ZZlEi068r2y0cgWkjZ23sG/fXXPwq9ChXKkfEPyFqwQieG6XtDlupetWqt8lrbtGlhqaguv0njVko2qFq1EiVPnkyXbmrn/r0HSgc1lReZNEy2wdKmTROZagzOrVSpAlWqXEGNJNas/pNmzZpHu3ZvMyjj6dmZcuXMQT16dlGSUFCQ4USgQeEIHmASccaMOTyMj09eXsOUnAFPdIr3BJYmvlPH27bvoGzZsuq8YEzmwRuF5ox9eKcwjIbw0Te3n8pSVhdnXVKcOHHU/v37D5QXjoMgrgMW91OeOrDw5xmPHrp376MkEgtFTWYfOHCIBnkNp3I//0SdOnkqOSghy1jh6YxMViiJXxQCht9SGzQdhLxh/WbdlbT9yBLzRxMRFtD2YKb0Zl0D9HZOs2e47PeVhI5CX6fUK2JyNweT0uJFS9SnRo2q1KxZI0qeIrnJsq85UiMJe3v6duLEKcqfL6+OQPTzwrsPbzXtd2nJWD+H59+6VXs1GaaGzhYqBJGVKV2SWrVuHq72IPJEIzvUr13j32PH6ZcpM3iyLFiLtnBZNcTv2NGTihcvqoq+Yolm+PAxaj9jxgzUqFF9RcSD2FMfN3ay0myhAYOw69WrraseZHb48FF1XKVqRerTp4faL1GyWKjJXmSY+t5ACkqVMqU6Dx4vzBhXlWjmDzp26NaQx9LwRPF4nngE0Qbw9xFyhjnD5POqVX/Q3DkLVBGMVOrUDp6sxH3+8ENhasKTl6ZGeObqlPQvDwGbk7LmIetDhbTIkDKiJEx5iPf5xwXDJIklwwTOwAFDVLGiHE0RERs+fBDdvXuXlvy2XEUeIPqgZatm5O5eO9QM/pvXrylD+nTKiwOBgZB7sbY5dtwINVyPyHX1y0J/dM6SWT9J7dvZxVLYYEYfI4awvC2QAkjZibVNY9PIyTj9CYegwYszNpBYmjSplYcZ1jVxHq4LjRUTWzBMgoFcQbrNmjdWnVxQYBCtWfOnkkrQAbn+VIbD25ozUX2v6whwbpMmDahu3Zq0dOkKcogbQoCIksHHlBl7/zd4MrbIpwk4LdwxFuMYXrt54xZBA9fIM13679SpN27epOzZs5msBjHecFggQ8Fwf3ny5KIcObJzhxCHEFWC8Mvu3XrT3HkzKD1/h8S+TgRsTspRAeNo1txMGULeYN+lTWsqW5f25MlT6t9/sJItQOAjR4zj2OO3BDkiXMakgh8P2gENcuIkb+U1379/X+epafWAfDBR1aKFJw0e3F+FSpUsWTxShAxSQyxsw0Ye2mV0W0wcTp02SXf8uTtoM7RwEKY2zEdHhtCxrFlDa/MI3UJkxOcYOg88h06d2ykvGCTct98gQgeQLXtWFReuPyGmfw0tFM9nC8LgQoi0W7dO5OpqGBZ5mCf1pk8zJOrHHNmBCdMGDd1Vtbg/eKkRMYTYLVjwK3u9a1WHsZq9Xxg8cHOk3L1HX9UJoTPo3btbqFBMfL8qs5RUs4YH7efJVq19EWmXlP0yELA5KUMa0CQLDSKkWdtu3bpNPj5blcej6YqmroFy8FRBMCNGDKa8+XJTv36DadJEb7p7x4/aerY0dZrZNJDCgvmzlFdXslTxUOUSxE9Ap9nruX3rDmXIkF6FUbVs2TRUuYgk3PukJ2OYH1UGWQYffVu3bqM6tEa0hX69GEGgwwI5Q4Lq1XsgJeYQMe8pEwjRH+s3bNIvHq59FbFhNGJC2JmxHfokfRQuXEhlIXY4TQR1+nrudcjX9zrNmR0sQ4Boj7Gck5QjasxZgwb11L1WqlReTTTDY0ZEUJUqlah6jSrqNESjQKK6w52U2NeLgM1JWZMpNBkDhKylWQtmTNR05XhWeDntOYTJlCHw/2/+4iOeFeVAyKXLlFRF8eOHdrl8+SoVV9quXWtTVZhNQydgymvFCQnZ44TmCb0T8dUY5sKjgnflktVZhYFBB0ZkAEKpECsNW/LbMl4xd5aH5IZxwsh79uwZNqoj2LN7n5IDsPgFi2YsTTyqEz/jD7zJFctXU5kypQihXNY2bXL25MlTSrIYNWqo0unhqWu6dVjXhH6LUYlm3lOm03yOqNA36NZ49pphxLGVPWxEUiRMGCzJPLj/kNKmidjkKWK5Bw/pz959TyUHeQ0cqjz/XLlyaJcKtXVzc1VpZ8+eJ8SiwxnAtX/5ZRo9f/6cGrMsg4UvGDXk5n2xrxcBm5MyoAQJW5uIUS/IeNfOPawnLlc/toFefU2GiCHcaNKkqepLDs/jlynjlfyAOmBYITZ2zHCOY+2nlvbaxbKLsMccXFPov5r2XaTIDyqzXftW7BWOZJnDK1RhLHTQSDkua8LwnEAcxpY4cWJdOS0fWrK2b1w+MsfwXHfs+IcmM37Ark/f7pGpzuK5ms789987CSMKd4866oPoigcPH3Io3gU1OahJDEjH8z948LCqu0qVCtSjR2e1alNPzdBdFxq6ZpAFIANB39fswoWLlC9fXu1QddTa/++B0VVY9ujRI0Ww0IO9+LuoTYiGdQ4kDljJEsWVXITOCVIIOr6FPJkMCalM2VJhVSF5XzgC0ULKUYGZj882JTmgbnifWGmVLVtorRP5+KFjyI8oCczqm5oRRxp+nJ069eA402BPFOfqm/aD1rb6eeb2v+NVZjBMTsLQ1uXLF6sOAgsvoIMm5WE2IjRSp0qlyuAPhrf4RKfBS2vTpqPq8CBZoNPTPMqoahcmu7DoA145PtCaEfur7+EuWjxHLZcGISMU7cyZczRkyAC6fOUqdezQXen1OXJmV5Eg6GAxaYlnhnC357x6ct/eA9SUvwvjxk0i6PuZMmXk70VLDl1MrPRlbdSD/2MFmnDBQsGxzf/9d5mQZmyoe+iQUSriAnm9+3Snn40Wrhifox0XL/6jivzBnAMWjWD1Hwzx4sDBk0dtmCcQ+3oRiMXeVGjX6wu8X212vmg4V7Thx2SKjI1vHZoitDxTQ2b8+OEFYbY/vD8UTCRBE4RcER7Pybg90X28YcNmpYUXKlTAYCItqtuFDgGrCp/zEmos2kCEiBMvO8Y2NYedac8HQ39ELmj/nwU838OHjtANjoh4zZEvWhQJVoDGZu0ak5bQlvv07aFGT/DG0Slu27ZDLdfOnCWTGoXAY8Uy6VJM2lq4JCbwsudgktZbgKLhAL0dnnTNmtVU+7T08G4v8ST1Vd9rZMedNP7/lczcUZgLswxvnVLuy0DgqyHlLwNuaaUgIAgIAmEjYBd2tuQKAoKAICAI2BIBIWVboi3XEgQEAUHAAgJCyhYAkmxBQBAQBGyJgJCyLdGWawkCgoAgYAEBIWULAEm2ICAICAK2REBI2ZZoy7UEAUFAELCAgJCyBYAkWxAQBAQBWyIgpGxLtOVagoAgIAhYQEBI2QJAki0ICAKCgC0REFK2JdpyLUFAEBAELCAgpGwBIMkWBAQBQcCWCAgp2xJtuZYgIAgIAhYQEFK2AJBkCwKCgCBgSwSElG2JtlxLEBAEBAELCAgpWwBIsgUBQUAQsCUCQsq2RFuuJQgIAoKABQSElC0AJNmCgCAgCNgSASFlW6It1xIEBAFBwAICX8WLU/G+vVj89ua4ceMa3C5ePxgQEMjvYYtN2ivrDQpE8uDy5at0hV/O6epaml/KGT+StYV9+i1+qeru3fv4XXR2FIv/wT7yP7ybsHqNKvTbr8soZaqU1Lhx/bAr+pS7dOkK9a49tD2iBrwbNGxO/fv30r1F21wdaN+bt28pfrx49KnZoYq+D3pPAYGBlChRwlB5phJ27txNb968papVK5nKDlcavht4Sa2YIBDTEPgqSBkEgZdXDh060ADfy5evUDvPLjRsuBeVLWtIPvhRXuSXUzo4xFWvn//48QN94DcHf+D0Dx/e06tXr9Ubp/HSSnN27tx5mjZ1Fr8tuUiUkzJewrlo4W/Us2dXwnXPnrug3m4NgvTzu094oWlOfmPzg/sPVHMDAgKoXDlX+qFI4VDNf/DgoaqrT58eurxAJsVbN2+Ts0sWXRp2fK9eo3PnL6gXjGoZHz58oGdPn9Hx4yfpyZOnWjLhbdKop2atarq0Xbv30pjRE3TH5nYyZc5Iv/46z1y2QfrJE6fp3r37Fkn55IlT5LNlO9nzS09B+gHvAujly5fk//w5vebnO2/eDPV2bIPK5UAQiGYEvgpShpcaz8EhFJSx7YNvz9iDRkG8Br5Tx+6hztFPKFq0CI0bP1I/yWBfe4Oydh2DTCsfaJ7+H3+uVzXHjRuHFi9eSgkTOtK69ZuoCJPvj0V/0F0VpJw4cWLdcc+e/SkB4+TAON27d0+l79jxD23a5EOPHz9Rb15G4va/NhqMOPDm7f37DoYiZZQ9y2/zvnP7LnaVgazf8XX1STl//rwKw3jsKZvzTEHk2v1pdV28eIlu3brDI52A4A8TKvbxNuoLnIfOAB0irolnCW/c07MVpeLRgmZ4PngbdPwE8SlZ/GSq47zIb7fGW8jxRmp7fiu2mCAQ0xD4ar6VeGV8KPs0PDVFBrH5Bzlv/kxydExA2Ic3pX7ELA/8sXY9LVmynOrVqxWqyuhK0O4hS+ZMuibAW7zHnjFGCaVLl1AkjHIYBXxkssqWPauubNmypejN6zd0585dusDEVLFSecqZIzvFix+PnJwSUZIkSShF8mQG5IuTUW9m9mJfv37NBBeM8Xuu+/Dho1S5SkXKlTOHuoaSUliGcHE29LRT80gDn4gapJp93Bkk5rYlSpSI4sVzoLjcoWBkAxKGxeGOCWQOYraPba9kKv3r5C+Qj/DRDPUtXrSEXH8qQwMG9DbofLQyshUEohuBr4aUPwfIbNlcQp324sVLWrt2HeXOndPk0D/UCZwQ9D7IVLJV00BECdjjK1rsR+XpnT17jho19FAEVda1DHXs2I0SOjrqronRgb50UbNmsKQwyGu4kih69erKRPuGidxJd465ndWr/6TNm7aEyp7yy/RQaUt/X0jp06dT6TNnzGVp5Z7q7EIVNEqAfASduEnThlSAibRDh7bqoxV79eoV6/e+lChhQnJM4EjXrl03yNfKmdtu3ryVJk+aSrVr16DOXdqH8szNnSfpgoCtEYgWUvb2nkF//fWPutcKFcpR9+6do+S+8UOHGQ+Nw7rYqlVrFVm1adMirGIGeU0at6L6DdyVxpmcvU1zBh0TQ2nN6zVXTkvHUB1eb5w4cZS3+OOPP9AJ1nFh8FCPs2YayBOZxYsXpaVLF2qnmd1iguzAgUPKg/bwaKp0YXjZEyeNUW06deoMgbxatGhCmTJl1NXTs2cXAolrBs+0nFsV+uWXcUoG0NKNJ88c2LuFN2ssLe3du58Ss2degKUNzT7yDuQE3KuxnWf9vG9fL/VctLwffvhe2w1zC5178eIljM8K7rg8eYTwM/n7+1PSpEnDPE8yBYHoQsDmpAxC3rB+s+5+tf3IEjOG68b2jnVImDEpGJfTjk+fPkvLfl9J6CigOYbXcjBBYliMT40aValZs0aUPEXyUKdXrVonVJqlBBCJu0cdglc/dJgXVa1SO9QpzZq1MUirVKkCdenawSDN1/e68hSRCAmkQ3s+h6WOnj360YjhY9TEISbvUqZMQTd5wg+kDK23caOWBHLV9HP9SkeMHBfK00a0Sy32yj3q1yWtY4OXjwnItN+lVaf/xxOw6Ay6dOmgPP37nPfdpzz9+rX9qdNmUcaMGWjUqKH09t076tG9L73lCU5LhknQceMn0+5de9V9/frrUpo1K3gyEW0pXLgQebZtSYlYIhETBGIKAjYnZc1D1gcAaZEhZZBM2rRp9KtU+/dZc4UlSZpEbcP6g+iGgQOGqCJFOZoiIjZ8+CC6e/cuLfltOW3c6KM+LVs1I3f32gZRGfXq1abYHJ6HTsKSt4woEExsGUdDQHLAEBwkZcq2bN2u01y1fGjPvXr1V56mFomC+wVJwRBFUaVKJSpfwY2yZ8+mnaZGGA0aurNskkBHyjv4WR07dlxNLGILCQX4oq17WAcuxRq0s3NmXR3YOXr0X8Z2qNLwjSUjeLAbNmym1auXmvSScf7l/64o713r6ECiiECBx25uFATtfDh3NjgX7YPsg9EFdPYXL17QCR5lrPtzA+vrF2nunOnqueBaYoJAdCNgc1KOihsePWaYyWoR8gb7Lm2wh2ayECdiJr9//8GKtPADHjliXMTiYJlAc/CkGdqBofbESd7Ka75//z7ph5116tzOXBMilP7o0SOzJAJyNDZ0AsmSJaXRo4cprRwkOXzYaCUhwDMuXaYkmWobvOM6dWqq6uDtLuSQPEXEjepTm7YtqHu3PvTo8WOqVbs6DRs6WuU1b96Y8uTNbdCEP//YoDqXrFmdDdJxUL68G8dY/67kLHNxxxi1rGfiTp0mNfn6XlNhejj32TN/dV/Y17fHjx4TJCUYRhmtWzVX3r5+me+5zoKsXffp40Xw3DGHICYIxAQEbE7KkAY0yUIDAGnWNiy28PHZqjw6eKfmDOV6cbgYPMcRIwZT3ny5qV+/wTRpojfdveNHbT1bmjvVZDoIacH8WbRmzZ9UslRxk2Uim3jp0n+EUDVTduP6TSab/AZZ6GgQkwuSvX79BvXrO4iqVK1I3bp1olEsQdjb2RuU1z/A4g/EGi9btpJQNwwkDk+/M8sPnm070RmWfdCmSZPHhiJkeKr//nuCBnr1NTk6SJfuOyUXzZo5l0qUKGpS6+3Tp7uSWMaPm6wmO/PmzaM8ZUSNmDJ41M24c/iRwwQzsgyDEcGevQcoY4b0vOjFXUknOC9Llsz8l9RkpJCygkL+xAAEzLNVFDVOkyk0GQOErKVZ65LQKLt27a083/bQTk0Yhr5/79hJU6fOVOVAyCAbmPeUCTRo8AhavnwVLyb5QO3atTZRg/kkdAING3mYLxDJHLTT2Sj0TKty29YdanJQO9a2mia8ffvfith69eqmhv7vecGMOUMkCvRqaM3wVr28+ikS1spny+aiPOk/WQaAfgyNVt+e8yINL69hlD5DOgpr5WDr1s1p//6DNH7cL2q0obVVqwvS1Ow503j08ka1pWOnHlTu559UKKNWxnjbsmVTlYQ5gm18z82bNVZhfNCjp3hPUMS8nyc9Ydn1QgdVgvwRBKIRAZuTMu4VJGxtIka9IONdO/fwTPtyRbTwzow1WZTDwoRJHB6F1WqY8PllynglPyAPloBjl8eOGc6r5/rRyhVrVHxuRD3m4Jqs+xcdSTHWRu/xCj5IApAesIrvCt8HCCsfe+nwHhGSBp0WC0UqcTyyvjmyPgxd+sCBw1SKPXlN+oE8AU/4xo2b9JNbWXUKlj1j0jIza/aFChXgybW3Kh3tAHbHT5xk3LJRtWqVacGCX+kVxzI34s4oYcKEanUfZCCMQBYtnmNWL0aFWDU5YGAfGjxoBK80XGJ2dIKQuLFjJ/HKvHfUtElD1RZLf+76+Sldv1Ll8lSjZlVq3rwtzZ+3SC0Px+Ib4KOF8FmqS/IFAVsgEC2kHBU35uOzTUkOqBvD267dOqqIBVPXwsTVPY6fBeE0Yn0U0QXGhrSx40ZQJ/bKnvk/M85WxyAymLZVB1H0B9cAwdWtW5P+YEKGJDFt+mRKwzrrr6zJHjx4mO+5k/J+EdM7jsmrAEc4GFsV/v8iIEcM4ZEADPWA5EDUMMRCa6SMY0wq+vs/p/XrNqmFJ0jTVkJiaXQrntDsyeFy6bgjmDtnAa1Yvlp5zY2bNCA3JvfKVSoomeDIkWN09ux5RdjAPj53LvpWqlQJNSLRRiv6eX4s1WDkgo4A7YVMgmuHx2rVqkEnT56hypVqqUm+J7x68TavFISM05RjopuxB21p0jU815EygoC1EIjFsaUIEf3iDdondFzMshvP/pu6OYRLmSJj47JPnz5l79NJF32gn3/mzDlCbC+I0lFv4YZ+GWvtew0cpohXC+VCZIcWgQHCG8d6K2QGzTBCgCQDzdbY8Miv8H+mBC8yOHY6gfKwsXIOi0n0lyrjXMgYDeo35cmwXGpCLDt7x9BgjWN9sVx76ZLlVJC9amO5ArozJgqxHBreOhZwuLiEnvgzbiuO0d5JPHmK8gj3Q8cREUOHBl0bIyksNceEIb4jUf3MItJGKSsIaAh8NaSs3dDXuoW3iv8oyZgI9e8X5IWPuTAx/bIR3cciDPxPfGKCgCAQtQgIKUctvlK7ICAICAIRQsAuQqWlsCAgCAgCgkCUIiCkHKXwSuWCgCAgCEQMASHliOElpQUBQUAQiFIEhJSjFF6pXBAQBASBiCEgpBwxvKS0ICAICAJRioCQcpTCK5ULAoKAIBAxBISUI4aXlBYEBAFBIEoREFKOUnilckFAEBAEIoaAkHLE8JLSgoAgIAhEKQJCylEKr1QuCAgCgkDEEBBSjhheUloQEAQEgShFQEg5SuGVygUBQUAQiBgC/wf3SKO63/hI/wAAAABJRU5ErkJggg==;" parent="1" vertex="1">
          <mxGeometry x="405" y="530" width="357" height="410" as="geometry" />
        </mxCell>
        <mxCell id="VaGtuXmXfvkTdjbK2FE8-60" value="Users" style="shape=table;startSize=30;container=1;collapsible=1;childLayout=tableLayout;fixedRows=1;rowLines=0;fontStyle=1;align=center;resizeLast=1;" parent="1" vertex="1">
          <mxGeometry x="-815" y="30" width="160" height="430" as="geometry" />
        </mxCell>
        <mxCell id="VaGtuXmXfvkTdjbK2FE8-61" value="" style="shape=partialRectangle;collapsible=0;dropTarget=0;pointerEvents=0;fillColor=none;top=0;left=0;bottom=1;right=0;points=[[0,0.5],[1,0.5]];portConstraint=eastwest;" parent="VaGtuXmXfvkTdjbK2FE8-60" vertex="1">
          <mxGeometry y="30" width="160" height="30" as="geometry" />
        </mxCell>
        <mxCell id="VaGtuXmXfvkTdjbK2FE8-62" value="PK" style="shape=partialRectangle;connectable=0;fillColor=none;top=0;left=0;bottom=0;right=0;fontStyle=1;overflow=hidden;" parent="VaGtuXmXfvkTdjbK2FE8-61" vertex="1">
          <mxGeometry width="30" height="30" as="geometry">
            <mxRectangle width="30" height="30" as="alternateBounds" />
          </mxGeometry>
        </mxCell>
        <mxCell id="VaGtuXmXfvkTdjbK2FE8-63" value="user_id" style="shape=partialRectangle;connectable=0;fillColor=none;top=0;left=0;bottom=0;right=0;align=left;spacingLeft=6;fontStyle=5;overflow=hidden;" parent="VaGtuXmXfvkTdjbK2FE8-61" vertex="1">
          <mxGeometry x="30" width="130" height="30" as="geometry">
            <mxRectangle width="130" height="30" as="alternateBounds" />
          </mxGeometry>
        </mxCell>
        <mxCell id="VaGtuXmXfvkTdjbK2FE8-64" value="" style="shape=partialRectangle;collapsible=0;dropTarget=0;pointerEvents=0;fillColor=none;top=0;left=0;bottom=0;right=0;points=[[0,0.5],[1,0.5]];portConstraint=eastwest;" parent="VaGtuXmXfvkTdjbK2FE8-60" vertex="1">
          <mxGeometry y="60" width="160" height="30" as="geometry" />
        </mxCell>
        <mxCell id="VaGtuXmXfvkTdjbK2FE8-65" value="" style="shape=partialRectangle;connectable=0;fillColor=none;top=0;left=0;bottom=0;right=0;editable=1;overflow=hidden;" parent="VaGtuXmXfvkTdjbK2FE8-64" vertex="1">
          <mxGeometry width="30" height="30" as="geometry">
            <mxRectangle width="30" height="30" as="alternateBounds" />
          </mxGeometry>
        </mxCell>
        <mxCell id="VaGtuXmXfvkTdjbK2FE8-66" value="user_name" style="shape=partialRectangle;connectable=0;fillColor=none;top=0;left=0;bottom=0;right=0;align=left;spacingLeft=6;overflow=hidden;" parent="VaGtuXmXfvkTdjbK2FE8-64" vertex="1">
          <mxGeometry x="30" width="130" height="30" as="geometry">
            <mxRectangle width="130" height="30" as="alternateBounds" />
          </mxGeometry>
        </mxCell>
        <mxCell id="VaGtuXmXfvkTdjbK2FE8-67" value="" style="shape=partialRectangle;collapsible=0;dropTarget=0;pointerEvents=0;fillColor=none;top=0;left=0;bottom=0;right=0;points=[[0,0.5],[1,0.5]];portConstraint=eastwest;" parent="VaGtuXmXfvkTdjbK2FE8-60" vertex="1">
          <mxGeometry y="90" width="160" height="30" as="geometry" />
        </mxCell>
        <mxCell id="VaGtuXmXfvkTdjbK2FE8-68" value="" style="shape=partialRectangle;connectable=0;fillColor=none;top=0;left=0;bottom=0;right=0;editable=1;overflow=hidden;" parent="VaGtuXmXfvkTdjbK2FE8-67" vertex="1">
          <mxGeometry width="30" height="30" as="geometry">
            <mxRectangle width="30" height="30" as="alternateBounds" />
          </mxGeometry>
        </mxCell>
        <mxCell id="VaGtuXmXfvkTdjbK2FE8-69" value="email_address" style="shape=partialRectangle;connectable=0;fillColor=none;top=0;left=0;bottom=0;right=0;align=left;spacingLeft=6;overflow=hidden;" parent="VaGtuXmXfvkTdjbK2FE8-67" vertex="1">
          <mxGeometry x="30" width="130" height="30" as="geometry">
            <mxRectangle width="130" height="30" as="alternateBounds" />
          </mxGeometry>
        </mxCell>
        <mxCell id="VaGtuXmXfvkTdjbK2FE8-70" value="" style="shape=partialRectangle;collapsible=0;dropTarget=0;pointerEvents=0;fillColor=none;top=0;left=0;bottom=0;right=0;points=[[0,0.5],[1,0.5]];portConstraint=eastwest;" parent="VaGtuXmXfvkTdjbK2FE8-60" vertex="1">
          <mxGeometry y="120" width="160" height="30" as="geometry" />
        </mxCell>
        <mxCell id="VaGtuXmXfvkTdjbK2FE8-71" value="" style="shape=partialRectangle;connectable=0;fillColor=none;top=0;left=0;bottom=0;right=0;editable=1;overflow=hidden;" parent="VaGtuXmXfvkTdjbK2FE8-70" vertex="1">
          <mxGeometry width="30" height="30" as="geometry">
            <mxRectangle width="30" height="30" as="alternateBounds" />
          </mxGeometry>
        </mxCell>
        <mxCell id="VaGtuXmXfvkTdjbK2FE8-72" value="user_icon" style="shape=partialRectangle;connectable=0;fillColor=none;top=0;left=0;bottom=0;right=0;align=left;spacingLeft=6;overflow=hidden;" parent="VaGtuXmXfvkTdjbK2FE8-70" vertex="1">
          <mxGeometry x="30" width="130" height="30" as="geometry">
            <mxRectangle width="130" height="30" as="alternateBounds" />
          </mxGeometry>
        </mxCell>
        <mxCell id="VaGtuXmXfvkTdjbK2FE8-73" style="shape=partialRectangle;collapsible=0;dropTarget=0;pointerEvents=0;fillColor=none;top=0;left=0;bottom=0;right=0;points=[[0,0.5],[1,0.5]];portConstraint=eastwest;" parent="VaGtuXmXfvkTdjbK2FE8-60" vertex="1">
          <mxGeometry y="150" width="160" height="30" as="geometry" />
        </mxCell>
        <mxCell id="VaGtuXmXfvkTdjbK2FE8-74" style="shape=partialRectangle;connectable=0;fillColor=none;top=0;left=0;bottom=0;right=0;editable=1;overflow=hidden;" parent="VaGtuXmXfvkTdjbK2FE8-73" vertex="1">
          <mxGeometry width="30" height="30" as="geometry">
            <mxRectangle width="30" height="30" as="alternateBounds" />
          </mxGeometry>
        </mxCell>
        <mxCell id="VaGtuXmXfvkTdjbK2FE8-75" value="cover_picture" style="shape=partialRectangle;connectable=0;fillColor=none;top=0;left=0;bottom=0;right=0;align=left;spacingLeft=6;overflow=hidden;" parent="VaGtuXmXfvkTdjbK2FE8-73" vertex="1">
          <mxGeometry x="30" width="130" height="30" as="geometry">
            <mxRectangle width="130" height="30" as="alternateBounds" />
          </mxGeometry>
        </mxCell>
        <mxCell id="VaGtuXmXfvkTdjbK2FE8-76" style="shape=partialRectangle;collapsible=0;dropTarget=0;pointerEvents=0;fillColor=none;top=0;left=0;bottom=0;right=0;points=[[0,0.5],[1,0.5]];portConstraint=eastwest;" parent="VaGtuXmXfvkTdjbK2FE8-60" vertex="1">
          <mxGeometry y="180" width="160" height="30" as="geometry" />
        </mxCell>
        <mxCell id="VaGtuXmXfvkTdjbK2FE8-77" style="shape=partialRectangle;connectable=0;fillColor=none;top=0;left=0;bottom=0;right=0;editable=1;overflow=hidden;" parent="VaGtuXmXfvkTdjbK2FE8-76" vertex="1">
          <mxGeometry width="30" height="30" as="geometry">
            <mxRectangle width="30" height="30" as="alternateBounds" />
          </mxGeometry>
        </mxCell>
        <mxCell id="VaGtuXmXfvkTdjbK2FE8-78" value="self_introduction" style="shape=partialRectangle;connectable=0;fillColor=none;top=0;left=0;bottom=0;right=0;align=left;spacingLeft=6;overflow=hidden;" parent="VaGtuXmXfvkTdjbK2FE8-76" vertex="1">
          <mxGeometry x="30" width="130" height="30" as="geometry">
            <mxRectangle width="130" height="30" as="alternateBounds" />
          </mxGeometry>
        </mxCell>
        <mxCell id="VaGtuXmXfvkTdjbK2FE8-88" style="shape=partialRectangle;collapsible=0;dropTarget=0;pointerEvents=0;fillColor=none;top=0;left=0;bottom=0;right=0;points=[[0,0.5],[1,0.5]];portConstraint=eastwest;" parent="VaGtuXmXfvkTdjbK2FE8-60" vertex="1">
          <mxGeometry y="210" width="160" height="30" as="geometry" />
        </mxCell>
        <mxCell id="VaGtuXmXfvkTdjbK2FE8-89" style="shape=partialRectangle;connectable=0;fillColor=none;top=0;left=0;bottom=0;right=0;editable=1;overflow=hidden;" parent="VaGtuXmXfvkTdjbK2FE8-88" vertex="1">
          <mxGeometry width="30" height="30" as="geometry">
            <mxRectangle width="30" height="30" as="alternateBounds" />
          </mxGeometry>
        </mxCell>
        <mxCell id="VaGtuXmXfvkTdjbK2FE8-90" value="location" style="shape=partialRectangle;connectable=0;fillColor=none;top=0;left=0;bottom=0;right=0;align=left;spacingLeft=6;overflow=hidden;" parent="VaGtuXmXfvkTdjbK2FE8-88" vertex="1">
          <mxGeometry x="30" width="130" height="30" as="geometry">
            <mxRectangle width="130" height="30" as="alternateBounds" />
          </mxGeometry>
        </mxCell>
        <mxCell id="VaGtuXmXfvkTdjbK2FE8-85" style="shape=partialRectangle;collapsible=0;dropTarget=0;pointerEvents=0;fillColor=none;top=0;left=0;bottom=0;right=0;points=[[0,0.5],[1,0.5]];portConstraint=eastwest;" parent="VaGtuXmXfvkTdjbK2FE8-60" vertex="1">
          <mxGeometry y="240" width="160" height="30" as="geometry" />
        </mxCell>
        <mxCell id="VaGtuXmXfvkTdjbK2FE8-86" style="shape=partialRectangle;connectable=0;fillColor=none;top=0;left=0;bottom=0;right=0;editable=1;overflow=hidden;" parent="VaGtuXmXfvkTdjbK2FE8-85" vertex="1">
          <mxGeometry width="30" height="30" as="geometry">
            <mxRectangle width="30" height="30" as="alternateBounds" />
          </mxGeometry>
        </mxCell>
        <mxCell id="VaGtuXmXfvkTdjbK2FE8-87" value="website" style="shape=partialRectangle;connectable=0;fillColor=none;top=0;left=0;bottom=0;right=0;align=left;spacingLeft=6;overflow=hidden;" parent="VaGtuXmXfvkTdjbK2FE8-85" vertex="1">
          <mxGeometry x="30" width="130" height="30" as="geometry">
            <mxRectangle width="130" height="30" as="alternateBounds" />
          </mxGeometry>
        </mxCell>
        <mxCell id="VaGtuXmXfvkTdjbK2FE8-82" style="shape=partialRectangle;collapsible=0;dropTarget=0;pointerEvents=0;fillColor=none;top=0;left=0;bottom=0;right=0;points=[[0,0.5],[1,0.5]];portConstraint=eastwest;" parent="VaGtuXmXfvkTdjbK2FE8-60" vertex="1">
          <mxGeometry y="270" width="160" height="30" as="geometry" />
        </mxCell>
        <mxCell id="VaGtuXmXfvkTdjbK2FE8-83" style="shape=partialRectangle;connectable=0;fillColor=none;top=0;left=0;bottom=0;right=0;editable=1;overflow=hidden;" parent="VaGtuXmXfvkTdjbK2FE8-82" vertex="1">
          <mxGeometry width="30" height="30" as="geometry">
            <mxRectangle width="30" height="30" as="alternateBounds" />
          </mxGeometry>
        </mxCell>
        <mxCell id="VaGtuXmXfvkTdjbK2FE8-84" value="birthday" style="shape=partialRectangle;connectable=0;fillColor=none;top=0;left=0;bottom=0;right=0;align=left;spacingLeft=6;overflow=hidden;" parent="VaGtuXmXfvkTdjbK2FE8-82" vertex="1">
          <mxGeometry x="30" width="130" height="30" as="geometry">
            <mxRectangle width="130" height="30" as="alternateBounds" />
          </mxGeometry>
        </mxCell>
        <mxCell id="VaGtuXmXfvkTdjbK2FE8-79" style="shape=partialRectangle;collapsible=0;dropTarget=0;pointerEvents=0;fillColor=none;top=0;left=0;bottom=0;right=0;points=[[0,0.5],[1,0.5]];portConstraint=eastwest;" parent="VaGtuXmXfvkTdjbK2FE8-60" vertex="1">
          <mxGeometry y="300" width="160" height="30" as="geometry" />
        </mxCell>
        <mxCell id="VaGtuXmXfvkTdjbK2FE8-80" style="shape=partialRectangle;connectable=0;fillColor=none;top=0;left=0;bottom=0;right=0;editable=1;overflow=hidden;" parent="VaGtuXmXfvkTdjbK2FE8-79" vertex="1">
          <mxGeometry width="30" height="30" as="geometry">
            <mxRectangle width="30" height="30" as="alternateBounds" />
          </mxGeometry>
        </mxCell>
        <mxCell id="VaGtuXmXfvkTdjbK2FE8-81" value="pro_status" style="shape=partialRectangle;connectable=0;fillColor=none;top=0;left=0;bottom=0;right=0;align=left;spacingLeft=6;overflow=hidden;" parent="VaGtuXmXfvkTdjbK2FE8-79" vertex="1">
          <mxGeometry x="30" width="130" height="30" as="geometry">
            <mxRectangle width="130" height="30" as="alternateBounds" />
          </mxGeometry>
        </mxCell>
        <mxCell id="VaGtuXmXfvkTdjbK2FE8-91" style="shape=partialRectangle;collapsible=0;dropTarget=0;pointerEvents=0;fillColor=none;top=0;left=0;bottom=0;right=0;points=[[0,0.5],[1,0.5]];portConstraint=eastwest;" parent="VaGtuXmXfvkTdjbK2FE8-60" vertex="1">
          <mxGeometry y="330" width="160" height="30" as="geometry" />
        </mxCell>
        <mxCell id="VaGtuXmXfvkTdjbK2FE8-92" style="shape=partialRectangle;connectable=0;fillColor=none;top=0;left=0;bottom=0;right=0;editable=1;overflow=hidden;" parent="VaGtuXmXfvkTdjbK2FE8-91" vertex="1">
          <mxGeometry width="30" height="30" as="geometry">
            <mxRectangle width="30" height="30" as="alternateBounds" />
          </mxGeometry>
        </mxCell>
        <mxCell id="VaGtuXmXfvkTdjbK2FE8-93" value="number_of_following" style="shape=partialRectangle;connectable=0;fillColor=none;top=0;left=0;bottom=0;right=0;align=left;spacingLeft=6;overflow=hidden;" parent="VaGtuXmXfvkTdjbK2FE8-91" vertex="1">
          <mxGeometry x="30" width="130" height="30" as="geometry">
            <mxRectangle width="130" height="30" as="alternateBounds" />
          </mxGeometry>
        </mxCell>
        <mxCell id="VaGtuXmXfvkTdjbK2FE8-94" style="shape=partialRectangle;collapsible=0;dropTarget=0;pointerEvents=0;fillColor=none;top=0;left=0;bottom=0;right=0;points=[[0,0.5],[1,0.5]];portConstraint=eastwest;" parent="VaGtuXmXfvkTdjbK2FE8-60" vertex="1">
          <mxGeometry y="360" width="160" height="30" as="geometry" />
        </mxCell>
        <mxCell id="VaGtuXmXfvkTdjbK2FE8-95" style="shape=partialRectangle;connectable=0;fillColor=none;top=0;left=0;bottom=0;right=0;editable=1;overflow=hidden;" parent="VaGtuXmXfvkTdjbK2FE8-94" vertex="1">
          <mxGeometry width="30" height="30" as="geometry">
            <mxRectangle width="30" height="30" as="alternateBounds" />
          </mxGeometry>
        </mxCell>
        <mxCell id="VaGtuXmXfvkTdjbK2FE8-96" value="number_of_followers" style="shape=partialRectangle;connectable=0;fillColor=none;top=0;left=0;bottom=0;right=0;align=left;spacingLeft=6;overflow=hidden;" parent="VaGtuXmXfvkTdjbK2FE8-94" vertex="1">
          <mxGeometry x="30" width="130" height="30" as="geometry">
            <mxRectangle width="130" height="30" as="alternateBounds" />
          </mxGeometry>
        </mxCell>
        <mxCell id="VaGtuXmXfvkTdjbK2FE8-477" style="shape=partialRectangle;collapsible=0;dropTarget=0;pointerEvents=0;fillColor=none;top=0;left=0;bottom=0;right=0;points=[[0,0.5],[1,0.5]];portConstraint=eastwest;" parent="VaGtuXmXfvkTdjbK2FE8-60" vertex="1">
          <mxGeometry y="390" width="160" height="30" as="geometry" />
        </mxCell>
        <mxCell id="VaGtuXmXfvkTdjbK2FE8-478" style="shape=partialRectangle;connectable=0;fillColor=none;top=0;left=0;bottom=0;right=0;editable=1;overflow=hidden;" parent="VaGtuXmXfvkTdjbK2FE8-477" vertex="1">
          <mxGeometry width="30" height="30" as="geometry">
            <mxRectangle width="30" height="30" as="alternateBounds" />
          </mxGeometry>
        </mxCell>
        <mxCell id="VaGtuXmXfvkTdjbK2FE8-479" value="joined_date" style="shape=partialRectangle;connectable=0;fillColor=none;top=0;left=0;bottom=0;right=0;align=left;spacingLeft=6;overflow=hidden;" parent="VaGtuXmXfvkTdjbK2FE8-477" vertex="1">
          <mxGeometry x="30" width="130" height="30" as="geometry">
            <mxRectangle width="130" height="30" as="alternateBounds" />
          </mxGeometry>
        </mxCell>
        <mxCell id="VaGtuXmXfvkTdjbK2FE8-100" value="Tweets_of_the_user" style="shape=table;startSize=30;container=1;collapsible=1;childLayout=tableLayout;fixedRows=1;rowLines=0;fontStyle=1;align=center;resizeLast=1;" parent="1" vertex="1">
          <mxGeometry x="-516" y="30" width="180" height="490" as="geometry" />
        </mxCell>
        <mxCell id="VaGtuXmXfvkTdjbK2FE8-101" value="" style="shape=partialRectangle;collapsible=0;dropTarget=0;pointerEvents=0;fillColor=none;top=0;left=0;bottom=1;right=0;points=[[0,0.5],[1,0.5]];portConstraint=eastwest;" parent="VaGtuXmXfvkTdjbK2FE8-100" vertex="1">
          <mxGeometry y="30" width="180" height="30" as="geometry" />
        </mxCell>
        <mxCell id="VaGtuXmXfvkTdjbK2FE8-102" value="PK" style="shape=partialRectangle;connectable=0;fillColor=none;top=0;left=0;bottom=0;right=0;fontStyle=1;overflow=hidden;" parent="VaGtuXmXfvkTdjbK2FE8-101" vertex="1">
          <mxGeometry width="30" height="30" as="geometry">
            <mxRectangle width="30" height="30" as="alternateBounds" />
          </mxGeometry>
        </mxCell>
        <mxCell id="VaGtuXmXfvkTdjbK2FE8-103" value="post_id" style="shape=partialRectangle;connectable=0;fillColor=none;top=0;left=0;bottom=0;right=0;align=left;spacingLeft=6;fontStyle=5;overflow=hidden;" parent="VaGtuXmXfvkTdjbK2FE8-101" vertex="1">
          <mxGeometry x="30" width="150" height="30" as="geometry">
            <mxRectangle width="150" height="30" as="alternateBounds" />
          </mxGeometry>
        </mxCell>
        <mxCell id="VaGtuXmXfvkTdjbK2FE8-104" value="" style="shape=partialRectangle;collapsible=0;dropTarget=0;pointerEvents=0;fillColor=none;top=0;left=0;bottom=0;right=0;points=[[0,0.5],[1,0.5]];portConstraint=eastwest;" parent="VaGtuXmXfvkTdjbK2FE8-100" vertex="1">
          <mxGeometry y="60" width="180" height="30" as="geometry" />
        </mxCell>
        <mxCell id="VaGtuXmXfvkTdjbK2FE8-105" value="" style="shape=partialRectangle;connectable=0;fillColor=none;top=0;left=0;bottom=0;right=0;editable=1;overflow=hidden;" parent="VaGtuXmXfvkTdjbK2FE8-104" vertex="1">
          <mxGeometry width="30" height="30" as="geometry">
            <mxRectangle width="30" height="30" as="alternateBounds" />
          </mxGeometry>
        </mxCell>
        <mxCell id="VaGtuXmXfvkTdjbK2FE8-106" value="tweet" style="shape=partialRectangle;connectable=0;fillColor=none;top=0;left=0;bottom=0;right=0;align=left;spacingLeft=6;overflow=hidden;" parent="VaGtuXmXfvkTdjbK2FE8-104" vertex="1">
          <mxGeometry x="30" width="150" height="30" as="geometry">
            <mxRectangle width="150" height="30" as="alternateBounds" />
          </mxGeometry>
        </mxCell>
        <mxCell id="1y2QQ3OM-oPzrHKGGQTs-2" style="shape=partialRectangle;collapsible=0;dropTarget=0;pointerEvents=0;fillColor=none;top=0;left=0;bottom=0;right=0;points=[[0,0.5],[1,0.5]];portConstraint=eastwest;" parent="VaGtuXmXfvkTdjbK2FE8-100" vertex="1">
          <mxGeometry y="90" width="180" height="30" as="geometry" />
        </mxCell>
        <mxCell id="1y2QQ3OM-oPzrHKGGQTs-3" style="shape=partialRectangle;connectable=0;fillColor=none;top=0;left=0;bottom=0;right=0;editable=1;overflow=hidden;" parent="1y2QQ3OM-oPzrHKGGQTs-2" vertex="1">
          <mxGeometry width="30" height="30" as="geometry">
            <mxRectangle width="30" height="30" as="alternateBounds" />
          </mxGeometry>
        </mxCell>
        <mxCell id="1y2QQ3OM-oPzrHKGGQTs-4" value="referring_user_id (FK)" style="shape=partialRectangle;connectable=0;fillColor=none;top=0;left=0;bottom=0;right=0;align=left;spacingLeft=6;overflow=hidden;" parent="1y2QQ3OM-oPzrHKGGQTs-2" vertex="1">
          <mxGeometry x="30" width="150" height="30" as="geometry">
            <mxRectangle width="150" height="30" as="alternateBounds" />
          </mxGeometry>
        </mxCell>
        <mxCell id="VaGtuXmXfvkTdjbK2FE8-344" style="shape=partialRectangle;collapsible=0;dropTarget=0;pointerEvents=0;fillColor=none;top=0;left=0;bottom=0;right=0;points=[[0,0.5],[1,0.5]];portConstraint=eastwest;" parent="VaGtuXmXfvkTdjbK2FE8-100" vertex="1">
          <mxGeometry y="120" width="180" height="30" as="geometry" />
        </mxCell>
        <mxCell id="VaGtuXmXfvkTdjbK2FE8-345" style="shape=partialRectangle;connectable=0;fillColor=none;top=0;left=0;bottom=0;right=0;editable=1;overflow=hidden;" parent="VaGtuXmXfvkTdjbK2FE8-344" vertex="1">
          <mxGeometry width="30" height="30" as="geometry">
            <mxRectangle width="30" height="30" as="alternateBounds" />
          </mxGeometry>
        </mxCell>
        <mxCell id="VaGtuXmXfvkTdjbK2FE8-346" value="referring_post_id (FK)" style="shape=partialRectangle;connectable=0;fillColor=none;top=0;left=0;bottom=0;right=0;align=left;spacingLeft=6;overflow=hidden;" parent="VaGtuXmXfvkTdjbK2FE8-344" vertex="1">
          <mxGeometry x="30" width="150" height="30" as="geometry">
            <mxRectangle width="150" height="30" as="alternateBounds" />
          </mxGeometry>
        </mxCell>
        <mxCell id="VaGtuXmXfvkTdjbK2FE8-347" style="shape=partialRectangle;collapsible=0;dropTarget=0;pointerEvents=0;fillColor=none;top=0;left=0;bottom=0;right=0;points=[[0,0.5],[1,0.5]];portConstraint=eastwest;" parent="VaGtuXmXfvkTdjbK2FE8-100" vertex="1">
          <mxGeometry y="150" width="180" height="30" as="geometry" />
        </mxCell>
        <mxCell id="VaGtuXmXfvkTdjbK2FE8-348" style="shape=partialRectangle;connectable=0;fillColor=none;top=0;left=0;bottom=0;right=0;editable=1;overflow=hidden;" parent="VaGtuXmXfvkTdjbK2FE8-347" vertex="1">
          <mxGeometry width="30" height="30" as="geometry">
            <mxRectangle width="30" height="30" as="alternateBounds" />
          </mxGeometry>
        </mxCell>
        <mxCell id="VaGtuXmXfvkTdjbK2FE8-349" value="reply_or_retweet" style="shape=partialRectangle;connectable=0;fillColor=none;top=0;left=0;bottom=0;right=0;align=left;spacingLeft=6;overflow=hidden;" parent="VaGtuXmXfvkTdjbK2FE8-347" vertex="1">
          <mxGeometry x="30" width="150" height="30" as="geometry">
            <mxRectangle width="150" height="30" as="alternateBounds" />
          </mxGeometry>
        </mxCell>
        <mxCell id="VaGtuXmXfvkTdjbK2FE8-107" value="" style="shape=partialRectangle;collapsible=0;dropTarget=0;pointerEvents=0;fillColor=none;top=0;left=0;bottom=0;right=0;points=[[0,0.5],[1,0.5]];portConstraint=eastwest;" parent="VaGtuXmXfvkTdjbK2FE8-100" vertex="1">
          <mxGeometry y="180" width="180" height="30" as="geometry" />
        </mxCell>
        <mxCell id="VaGtuXmXfvkTdjbK2FE8-108" value="" style="shape=partialRectangle;connectable=0;fillColor=none;top=0;left=0;bottom=0;right=0;editable=1;overflow=hidden;" parent="VaGtuXmXfvkTdjbK2FE8-107" vertex="1">
          <mxGeometry width="30" height="30" as="geometry">
            <mxRectangle width="30" height="30" as="alternateBounds" />
          </mxGeometry>
        </mxCell>
        <mxCell id="VaGtuXmXfvkTdjbK2FE8-109" value="repliable_range_id (FK)" style="shape=partialRectangle;connectable=0;fillColor=none;top=0;left=0;bottom=0;right=0;align=left;spacingLeft=6;overflow=hidden;" parent="VaGtuXmXfvkTdjbK2FE8-107" vertex="1">
          <mxGeometry x="30" width="150" height="30" as="geometry">
            <mxRectangle width="150" height="30" as="alternateBounds" />
          </mxGeometry>
        </mxCell>
        <mxCell id="VaGtuXmXfvkTdjbK2FE8-110" value="" style="shape=partialRectangle;collapsible=0;dropTarget=0;pointerEvents=0;fillColor=none;top=0;left=0;bottom=0;right=0;points=[[0,0.5],[1,0.5]];portConstraint=eastwest;" parent="VaGtuXmXfvkTdjbK2FE8-100" vertex="1">
          <mxGeometry y="210" width="180" height="30" as="geometry" />
        </mxCell>
        <mxCell id="VaGtuXmXfvkTdjbK2FE8-111" value="" style="shape=partialRectangle;connectable=0;fillColor=none;top=0;left=0;bottom=0;right=0;editable=1;overflow=hidden;" parent="VaGtuXmXfvkTdjbK2FE8-110" vertex="1">
          <mxGeometry width="30" height="30" as="geometry">
            <mxRectangle width="30" height="30" as="alternateBounds" />
          </mxGeometry>
        </mxCell>
        <mxCell id="VaGtuXmXfvkTdjbK2FE8-112" value="media_id (FK)" style="shape=partialRectangle;connectable=0;fillColor=none;top=0;left=0;bottom=0;right=0;align=left;spacingLeft=6;overflow=hidden;" parent="VaGtuXmXfvkTdjbK2FE8-110" vertex="1">
          <mxGeometry x="30" width="150" height="30" as="geometry">
            <mxRectangle width="150" height="30" as="alternateBounds" />
          </mxGeometry>
        </mxCell>
        <mxCell id="VaGtuXmXfvkTdjbK2FE8-150" style="shape=partialRectangle;collapsible=0;dropTarget=0;pointerEvents=0;fillColor=none;top=0;left=0;bottom=0;right=0;points=[[0,0.5],[1,0.5]];portConstraint=eastwest;" parent="VaGtuXmXfvkTdjbK2FE8-100" vertex="1">
          <mxGeometry y="240" width="180" height="30" as="geometry" />
        </mxCell>
        <mxCell id="VaGtuXmXfvkTdjbK2FE8-151" style="shape=partialRectangle;connectable=0;fillColor=none;top=0;left=0;bottom=0;right=0;editable=1;overflow=hidden;" parent="VaGtuXmXfvkTdjbK2FE8-150" vertex="1">
          <mxGeometry width="30" height="30" as="geometry">
            <mxRectangle width="30" height="30" as="alternateBounds" />
          </mxGeometry>
        </mxCell>
        <mxCell id="VaGtuXmXfvkTdjbK2FE8-152" value="gif_id (FK)" style="shape=partialRectangle;connectable=0;fillColor=none;top=0;left=0;bottom=0;right=0;align=left;spacingLeft=6;overflow=hidden;" parent="VaGtuXmXfvkTdjbK2FE8-150" vertex="1">
          <mxGeometry x="30" width="150" height="30" as="geometry">
            <mxRectangle width="150" height="30" as="alternateBounds" />
          </mxGeometry>
        </mxCell>
        <mxCell id="VaGtuXmXfvkTdjbK2FE8-147" style="shape=partialRectangle;collapsible=0;dropTarget=0;pointerEvents=0;fillColor=none;top=0;left=0;bottom=0;right=0;points=[[0,0.5],[1,0.5]];portConstraint=eastwest;" parent="VaGtuXmXfvkTdjbK2FE8-100" vertex="1">
          <mxGeometry y="270" width="180" height="30" as="geometry" />
        </mxCell>
        <mxCell id="VaGtuXmXfvkTdjbK2FE8-148" style="shape=partialRectangle;connectable=0;fillColor=none;top=0;left=0;bottom=0;right=0;editable=1;overflow=hidden;" parent="VaGtuXmXfvkTdjbK2FE8-147" vertex="1">
          <mxGeometry width="30" height="30" as="geometry">
            <mxRectangle width="30" height="30" as="alternateBounds" />
          </mxGeometry>
        </mxCell>
        <mxCell id="VaGtuXmXfvkTdjbK2FE8-149" value="poll_id (FK)" style="shape=partialRectangle;connectable=0;fillColor=none;top=0;left=0;bottom=0;right=0;align=left;spacingLeft=6;overflow=hidden;" parent="VaGtuXmXfvkTdjbK2FE8-147" vertex="1">
          <mxGeometry x="30" width="150" height="30" as="geometry">
            <mxRectangle width="150" height="30" as="alternateBounds" />
          </mxGeometry>
        </mxCell>
        <mxCell id="VaGtuXmXfvkTdjbK2FE8-129" style="shape=partialRectangle;collapsible=0;dropTarget=0;pointerEvents=0;fillColor=none;top=0;left=0;bottom=0;right=0;points=[[0,0.5],[1,0.5]];portConstraint=eastwest;" parent="VaGtuXmXfvkTdjbK2FE8-100" vertex="1">
          <mxGeometry y="300" width="180" height="30" as="geometry" />
        </mxCell>
        <mxCell id="VaGtuXmXfvkTdjbK2FE8-130" style="shape=partialRectangle;connectable=0;fillColor=none;top=0;left=0;bottom=0;right=0;editable=1;overflow=hidden;" parent="VaGtuXmXfvkTdjbK2FE8-129" vertex="1">
          <mxGeometry width="30" height="30" as="geometry">
            <mxRectangle width="30" height="30" as="alternateBounds" />
          </mxGeometry>
        </mxCell>
        <mxCell id="VaGtuXmXfvkTdjbK2FE8-131" value="schedule_id (FK)" style="shape=partialRectangle;connectable=0;fillColor=none;top=0;left=0;bottom=0;right=0;align=left;spacingLeft=6;overflow=hidden;" parent="VaGtuXmXfvkTdjbK2FE8-129" vertex="1">
          <mxGeometry x="30" width="150" height="30" as="geometry">
            <mxRectangle width="150" height="30" as="alternateBounds" />
          </mxGeometry>
        </mxCell>
        <mxCell id="VaGtuXmXfvkTdjbK2FE8-162" style="shape=partialRectangle;collapsible=0;dropTarget=0;pointerEvents=0;fillColor=none;top=0;left=0;bottom=0;right=0;points=[[0,0.5],[1,0.5]];portConstraint=eastwest;" parent="VaGtuXmXfvkTdjbK2FE8-100" vertex="1">
          <mxGeometry y="330" width="180" height="30" as="geometry" />
        </mxCell>
        <mxCell id="VaGtuXmXfvkTdjbK2FE8-163" style="shape=partialRectangle;connectable=0;fillColor=none;top=0;left=0;bottom=0;right=0;editable=1;overflow=hidden;" parent="VaGtuXmXfvkTdjbK2FE8-162" vertex="1">
          <mxGeometry width="30" height="30" as="geometry">
            <mxRectangle width="30" height="30" as="alternateBounds" />
          </mxGeometry>
        </mxCell>
        <mxCell id="VaGtuXmXfvkTdjbK2FE8-164" value="current_location" style="shape=partialRectangle;connectable=0;fillColor=none;top=0;left=0;bottom=0;right=0;align=left;spacingLeft=6;overflow=hidden;" parent="VaGtuXmXfvkTdjbK2FE8-162" vertex="1">
          <mxGeometry x="30" width="150" height="30" as="geometry">
            <mxRectangle width="150" height="30" as="alternateBounds" />
          </mxGeometry>
        </mxCell>
        <mxCell id="VaGtuXmXfvkTdjbK2FE8-126" style="shape=partialRectangle;collapsible=0;dropTarget=0;pointerEvents=0;fillColor=none;top=0;left=0;bottom=0;right=0;points=[[0,0.5],[1,0.5]];portConstraint=eastwest;" parent="VaGtuXmXfvkTdjbK2FE8-100" vertex="1">
          <mxGeometry y="360" width="180" height="30" as="geometry" />
        </mxCell>
        <mxCell id="VaGtuXmXfvkTdjbK2FE8-127" style="shape=partialRectangle;connectable=0;fillColor=none;top=0;left=0;bottom=0;right=0;editable=1;overflow=hidden;" parent="VaGtuXmXfvkTdjbK2FE8-126" vertex="1">
          <mxGeometry width="30" height="30" as="geometry">
            <mxRectangle width="30" height="30" as="alternateBounds" />
          </mxGeometry>
        </mxCell>
        <mxCell id="VaGtuXmXfvkTdjbK2FE8-128" value="number_of_replies" style="shape=partialRectangle;connectable=0;fillColor=none;top=0;left=0;bottom=0;right=0;align=left;spacingLeft=6;overflow=hidden;" parent="VaGtuXmXfvkTdjbK2FE8-126" vertex="1">
          <mxGeometry x="30" width="150" height="30" as="geometry">
            <mxRectangle width="150" height="30" as="alternateBounds" />
          </mxGeometry>
        </mxCell>
        <mxCell id="VaGtuXmXfvkTdjbK2FE8-186" style="shape=partialRectangle;collapsible=0;dropTarget=0;pointerEvents=0;fillColor=none;top=0;left=0;bottom=0;right=0;points=[[0,0.5],[1,0.5]];portConstraint=eastwest;" parent="VaGtuXmXfvkTdjbK2FE8-100" vertex="1">
          <mxGeometry y="390" width="180" height="30" as="geometry" />
        </mxCell>
        <mxCell id="VaGtuXmXfvkTdjbK2FE8-187" style="shape=partialRectangle;connectable=0;fillColor=none;top=0;left=0;bottom=0;right=0;editable=1;overflow=hidden;" parent="VaGtuXmXfvkTdjbK2FE8-186" vertex="1">
          <mxGeometry width="30" height="30" as="geometry">
            <mxRectangle width="30" height="30" as="alternateBounds" />
          </mxGeometry>
        </mxCell>
        <mxCell id="VaGtuXmXfvkTdjbK2FE8-188" value="number_of_retweets" style="shape=partialRectangle;connectable=0;fillColor=none;top=0;left=0;bottom=0;right=0;align=left;spacingLeft=6;overflow=hidden;" parent="VaGtuXmXfvkTdjbK2FE8-186" vertex="1">
          <mxGeometry x="30" width="150" height="30" as="geometry">
            <mxRectangle width="150" height="30" as="alternateBounds" />
          </mxGeometry>
        </mxCell>
        <mxCell id="VaGtuXmXfvkTdjbK2FE8-183" style="shape=partialRectangle;collapsible=0;dropTarget=0;pointerEvents=0;fillColor=none;top=0;left=0;bottom=0;right=0;points=[[0,0.5],[1,0.5]];portConstraint=eastwest;" parent="VaGtuXmXfvkTdjbK2FE8-100" vertex="1">
          <mxGeometry y="420" width="180" height="30" as="geometry" />
        </mxCell>
        <mxCell id="VaGtuXmXfvkTdjbK2FE8-184" style="shape=partialRectangle;connectable=0;fillColor=none;top=0;left=0;bottom=0;right=0;editable=1;overflow=hidden;" parent="VaGtuXmXfvkTdjbK2FE8-183" vertex="1">
          <mxGeometry width="30" height="30" as="geometry">
            <mxRectangle width="30" height="30" as="alternateBounds" />
          </mxGeometry>
        </mxCell>
        <mxCell id="VaGtuXmXfvkTdjbK2FE8-185" value="number_of_likes" style="shape=partialRectangle;connectable=0;fillColor=none;top=0;left=0;bottom=0;right=0;align=left;spacingLeft=6;overflow=hidden;" parent="VaGtuXmXfvkTdjbK2FE8-183" vertex="1">
          <mxGeometry x="30" width="150" height="30" as="geometry">
            <mxRectangle width="150" height="30" as="alternateBounds" />
          </mxGeometry>
        </mxCell>
        <mxCell id="VaGtuXmXfvkTdjbK2FE8-180" style="shape=partialRectangle;collapsible=0;dropTarget=0;pointerEvents=0;fillColor=none;top=0;left=0;bottom=0;right=0;points=[[0,0.5],[1,0.5]];portConstraint=eastwest;" parent="VaGtuXmXfvkTdjbK2FE8-100" vertex="1">
          <mxGeometry y="450" width="180" height="30" as="geometry" />
        </mxCell>
        <mxCell id="VaGtuXmXfvkTdjbK2FE8-181" style="shape=partialRectangle;connectable=0;fillColor=none;top=0;left=0;bottom=0;right=0;editable=1;overflow=hidden;" parent="VaGtuXmXfvkTdjbK2FE8-180" vertex="1">
          <mxGeometry width="30" height="30" as="geometry">
            <mxRectangle width="30" height="30" as="alternateBounds" />
          </mxGeometry>
        </mxCell>
        <mxCell id="VaGtuXmXfvkTdjbK2FE8-182" value="posted_date_time" style="shape=partialRectangle;connectable=0;fillColor=none;top=0;left=0;bottom=0;right=0;align=left;spacingLeft=6;overflow=hidden;" parent="VaGtuXmXfvkTdjbK2FE8-180" vertex="1">
          <mxGeometry x="30" width="150" height="30" as="geometry">
            <mxRectangle width="150" height="30" as="alternateBounds" />
          </mxGeometry>
        </mxCell>
        <mxCell id="VaGtuXmXfvkTdjbK2FE8-227" value="Polls" style="shape=table;startSize=30;container=1;collapsible=1;childLayout=tableLayout;fixedRows=1;rowLines=0;fontStyle=1;align=center;resizeLast=1;" parent="1" vertex="1">
          <mxGeometry x="-31" y="510" width="180" height="280" as="geometry" />
        </mxCell>
        <mxCell id="VaGtuXmXfvkTdjbK2FE8-228" value="" style="shape=partialRectangle;collapsible=0;dropTarget=0;pointerEvents=0;fillColor=none;top=0;left=0;bottom=1;right=0;points=[[0,0.5],[1,0.5]];portConstraint=eastwest;" parent="VaGtuXmXfvkTdjbK2FE8-227" vertex="1">
          <mxGeometry y="30" width="180" height="30" as="geometry" />
        </mxCell>
        <mxCell id="VaGtuXmXfvkTdjbK2FE8-229" value="PK" style="shape=partialRectangle;connectable=0;fillColor=none;top=0;left=0;bottom=0;right=0;fontStyle=1;overflow=hidden;" parent="VaGtuXmXfvkTdjbK2FE8-228" vertex="1">
          <mxGeometry width="30" height="30" as="geometry">
            <mxRectangle width="30" height="30" as="alternateBounds" />
          </mxGeometry>
        </mxCell>
        <mxCell id="VaGtuXmXfvkTdjbK2FE8-230" value="poll_id" style="shape=partialRectangle;connectable=0;fillColor=none;top=0;left=0;bottom=0;right=0;align=left;spacingLeft=6;fontStyle=5;overflow=hidden;" parent="VaGtuXmXfvkTdjbK2FE8-228" vertex="1">
          <mxGeometry x="30" width="150" height="30" as="geometry">
            <mxRectangle width="150" height="30" as="alternateBounds" />
          </mxGeometry>
        </mxCell>
        <mxCell id="VaGtuXmXfvkTdjbK2FE8-234" value="" style="shape=partialRectangle;collapsible=0;dropTarget=0;pointerEvents=0;fillColor=none;top=0;left=0;bottom=0;right=0;points=[[0,0.5],[1,0.5]];portConstraint=eastwest;" parent="VaGtuXmXfvkTdjbK2FE8-227" vertex="1">
          <mxGeometry y="60" width="180" height="30" as="geometry" />
        </mxCell>
        <mxCell id="VaGtuXmXfvkTdjbK2FE8-235" value="" style="shape=partialRectangle;connectable=0;fillColor=none;top=0;left=0;bottom=0;right=0;editable=1;overflow=hidden;" parent="VaGtuXmXfvkTdjbK2FE8-234" vertex="1">
          <mxGeometry width="30" height="30" as="geometry">
            <mxRectangle width="30" height="30" as="alternateBounds" />
          </mxGeometry>
        </mxCell>
        <mxCell id="VaGtuXmXfvkTdjbK2FE8-236" value="choice_1" style="shape=partialRectangle;connectable=0;fillColor=none;top=0;left=0;bottom=0;right=0;align=left;spacingLeft=6;overflow=hidden;" parent="VaGtuXmXfvkTdjbK2FE8-234" vertex="1">
          <mxGeometry x="30" width="150" height="30" as="geometry">
            <mxRectangle width="150" height="30" as="alternateBounds" />
          </mxGeometry>
        </mxCell>
        <mxCell id="VaGtuXmXfvkTdjbK2FE8-237" value="" style="shape=partialRectangle;collapsible=0;dropTarget=0;pointerEvents=0;fillColor=none;top=0;left=0;bottom=0;right=0;points=[[0,0.5],[1,0.5]];portConstraint=eastwest;" parent="VaGtuXmXfvkTdjbK2FE8-227" vertex="1">
          <mxGeometry y="90" width="180" height="30" as="geometry" />
        </mxCell>
        <mxCell id="VaGtuXmXfvkTdjbK2FE8-238" value="" style="shape=partialRectangle;connectable=0;fillColor=none;top=0;left=0;bottom=0;right=0;editable=1;overflow=hidden;" parent="VaGtuXmXfvkTdjbK2FE8-237" vertex="1">
          <mxGeometry width="30" height="30" as="geometry">
            <mxRectangle width="30" height="30" as="alternateBounds" />
          </mxGeometry>
        </mxCell>
        <mxCell id="VaGtuXmXfvkTdjbK2FE8-239" value="choice_2" style="shape=partialRectangle;connectable=0;fillColor=none;top=0;left=0;bottom=0;right=0;align=left;spacingLeft=6;overflow=hidden;" parent="VaGtuXmXfvkTdjbK2FE8-237" vertex="1">
          <mxGeometry x="30" width="150" height="30" as="geometry">
            <mxRectangle width="150" height="30" as="alternateBounds" />
          </mxGeometry>
        </mxCell>
        <mxCell id="VaGtuXmXfvkTdjbK2FE8-289" style="shape=partialRectangle;collapsible=0;dropTarget=0;pointerEvents=0;fillColor=none;top=0;left=0;bottom=0;right=0;points=[[0,0.5],[1,0.5]];portConstraint=eastwest;" parent="VaGtuXmXfvkTdjbK2FE8-227" vertex="1">
          <mxGeometry y="120" width="180" height="30" as="geometry" />
        </mxCell>
        <mxCell id="VaGtuXmXfvkTdjbK2FE8-290" style="shape=partialRectangle;connectable=0;fillColor=none;top=0;left=0;bottom=0;right=0;editable=1;overflow=hidden;" parent="VaGtuXmXfvkTdjbK2FE8-289" vertex="1">
          <mxGeometry width="30" height="30" as="geometry">
            <mxRectangle width="30" height="30" as="alternateBounds" />
          </mxGeometry>
        </mxCell>
        <mxCell id="VaGtuXmXfvkTdjbK2FE8-291" value="choice_3" style="shape=partialRectangle;connectable=0;fillColor=none;top=0;left=0;bottom=0;right=0;align=left;spacingLeft=6;overflow=hidden;" parent="VaGtuXmXfvkTdjbK2FE8-289" vertex="1">
          <mxGeometry x="30" width="150" height="30" as="geometry">
            <mxRectangle width="150" height="30" as="alternateBounds" />
          </mxGeometry>
        </mxCell>
        <mxCell id="VaGtuXmXfvkTdjbK2FE8-286" style="shape=partialRectangle;collapsible=0;dropTarget=0;pointerEvents=0;fillColor=none;top=0;left=0;bottom=0;right=0;points=[[0,0.5],[1,0.5]];portConstraint=eastwest;" parent="VaGtuXmXfvkTdjbK2FE8-227" vertex="1">
          <mxGeometry y="150" width="180" height="30" as="geometry" />
        </mxCell>
        <mxCell id="VaGtuXmXfvkTdjbK2FE8-287" style="shape=partialRectangle;connectable=0;fillColor=none;top=0;left=0;bottom=0;right=0;editable=1;overflow=hidden;" parent="VaGtuXmXfvkTdjbK2FE8-286" vertex="1">
          <mxGeometry width="30" height="30" as="geometry">
            <mxRectangle width="30" height="30" as="alternateBounds" />
          </mxGeometry>
        </mxCell>
        <mxCell id="VaGtuXmXfvkTdjbK2FE8-288" value="choice_4" style="shape=partialRectangle;connectable=0;fillColor=none;top=0;left=0;bottom=0;right=0;align=left;spacingLeft=6;overflow=hidden;" parent="VaGtuXmXfvkTdjbK2FE8-286" vertex="1">
          <mxGeometry x="30" width="150" height="30" as="geometry">
            <mxRectangle width="150" height="30" as="alternateBounds" />
          </mxGeometry>
        </mxCell>
        <mxCell id="VaGtuXmXfvkTdjbK2FE8-283" style="shape=partialRectangle;collapsible=0;dropTarget=0;pointerEvents=0;fillColor=none;top=0;left=0;bottom=0;right=0;points=[[0,0.5],[1,0.5]];portConstraint=eastwest;" parent="VaGtuXmXfvkTdjbK2FE8-227" vertex="1">
          <mxGeometry y="180" width="180" height="30" as="geometry" />
        </mxCell>
        <mxCell id="VaGtuXmXfvkTdjbK2FE8-284" style="shape=partialRectangle;connectable=0;fillColor=none;top=0;left=0;bottom=0;right=0;editable=1;overflow=hidden;" parent="VaGtuXmXfvkTdjbK2FE8-283" vertex="1">
          <mxGeometry width="30" height="30" as="geometry">
            <mxRectangle width="30" height="30" as="alternateBounds" />
          </mxGeometry>
        </mxCell>
        <mxCell id="VaGtuXmXfvkTdjbK2FE8-285" value="length_days" style="shape=partialRectangle;connectable=0;fillColor=none;top=0;left=0;bottom=0;right=0;align=left;spacingLeft=6;overflow=hidden;" parent="VaGtuXmXfvkTdjbK2FE8-283" vertex="1">
          <mxGeometry x="30" width="150" height="30" as="geometry">
            <mxRectangle width="150" height="30" as="alternateBounds" />
          </mxGeometry>
        </mxCell>
        <mxCell id="VaGtuXmXfvkTdjbK2FE8-280" style="shape=partialRectangle;collapsible=0;dropTarget=0;pointerEvents=0;fillColor=none;top=0;left=0;bottom=0;right=0;points=[[0,0.5],[1,0.5]];portConstraint=eastwest;" parent="VaGtuXmXfvkTdjbK2FE8-227" vertex="1">
          <mxGeometry y="210" width="180" height="30" as="geometry" />
        </mxCell>
        <mxCell id="VaGtuXmXfvkTdjbK2FE8-281" style="shape=partialRectangle;connectable=0;fillColor=none;top=0;left=0;bottom=0;right=0;editable=1;overflow=hidden;" parent="VaGtuXmXfvkTdjbK2FE8-280" vertex="1">
          <mxGeometry width="30" height="30" as="geometry">
            <mxRectangle width="30" height="30" as="alternateBounds" />
          </mxGeometry>
        </mxCell>
        <mxCell id="VaGtuXmXfvkTdjbK2FE8-282" value="length_hours" style="shape=partialRectangle;connectable=0;fillColor=none;top=0;left=0;bottom=0;right=0;align=left;spacingLeft=6;overflow=hidden;" parent="VaGtuXmXfvkTdjbK2FE8-280" vertex="1">
          <mxGeometry x="30" width="150" height="30" as="geometry">
            <mxRectangle width="150" height="30" as="alternateBounds" />
          </mxGeometry>
        </mxCell>
        <mxCell id="VaGtuXmXfvkTdjbK2FE8-277" style="shape=partialRectangle;collapsible=0;dropTarget=0;pointerEvents=0;fillColor=none;top=0;left=0;bottom=0;right=0;points=[[0,0.5],[1,0.5]];portConstraint=eastwest;" parent="VaGtuXmXfvkTdjbK2FE8-227" vertex="1">
          <mxGeometry y="240" width="180" height="30" as="geometry" />
        </mxCell>
        <mxCell id="VaGtuXmXfvkTdjbK2FE8-278" style="shape=partialRectangle;connectable=0;fillColor=none;top=0;left=0;bottom=0;right=0;editable=1;overflow=hidden;" parent="VaGtuXmXfvkTdjbK2FE8-277" vertex="1">
          <mxGeometry width="30" height="30" as="geometry">
            <mxRectangle width="30" height="30" as="alternateBounds" />
          </mxGeometry>
        </mxCell>
        <mxCell id="VaGtuXmXfvkTdjbK2FE8-279" value="length_minutes" style="shape=partialRectangle;connectable=0;fillColor=none;top=0;left=0;bottom=0;right=0;align=left;spacingLeft=6;overflow=hidden;" parent="VaGtuXmXfvkTdjbK2FE8-277" vertex="1">
          <mxGeometry x="30" width="150" height="30" as="geometry">
            <mxRectangle width="150" height="30" as="alternateBounds" />
          </mxGeometry>
        </mxCell>
        <mxCell id="VaGtuXmXfvkTdjbK2FE8-240" value="Medias" style="shape=table;startSize=30;container=1;collapsible=1;childLayout=tableLayout;fixedRows=1;rowLines=0;fontStyle=1;align=center;resizeLast=1;" parent="1" vertex="1">
          <mxGeometry x="-241" y="210" width="180" height="190" as="geometry" />
        </mxCell>
        <mxCell id="VaGtuXmXfvkTdjbK2FE8-241" value="" style="shape=partialRectangle;collapsible=0;dropTarget=0;pointerEvents=0;fillColor=none;top=0;left=0;bottom=1;right=0;points=[[0,0.5],[1,0.5]];portConstraint=eastwest;" parent="VaGtuXmXfvkTdjbK2FE8-240" vertex="1">
          <mxGeometry y="30" width="180" height="30" as="geometry" />
        </mxCell>
        <mxCell id="VaGtuXmXfvkTdjbK2FE8-242" value="PK" style="shape=partialRectangle;connectable=0;fillColor=none;top=0;left=0;bottom=0;right=0;fontStyle=1;overflow=hidden;" parent="VaGtuXmXfvkTdjbK2FE8-241" vertex="1">
          <mxGeometry width="30" height="30" as="geometry">
            <mxRectangle width="30" height="30" as="alternateBounds" />
          </mxGeometry>
        </mxCell>
        <mxCell id="VaGtuXmXfvkTdjbK2FE8-243" value="media_id" style="shape=partialRectangle;connectable=0;fillColor=none;top=0;left=0;bottom=0;right=0;align=left;spacingLeft=6;fontStyle=5;overflow=hidden;" parent="VaGtuXmXfvkTdjbK2FE8-241" vertex="1">
          <mxGeometry x="30" width="150" height="30" as="geometry">
            <mxRectangle width="150" height="30" as="alternateBounds" />
          </mxGeometry>
        </mxCell>
        <mxCell id="VaGtuXmXfvkTdjbK2FE8-247" value="" style="shape=partialRectangle;collapsible=0;dropTarget=0;pointerEvents=0;fillColor=none;top=0;left=0;bottom=0;right=0;points=[[0,0.5],[1,0.5]];portConstraint=eastwest;" parent="VaGtuXmXfvkTdjbK2FE8-240" vertex="1">
          <mxGeometry y="60" width="180" height="30" as="geometry" />
        </mxCell>
        <mxCell id="VaGtuXmXfvkTdjbK2FE8-248" value="" style="shape=partialRectangle;connectable=0;fillColor=none;top=0;left=0;bottom=0;right=0;editable=1;overflow=hidden;" parent="VaGtuXmXfvkTdjbK2FE8-247" vertex="1">
          <mxGeometry width="30" height="30" as="geometry">
            <mxRectangle width="30" height="30" as="alternateBounds" />
          </mxGeometry>
        </mxCell>
        <mxCell id="VaGtuXmXfvkTdjbK2FE8-249" value="media_1" style="shape=partialRectangle;connectable=0;fillColor=none;top=0;left=0;bottom=0;right=0;align=left;spacingLeft=6;overflow=hidden;" parent="VaGtuXmXfvkTdjbK2FE8-247" vertex="1">
          <mxGeometry x="30" width="150" height="30" as="geometry">
            <mxRectangle width="150" height="30" as="alternateBounds" />
          </mxGeometry>
        </mxCell>
        <mxCell id="VaGtuXmXfvkTdjbK2FE8-250" value="" style="shape=partialRectangle;collapsible=0;dropTarget=0;pointerEvents=0;fillColor=none;top=0;left=0;bottom=0;right=0;points=[[0,0.5],[1,0.5]];portConstraint=eastwest;" parent="VaGtuXmXfvkTdjbK2FE8-240" vertex="1">
          <mxGeometry y="90" width="180" height="30" as="geometry" />
        </mxCell>
        <mxCell id="VaGtuXmXfvkTdjbK2FE8-251" value="" style="shape=partialRectangle;connectable=0;fillColor=none;top=0;left=0;bottom=0;right=0;editable=1;overflow=hidden;" parent="VaGtuXmXfvkTdjbK2FE8-250" vertex="1">
          <mxGeometry width="30" height="30" as="geometry">
            <mxRectangle width="30" height="30" as="alternateBounds" />
          </mxGeometry>
        </mxCell>
        <mxCell id="VaGtuXmXfvkTdjbK2FE8-252" value="media_2" style="shape=partialRectangle;connectable=0;fillColor=none;top=0;left=0;bottom=0;right=0;align=left;spacingLeft=6;overflow=hidden;" parent="VaGtuXmXfvkTdjbK2FE8-250" vertex="1">
          <mxGeometry x="30" width="150" height="30" as="geometry">
            <mxRectangle width="150" height="30" as="alternateBounds" />
          </mxGeometry>
        </mxCell>
        <mxCell id="VaGtuXmXfvkTdjbK2FE8-256" style="shape=partialRectangle;collapsible=0;dropTarget=0;pointerEvents=0;fillColor=none;top=0;left=0;bottom=0;right=0;points=[[0,0.5],[1,0.5]];portConstraint=eastwest;" parent="VaGtuXmXfvkTdjbK2FE8-240" vertex="1">
          <mxGeometry y="120" width="180" height="30" as="geometry" />
        </mxCell>
        <mxCell id="VaGtuXmXfvkTdjbK2FE8-257" style="shape=partialRectangle;connectable=0;fillColor=none;top=0;left=0;bottom=0;right=0;editable=1;overflow=hidden;" parent="VaGtuXmXfvkTdjbK2FE8-256" vertex="1">
          <mxGeometry width="30" height="30" as="geometry">
            <mxRectangle width="30" height="30" as="alternateBounds" />
          </mxGeometry>
        </mxCell>
        <mxCell id="VaGtuXmXfvkTdjbK2FE8-258" value="media_3" style="shape=partialRectangle;connectable=0;fillColor=none;top=0;left=0;bottom=0;right=0;align=left;spacingLeft=6;overflow=hidden;" parent="VaGtuXmXfvkTdjbK2FE8-256" vertex="1">
          <mxGeometry x="30" width="150" height="30" as="geometry">
            <mxRectangle width="150" height="30" as="alternateBounds" />
          </mxGeometry>
        </mxCell>
        <mxCell id="VaGtuXmXfvkTdjbK2FE8-253" style="shape=partialRectangle;collapsible=0;dropTarget=0;pointerEvents=0;fillColor=none;top=0;left=0;bottom=0;right=0;points=[[0,0.5],[1,0.5]];portConstraint=eastwest;" parent="VaGtuXmXfvkTdjbK2FE8-240" vertex="1">
          <mxGeometry y="150" width="180" height="30" as="geometry" />
        </mxCell>
        <mxCell id="VaGtuXmXfvkTdjbK2FE8-254" style="shape=partialRectangle;connectable=0;fillColor=none;top=0;left=0;bottom=0;right=0;editable=1;overflow=hidden;" parent="VaGtuXmXfvkTdjbK2FE8-253" vertex="1">
          <mxGeometry width="30" height="30" as="geometry">
            <mxRectangle width="30" height="30" as="alternateBounds" />
          </mxGeometry>
        </mxCell>
        <mxCell id="VaGtuXmXfvkTdjbK2FE8-255" value="media_4" style="shape=partialRectangle;connectable=0;fillColor=none;top=0;left=0;bottom=0;right=0;align=left;spacingLeft=6;overflow=hidden;" parent="VaGtuXmXfvkTdjbK2FE8-253" vertex="1">
          <mxGeometry x="30" width="150" height="30" as="geometry">
            <mxRectangle width="150" height="30" as="alternateBounds" />
          </mxGeometry>
        </mxCell>
        <mxCell id="VaGtuXmXfvkTdjbK2FE8-292" value="Schedules" style="shape=table;startSize=30;container=1;collapsible=1;childLayout=tableLayout;fixedRows=1;rowLines=0;fontStyle=1;align=center;resizeLast=1;" parent="1" vertex="1">
          <mxGeometry x="-241" y="570" width="180" height="250" as="geometry" />
        </mxCell>
        <mxCell id="VaGtuXmXfvkTdjbK2FE8-293" value="" style="shape=partialRectangle;collapsible=0;dropTarget=0;pointerEvents=0;fillColor=none;top=0;left=0;bottom=1;right=0;points=[[0,0.5],[1,0.5]];portConstraint=eastwest;" parent="VaGtuXmXfvkTdjbK2FE8-292" vertex="1">
          <mxGeometry y="30" width="180" height="30" as="geometry" />
        </mxCell>
        <mxCell id="VaGtuXmXfvkTdjbK2FE8-294" value="PK" style="shape=partialRectangle;connectable=0;fillColor=none;top=0;left=0;bottom=0;right=0;fontStyle=1;overflow=hidden;" parent="VaGtuXmXfvkTdjbK2FE8-293" vertex="1">
          <mxGeometry width="30" height="30" as="geometry">
            <mxRectangle width="30" height="30" as="alternateBounds" />
          </mxGeometry>
        </mxCell>
        <mxCell id="VaGtuXmXfvkTdjbK2FE8-295" value="schedule_id" style="shape=partialRectangle;connectable=0;fillColor=none;top=0;left=0;bottom=0;right=0;align=left;spacingLeft=6;fontStyle=5;overflow=hidden;" parent="VaGtuXmXfvkTdjbK2FE8-293" vertex="1">
          <mxGeometry x="30" width="150" height="30" as="geometry">
            <mxRectangle width="150" height="30" as="alternateBounds" />
          </mxGeometry>
        </mxCell>
        <mxCell id="VaGtuXmXfvkTdjbK2FE8-299" value="" style="shape=partialRectangle;collapsible=0;dropTarget=0;pointerEvents=0;fillColor=none;top=0;left=0;bottom=0;right=0;points=[[0,0.5],[1,0.5]];portConstraint=eastwest;" parent="VaGtuXmXfvkTdjbK2FE8-292" vertex="1">
          <mxGeometry y="60" width="180" height="30" as="geometry" />
        </mxCell>
        <mxCell id="VaGtuXmXfvkTdjbK2FE8-300" value="" style="shape=partialRectangle;connectable=0;fillColor=none;top=0;left=0;bottom=0;right=0;editable=1;overflow=hidden;" parent="VaGtuXmXfvkTdjbK2FE8-299" vertex="1">
          <mxGeometry width="30" height="30" as="geometry">
            <mxRectangle width="30" height="30" as="alternateBounds" />
          </mxGeometry>
        </mxCell>
        <mxCell id="VaGtuXmXfvkTdjbK2FE8-301" value="date_month" style="shape=partialRectangle;connectable=0;fillColor=none;top=0;left=0;bottom=0;right=0;align=left;spacingLeft=6;overflow=hidden;" parent="VaGtuXmXfvkTdjbK2FE8-299" vertex="1">
          <mxGeometry x="30" width="150" height="30" as="geometry">
            <mxRectangle width="150" height="30" as="alternateBounds" />
          </mxGeometry>
        </mxCell>
        <mxCell id="VaGtuXmXfvkTdjbK2FE8-302" value="" style="shape=partialRectangle;collapsible=0;dropTarget=0;pointerEvents=0;fillColor=none;top=0;left=0;bottom=0;right=0;points=[[0,0.5],[1,0.5]];portConstraint=eastwest;" parent="VaGtuXmXfvkTdjbK2FE8-292" vertex="1">
          <mxGeometry y="90" width="180" height="30" as="geometry" />
        </mxCell>
        <mxCell id="VaGtuXmXfvkTdjbK2FE8-303" value="" style="shape=partialRectangle;connectable=0;fillColor=none;top=0;left=0;bottom=0;right=0;editable=1;overflow=hidden;" parent="VaGtuXmXfvkTdjbK2FE8-302" vertex="1">
          <mxGeometry width="30" height="30" as="geometry">
            <mxRectangle width="30" height="30" as="alternateBounds" />
          </mxGeometry>
        </mxCell>
        <mxCell id="VaGtuXmXfvkTdjbK2FE8-304" value="date_day" style="shape=partialRectangle;connectable=0;fillColor=none;top=0;left=0;bottom=0;right=0;align=left;spacingLeft=6;overflow=hidden;" parent="VaGtuXmXfvkTdjbK2FE8-302" vertex="1">
          <mxGeometry x="30" width="150" height="30" as="geometry">
            <mxRectangle width="150" height="30" as="alternateBounds" />
          </mxGeometry>
        </mxCell>
        <mxCell id="VaGtuXmXfvkTdjbK2FE8-305" style="shape=partialRectangle;collapsible=0;dropTarget=0;pointerEvents=0;fillColor=none;top=0;left=0;bottom=0;right=0;points=[[0,0.5],[1,0.5]];portConstraint=eastwest;" parent="VaGtuXmXfvkTdjbK2FE8-292" vertex="1">
          <mxGeometry y="120" width="180" height="30" as="geometry" />
        </mxCell>
        <mxCell id="VaGtuXmXfvkTdjbK2FE8-306" style="shape=partialRectangle;connectable=0;fillColor=none;top=0;left=0;bottom=0;right=0;editable=1;overflow=hidden;" parent="VaGtuXmXfvkTdjbK2FE8-305" vertex="1">
          <mxGeometry width="30" height="30" as="geometry">
            <mxRectangle width="30" height="30" as="alternateBounds" />
          </mxGeometry>
        </mxCell>
        <mxCell id="VaGtuXmXfvkTdjbK2FE8-307" value="date_year" style="shape=partialRectangle;connectable=0;fillColor=none;top=0;left=0;bottom=0;right=0;align=left;spacingLeft=6;overflow=hidden;" parent="VaGtuXmXfvkTdjbK2FE8-305" vertex="1">
          <mxGeometry x="30" width="150" height="30" as="geometry">
            <mxRectangle width="150" height="30" as="alternateBounds" />
          </mxGeometry>
        </mxCell>
        <mxCell id="VaGtuXmXfvkTdjbK2FE8-308" style="shape=partialRectangle;collapsible=0;dropTarget=0;pointerEvents=0;fillColor=none;top=0;left=0;bottom=0;right=0;points=[[0,0.5],[1,0.5]];portConstraint=eastwest;" parent="VaGtuXmXfvkTdjbK2FE8-292" vertex="1">
          <mxGeometry y="150" width="180" height="30" as="geometry" />
        </mxCell>
        <mxCell id="VaGtuXmXfvkTdjbK2FE8-309" style="shape=partialRectangle;connectable=0;fillColor=none;top=0;left=0;bottom=0;right=0;editable=1;overflow=hidden;" parent="VaGtuXmXfvkTdjbK2FE8-308" vertex="1">
          <mxGeometry width="30" height="30" as="geometry">
            <mxRectangle width="30" height="30" as="alternateBounds" />
          </mxGeometry>
        </mxCell>
        <mxCell id="VaGtuXmXfvkTdjbK2FE8-310" value="time_hour" style="shape=partialRectangle;connectable=0;fillColor=none;top=0;left=0;bottom=0;right=0;align=left;spacingLeft=6;overflow=hidden;" parent="VaGtuXmXfvkTdjbK2FE8-308" vertex="1">
          <mxGeometry x="30" width="150" height="30" as="geometry">
            <mxRectangle width="150" height="30" as="alternateBounds" />
          </mxGeometry>
        </mxCell>
        <mxCell id="VaGtuXmXfvkTdjbK2FE8-311" style="shape=partialRectangle;collapsible=0;dropTarget=0;pointerEvents=0;fillColor=none;top=0;left=0;bottom=0;right=0;points=[[0,0.5],[1,0.5]];portConstraint=eastwest;" parent="VaGtuXmXfvkTdjbK2FE8-292" vertex="1">
          <mxGeometry y="180" width="180" height="30" as="geometry" />
        </mxCell>
        <mxCell id="VaGtuXmXfvkTdjbK2FE8-312" style="shape=partialRectangle;connectable=0;fillColor=none;top=0;left=0;bottom=0;right=0;editable=1;overflow=hidden;" parent="VaGtuXmXfvkTdjbK2FE8-311" vertex="1">
          <mxGeometry width="30" height="30" as="geometry">
            <mxRectangle width="30" height="30" as="alternateBounds" />
          </mxGeometry>
        </mxCell>
        <mxCell id="VaGtuXmXfvkTdjbK2FE8-313" value="time_minute" style="shape=partialRectangle;connectable=0;fillColor=none;top=0;left=0;bottom=0;right=0;align=left;spacingLeft=6;overflow=hidden;" parent="VaGtuXmXfvkTdjbK2FE8-311" vertex="1">
          <mxGeometry x="30" width="150" height="30" as="geometry">
            <mxRectangle width="150" height="30" as="alternateBounds" />
          </mxGeometry>
        </mxCell>
        <mxCell id="VaGtuXmXfvkTdjbK2FE8-314" style="shape=partialRectangle;collapsible=0;dropTarget=0;pointerEvents=0;fillColor=none;top=0;left=0;bottom=0;right=0;points=[[0,0.5],[1,0.5]];portConstraint=eastwest;" parent="VaGtuXmXfvkTdjbK2FE8-292" vertex="1">
          <mxGeometry y="210" width="180" height="30" as="geometry" />
        </mxCell>
        <mxCell id="VaGtuXmXfvkTdjbK2FE8-315" style="shape=partialRectangle;connectable=0;fillColor=none;top=0;left=0;bottom=0;right=0;editable=1;overflow=hidden;" parent="VaGtuXmXfvkTdjbK2FE8-314" vertex="1">
          <mxGeometry width="30" height="30" as="geometry">
            <mxRectangle width="30" height="30" as="alternateBounds" />
          </mxGeometry>
        </mxCell>
        <mxCell id="VaGtuXmXfvkTdjbK2FE8-316" value="timezone" style="shape=partialRectangle;connectable=0;fillColor=none;top=0;left=0;bottom=0;right=0;align=left;spacingLeft=6;overflow=hidden;" parent="VaGtuXmXfvkTdjbK2FE8-314" vertex="1">
          <mxGeometry x="30" width="150" height="30" as="geometry">
            <mxRectangle width="150" height="30" as="alternateBounds" />
          </mxGeometry>
        </mxCell>
        <mxCell id="VaGtuXmXfvkTdjbK2FE8-350" value="Followings_of_the_user" style="shape=table;startSize=30;container=1;collapsible=1;childLayout=tableLayout;fixedRows=1;rowLines=0;fontStyle=1;align=center;resizeLast=1;" parent="1" vertex="1">
          <mxGeometry x="-516" y="677" width="180" height="70" as="geometry" />
        </mxCell>
        <mxCell id="VaGtuXmXfvkTdjbK2FE8-354" value="" style="shape=partialRectangle;collapsible=0;dropTarget=0;pointerEvents=0;fillColor=none;top=0;left=0;bottom=1;right=0;points=[[0,0.5],[1,0.5]];portConstraint=eastwest;" parent="VaGtuXmXfvkTdjbK2FE8-350" vertex="1">
          <mxGeometry y="30" width="180" height="30" as="geometry" />
        </mxCell>
        <mxCell id="VaGtuXmXfvkTdjbK2FE8-355" value="PK" style="shape=partialRectangle;connectable=0;fillColor=none;top=0;left=0;bottom=0;right=0;fontStyle=1;overflow=hidden;" parent="VaGtuXmXfvkTdjbK2FE8-354" vertex="1">
          <mxGeometry width="30" height="30" as="geometry">
            <mxRectangle width="30" height="30" as="alternateBounds" />
          </mxGeometry>
        </mxCell>
        <mxCell id="VaGtuXmXfvkTdjbK2FE8-356" value="following_user_id" style="shape=partialRectangle;connectable=0;fillColor=none;top=0;left=0;bottom=0;right=0;align=left;spacingLeft=6;fontStyle=5;overflow=hidden;" parent="VaGtuXmXfvkTdjbK2FE8-354" vertex="1">
          <mxGeometry x="30" width="150" height="30" as="geometry">
            <mxRectangle width="150" height="30" as="alternateBounds" />
          </mxGeometry>
        </mxCell>
        <mxCell id="VaGtuXmXfvkTdjbK2FE8-369" value="Followers_of_the_user" style="shape=table;startSize=30;container=1;collapsible=1;childLayout=tableLayout;fixedRows=1;rowLines=0;fontStyle=1;align=center;resizeLast=1;" parent="1" vertex="1">
          <mxGeometry x="-516" y="564" width="180" height="70" as="geometry" />
        </mxCell>
        <mxCell id="VaGtuXmXfvkTdjbK2FE8-370" value="" style="shape=partialRectangle;collapsible=0;dropTarget=0;pointerEvents=0;fillColor=none;top=0;left=0;bottom=1;right=0;points=[[0,0.5],[1,0.5]];portConstraint=eastwest;" parent="VaGtuXmXfvkTdjbK2FE8-369" vertex="1">
          <mxGeometry y="30" width="180" height="30" as="geometry" />
        </mxCell>
        <mxCell id="VaGtuXmXfvkTdjbK2FE8-371" value="PK" style="shape=partialRectangle;connectable=0;fillColor=none;top=0;left=0;bottom=0;right=0;fontStyle=1;overflow=hidden;" parent="VaGtuXmXfvkTdjbK2FE8-370" vertex="1">
          <mxGeometry width="30" height="30" as="geometry">
            <mxRectangle width="30" height="30" as="alternateBounds" />
          </mxGeometry>
        </mxCell>
        <mxCell id="VaGtuXmXfvkTdjbK2FE8-372" value="follower_user_id" style="shape=partialRectangle;connectable=0;fillColor=none;top=0;left=0;bottom=0;right=0;align=left;spacingLeft=6;fontStyle=5;overflow=hidden;" parent="VaGtuXmXfvkTdjbK2FE8-370" vertex="1">
          <mxGeometry x="30" width="150" height="30" as="geometry">
            <mxRectangle width="150" height="30" as="alternateBounds" />
          </mxGeometry>
        </mxCell>
        <mxCell id="VaGtuXmXfvkTdjbK2FE8-418" value="List_Members_of_the_list" style="shape=table;startSize=30;container=1;collapsible=1;childLayout=tableLayout;fixedRows=1;rowLines=0;fontStyle=1;align=center;resizeLast=1;rounded=0;sketch=0;" parent="1" vertex="1">
          <mxGeometry x="-241" y="894" width="180" height="70" as="geometry" />
        </mxCell>
        <mxCell id="VaGtuXmXfvkTdjbK2FE8-419" value="" style="shape=partialRectangle;collapsible=0;dropTarget=0;pointerEvents=0;fillColor=none;top=0;left=0;bottom=1;right=0;points=[[0,0.5],[1,0.5]];portConstraint=eastwest;rounded=0;sketch=0;" parent="VaGtuXmXfvkTdjbK2FE8-418" vertex="1">
          <mxGeometry y="30" width="180" height="30" as="geometry" />
        </mxCell>
        <mxCell id="VaGtuXmXfvkTdjbK2FE8-420" value="PK" style="shape=partialRectangle;connectable=0;fillColor=none;top=0;left=0;bottom=0;right=0;fontStyle=1;overflow=hidden;rounded=0;sketch=0;" parent="VaGtuXmXfvkTdjbK2FE8-419" vertex="1">
          <mxGeometry width="30" height="30" as="geometry">
            <mxRectangle width="30" height="30" as="alternateBounds" />
          </mxGeometry>
        </mxCell>
        <mxCell id="VaGtuXmXfvkTdjbK2FE8-421" value="list_member_user_id" style="shape=partialRectangle;connectable=0;fillColor=none;top=0;left=0;bottom=0;right=0;align=left;spacingLeft=6;fontStyle=5;overflow=hidden;rounded=0;sketch=0;" parent="VaGtuXmXfvkTdjbK2FE8-419" vertex="1">
          <mxGeometry x="30" width="150" height="30" as="geometry">
            <mxRectangle width="150" height="30" as="alternateBounds" />
          </mxGeometry>
        </mxCell>
        <mxCell id="VaGtuXmXfvkTdjbK2FE8-431" value="List_Followers_of_the_list" style="shape=table;startSize=30;container=1;collapsible=1;childLayout=tableLayout;fixedRows=1;rowLines=0;fontStyle=1;align=center;resizeLast=1;rounded=0;sketch=0;" parent="1" vertex="1">
          <mxGeometry x="-241" y="993" width="180" height="70" as="geometry" />
        </mxCell>
        <mxCell id="VaGtuXmXfvkTdjbK2FE8-432" value="" style="shape=partialRectangle;collapsible=0;dropTarget=0;pointerEvents=0;fillColor=none;top=0;left=0;bottom=1;right=0;points=[[0,0.5],[1,0.5]];portConstraint=eastwest;rounded=0;sketch=0;" parent="VaGtuXmXfvkTdjbK2FE8-431" vertex="1">
          <mxGeometry y="30" width="180" height="30" as="geometry" />
        </mxCell>
        <mxCell id="VaGtuXmXfvkTdjbK2FE8-433" value="PK" style="shape=partialRectangle;connectable=0;fillColor=none;top=0;left=0;bottom=0;right=0;fontStyle=1;overflow=hidden;rounded=0;sketch=0;" parent="VaGtuXmXfvkTdjbK2FE8-432" vertex="1">
          <mxGeometry width="30" height="30" as="geometry">
            <mxRectangle width="30" height="30" as="alternateBounds" />
          </mxGeometry>
        </mxCell>
        <mxCell id="VaGtuXmXfvkTdjbK2FE8-434" value="list_follower_user_id" style="shape=partialRectangle;connectable=0;fillColor=none;top=0;left=0;bottom=0;right=0;align=left;spacingLeft=6;fontStyle=5;overflow=hidden;rounded=0;sketch=0;" parent="VaGtuXmXfvkTdjbK2FE8-432" vertex="1">
          <mxGeometry x="30" width="150" height="30" as="geometry">
            <mxRectangle width="150" height="30" as="alternateBounds" />
          </mxGeometry>
        </mxCell>
        <mxCell id="VaGtuXmXfvkTdjbK2FE8-438" value="" style="edgeStyle=orthogonalEdgeStyle;fontSize=12;html=1;endArrow=ERzeroToOne;startArrow=ERmandOne;rounded=1;sketch=0;exitX=1;exitY=0.5;exitDx=0;exitDy=0;entryX=0;entryY=0.25;entryDx=0;entryDy=0;endFill=0;" parent="1" source="VaGtuXmXfvkTdjbK2FE8-61" target="VaGtuXmXfvkTdjbK2FE8-350" edge="1">
          <mxGeometry width="100" height="100" relative="1" as="geometry">
            <mxPoint x="-586" y="85" as="sourcePoint" />
            <mxPoint x="-506" y="115" as="targetPoint" />
            <Array as="points">
              <mxPoint x="-615" y="75" />
              <mxPoint x="-615" y="694" />
            </Array>
          </mxGeometry>
        </mxCell>
        <mxCell id="VaGtuXmXfvkTdjbK2FE8-439" value="" style="edgeStyle=orthogonalEdgeStyle;fontSize=12;html=1;endArrow=ERzeroToOne;startArrow=ERmandOne;rounded=1;sketch=0;exitX=1;exitY=0.5;exitDx=0;exitDy=0;entryX=0;entryY=0.25;entryDx=0;entryDy=0;endFill=0;" parent="1" source="VaGtuXmXfvkTdjbK2FE8-61" target="VaGtuXmXfvkTdjbK2FE8-369" edge="1">
          <mxGeometry width="100" height="100" relative="1" as="geometry">
            <mxPoint x="-746" y="85" as="sourcePoint" />
            <mxPoint x="-816" y="85" as="targetPoint" />
            <Array as="points">
              <mxPoint x="-598" y="75" />
              <mxPoint x="-598" y="582" />
            </Array>
          </mxGeometry>
        </mxCell>
        <mxCell id="VaGtuXmXfvkTdjbK2FE8-440" value="" style="fontSize=12;html=1;endArrow=ERzeroToOne;startArrow=ERmandOne;rounded=1;sketch=0;exitX=1;exitY=0.5;exitDx=0;exitDy=0;entryX=-0.006;entryY=0.095;entryDx=0;entryDy=0;endFill=0;entryPerimeter=0;edgeStyle=elbowEdgeStyle;" parent="1" source="VaGtuXmXfvkTdjbK2FE8-61" target="VaGtuXmXfvkTdjbK2FE8-443" edge="1">
          <mxGeometry width="100" height="100" relative="1" as="geometry">
            <mxPoint x="-746" y="85" as="sourcePoint" />
            <mxPoint x="-805" y="129.44000000000005" as="targetPoint" />
            <Array as="points">
              <mxPoint x="-627" y="486" />
            </Array>
          </mxGeometry>
        </mxCell>
        <mxCell id="VaGtuXmXfvkTdjbK2FE8-441" value="" style="fontSize=12;html=1;endArrow=ERzeroToMany;startArrow=ERmandOne;rounded=1;sketch=0;exitX=1;exitY=0.5;exitDx=0;exitDy=0;entryX=0;entryY=0.25;entryDx=0;entryDy=0;" parent="1" source="VaGtuXmXfvkTdjbK2FE8-444" target="VaGtuXmXfvkTdjbK2FE8-418" edge="1">
          <mxGeometry width="100" height="100" relative="1" as="geometry">
            <mxPoint x="-736" y="95" as="sourcePoint" />
            <mxPoint x="-806" y="67.5" as="targetPoint" />
          </mxGeometry>
        </mxCell>
        <mxCell id="VaGtuXmXfvkTdjbK2FE8-442" value="" style="edgeStyle=elbowEdgeStyle;fontSize=12;html=1;endArrow=ERzeroToMany;startArrow=ERmandOne;rounded=1;sketch=0;exitX=1;exitY=0.5;exitDx=0;exitDy=0;entryX=0;entryY=0.25;entryDx=0;entryDy=0;" parent="1" source="VaGtuXmXfvkTdjbK2FE8-444" target="VaGtuXmXfvkTdjbK2FE8-431" edge="1">
          <mxGeometry width="100" height="100" relative="1" as="geometry">
            <mxPoint x="-726" y="105" as="sourcePoint" />
            <mxPoint x="-1036" y="275" as="targetPoint" />
          </mxGeometry>
        </mxCell>
        <mxCell id="VaGtuXmXfvkTdjbK2FE8-443" value="Lists_of_the_user" style="shape=table;startSize=30;container=1;collapsible=1;childLayout=tableLayout;fixedRows=1;rowLines=0;fontStyle=1;align=center;resizeLast=1;rounded=0;sketch=0;" parent="1" vertex="1">
          <mxGeometry x="-516" y="866" width="180" height="160" as="geometry" />
        </mxCell>
        <mxCell id="VaGtuXmXfvkTdjbK2FE8-444" value="" style="shape=partialRectangle;collapsible=0;dropTarget=0;pointerEvents=0;fillColor=none;top=0;left=0;bottom=1;right=0;points=[[0,0.5],[1,0.5]];portConstraint=eastwest;rounded=0;sketch=0;" parent="VaGtuXmXfvkTdjbK2FE8-443" vertex="1">
          <mxGeometry y="30" width="180" height="30" as="geometry" />
        </mxCell>
        <mxCell id="VaGtuXmXfvkTdjbK2FE8-445" value="PK" style="shape=partialRectangle;connectable=0;fillColor=none;top=0;left=0;bottom=0;right=0;fontStyle=1;overflow=hidden;rounded=0;sketch=0;" parent="VaGtuXmXfvkTdjbK2FE8-444" vertex="1">
          <mxGeometry width="30" height="30" as="geometry">
            <mxRectangle width="30" height="30" as="alternateBounds" />
          </mxGeometry>
        </mxCell>
        <mxCell id="VaGtuXmXfvkTdjbK2FE8-446" value="list_id" style="shape=partialRectangle;connectable=0;fillColor=none;top=0;left=0;bottom=0;right=0;align=left;spacingLeft=6;fontStyle=5;overflow=hidden;rounded=0;sketch=0;" parent="VaGtuXmXfvkTdjbK2FE8-444" vertex="1">
          <mxGeometry x="30" width="150" height="30" as="geometry">
            <mxRectangle width="150" height="30" as="alternateBounds" />
          </mxGeometry>
        </mxCell>
        <mxCell id="VaGtuXmXfvkTdjbK2FE8-447" value="" style="shape=partialRectangle;collapsible=0;dropTarget=0;pointerEvents=0;fillColor=none;top=0;left=0;bottom=0;right=0;points=[[0,0.5],[1,0.5]];portConstraint=eastwest;rounded=0;sketch=0;" parent="VaGtuXmXfvkTdjbK2FE8-443" vertex="1">
          <mxGeometry y="60" width="180" height="30" as="geometry" />
        </mxCell>
        <mxCell id="VaGtuXmXfvkTdjbK2FE8-448" value="" style="shape=partialRectangle;connectable=0;fillColor=none;top=0;left=0;bottom=0;right=0;editable=1;overflow=hidden;rounded=0;sketch=0;" parent="VaGtuXmXfvkTdjbK2FE8-447" vertex="1">
          <mxGeometry width="30" height="30" as="geometry">
            <mxRectangle width="30" height="30" as="alternateBounds" />
          </mxGeometry>
        </mxCell>
        <mxCell id="VaGtuXmXfvkTdjbK2FE8-449" value="list_name" style="shape=partialRectangle;connectable=0;fillColor=none;top=0;left=0;bottom=0;right=0;align=left;spacingLeft=6;overflow=hidden;rounded=0;sketch=0;" parent="VaGtuXmXfvkTdjbK2FE8-447" vertex="1">
          <mxGeometry x="30" width="150" height="30" as="geometry">
            <mxRectangle width="150" height="30" as="alternateBounds" />
          </mxGeometry>
        </mxCell>
        <mxCell id="VaGtuXmXfvkTdjbK2FE8-450" value="" style="shape=partialRectangle;collapsible=0;dropTarget=0;pointerEvents=0;fillColor=none;top=0;left=0;bottom=0;right=0;points=[[0,0.5],[1,0.5]];portConstraint=eastwest;rounded=0;sketch=0;" parent="VaGtuXmXfvkTdjbK2FE8-443" vertex="1">
          <mxGeometry y="90" width="180" height="30" as="geometry" />
        </mxCell>
        <mxCell id="VaGtuXmXfvkTdjbK2FE8-451" value="" style="shape=partialRectangle;connectable=0;fillColor=none;top=0;left=0;bottom=0;right=0;editable=1;overflow=hidden;rounded=0;sketch=0;" parent="VaGtuXmXfvkTdjbK2FE8-450" vertex="1">
          <mxGeometry width="30" height="30" as="geometry">
            <mxRectangle width="30" height="30" as="alternateBounds" />
          </mxGeometry>
        </mxCell>
        <mxCell id="VaGtuXmXfvkTdjbK2FE8-452" value="number_of_members" style="shape=partialRectangle;connectable=0;fillColor=none;top=0;left=0;bottom=0;right=0;align=left;spacingLeft=6;overflow=hidden;rounded=0;sketch=0;" parent="VaGtuXmXfvkTdjbK2FE8-450" vertex="1">
          <mxGeometry x="30" width="150" height="30" as="geometry">
            <mxRectangle width="150" height="30" as="alternateBounds" />
          </mxGeometry>
        </mxCell>
        <mxCell id="VaGtuXmXfvkTdjbK2FE8-453" value="" style="shape=partialRectangle;collapsible=0;dropTarget=0;pointerEvents=0;fillColor=none;top=0;left=0;bottom=0;right=0;points=[[0,0.5],[1,0.5]];portConstraint=eastwest;rounded=0;sketch=0;" parent="VaGtuXmXfvkTdjbK2FE8-443" vertex="1">
          <mxGeometry y="120" width="180" height="30" as="geometry" />
        </mxCell>
        <mxCell id="VaGtuXmXfvkTdjbK2FE8-454" value="" style="shape=partialRectangle;connectable=0;fillColor=none;top=0;left=0;bottom=0;right=0;editable=1;overflow=hidden;rounded=0;sketch=0;" parent="VaGtuXmXfvkTdjbK2FE8-453" vertex="1">
          <mxGeometry width="30" height="30" as="geometry">
            <mxRectangle width="30" height="30" as="alternateBounds" />
          </mxGeometry>
        </mxCell>
        <mxCell id="VaGtuXmXfvkTdjbK2FE8-455" value="number_of_followers" style="shape=partialRectangle;connectable=0;fillColor=none;top=0;left=0;bottom=0;right=0;align=left;spacingLeft=6;overflow=hidden;rounded=0;sketch=0;" parent="VaGtuXmXfvkTdjbK2FE8-453" vertex="1">
          <mxGeometry x="30" width="150" height="30" as="geometry">
            <mxRectangle width="150" height="30" as="alternateBounds" />
          </mxGeometry>
        </mxCell>
        <mxCell id="VaGtuXmXfvkTdjbK2FE8-462" value="GIFs" style="shape=table;startSize=30;container=1;collapsible=1;childLayout=tableLayout;fixedRows=1;rowLines=0;fontStyle=1;align=center;resizeLast=1;rounded=0;sketch=0;" parent="1" vertex="1">
          <mxGeometry x="-241" y="430" width="180" height="100" as="geometry" />
        </mxCell>
        <mxCell id="VaGtuXmXfvkTdjbK2FE8-463" value="" style="shape=partialRectangle;collapsible=0;dropTarget=0;pointerEvents=0;fillColor=none;top=0;left=0;bottom=1;right=0;points=[[0,0.5],[1,0.5]];portConstraint=eastwest;rounded=0;sketch=0;" parent="VaGtuXmXfvkTdjbK2FE8-462" vertex="1">
          <mxGeometry y="30" width="180" height="30" as="geometry" />
        </mxCell>
        <mxCell id="VaGtuXmXfvkTdjbK2FE8-464" value="PK" style="shape=partialRectangle;connectable=0;fillColor=none;top=0;left=0;bottom=0;right=0;fontStyle=1;overflow=hidden;rounded=0;sketch=0;" parent="VaGtuXmXfvkTdjbK2FE8-463" vertex="1">
          <mxGeometry width="30" height="30" as="geometry">
            <mxRectangle width="30" height="30" as="alternateBounds" />
          </mxGeometry>
        </mxCell>
        <mxCell id="VaGtuXmXfvkTdjbK2FE8-465" value="gif_id" style="shape=partialRectangle;connectable=0;fillColor=none;top=0;left=0;bottom=0;right=0;align=left;spacingLeft=6;fontStyle=5;overflow=hidden;rounded=0;sketch=0;" parent="VaGtuXmXfvkTdjbK2FE8-463" vertex="1">
          <mxGeometry x="30" width="150" height="30" as="geometry">
            <mxRectangle width="150" height="30" as="alternateBounds" />
          </mxGeometry>
        </mxCell>
        <mxCell id="VaGtuXmXfvkTdjbK2FE8-466" value="" style="shape=partialRectangle;collapsible=0;dropTarget=0;pointerEvents=0;fillColor=none;top=0;left=0;bottom=0;right=0;points=[[0,0.5],[1,0.5]];portConstraint=eastwest;rounded=0;sketch=0;" parent="VaGtuXmXfvkTdjbK2FE8-462" vertex="1">
          <mxGeometry y="60" width="180" height="30" as="geometry" />
        </mxCell>
        <mxCell id="VaGtuXmXfvkTdjbK2FE8-467" value="" style="shape=partialRectangle;connectable=0;fillColor=none;top=0;left=0;bottom=0;right=0;editable=1;overflow=hidden;rounded=0;sketch=0;" parent="VaGtuXmXfvkTdjbK2FE8-466" vertex="1">
          <mxGeometry width="30" height="30" as="geometry">
            <mxRectangle width="30" height="30" as="alternateBounds" />
          </mxGeometry>
        </mxCell>
        <mxCell id="VaGtuXmXfvkTdjbK2FE8-468" value="gif_data" style="shape=partialRectangle;connectable=0;fillColor=none;top=0;left=0;bottom=0;right=0;align=left;spacingLeft=6;overflow=hidden;rounded=0;sketch=0;" parent="VaGtuXmXfvkTdjbK2FE8-466" vertex="1">
          <mxGeometry x="30" width="150" height="30" as="geometry">
            <mxRectangle width="150" height="30" as="alternateBounds" />
          </mxGeometry>
        </mxCell>
        <mxCell id="VaGtuXmXfvkTdjbK2FE8-480" value="" style="edgeStyle=orthogonalEdgeStyle;fontSize=12;html=1;endArrow=ERzeroToMany;startArrow=ERmandOne;rounded=1;sketch=0;entryX=1;entryY=0.5;entryDx=0;entryDy=0;exitX=0;exitY=0.5;exitDx=0;exitDy=0;" parent="1" source="VaGtuXmXfvkTdjbK2FE8-463" target="VaGtuXmXfvkTdjbK2FE8-150" edge="1">
          <mxGeometry width="100" height="100" relative="1" as="geometry">
            <mxPoint x="-436" y="250" as="sourcePoint" />
            <mxPoint x="-336" y="150" as="targetPoint" />
            <Array as="points">
              <mxPoint x="-271" y="475" />
              <mxPoint x="-271" y="285" />
            </Array>
          </mxGeometry>
        </mxCell>
        <mxCell id="VaGtuXmXfvkTdjbK2FE8-481" value="" style="edgeStyle=entityRelationEdgeStyle;fontSize=12;html=1;endArrow=ERzeroToOne;startArrow=ERmandOne;rounded=1;sketch=0;curved=0;entryX=1;entryY=0.5;entryDx=0;entryDy=0;exitX=0;exitY=0.5;exitDx=0;exitDy=0;" parent="1" source="VaGtuXmXfvkTdjbK2FE8-241" target="VaGtuXmXfvkTdjbK2FE8-110" edge="1">
          <mxGeometry width="100" height="100" relative="1" as="geometry">
            <mxPoint x="-436" y="250" as="sourcePoint" />
            <mxPoint x="-336" y="150" as="targetPoint" />
          </mxGeometry>
        </mxCell>
        <mxCell id="VaGtuXmXfvkTdjbK2FE8-482" value="" style="edgeStyle=orthogonalEdgeStyle;fontSize=12;html=1;endArrow=ERzeroToOne;startArrow=ERmandOne;rounded=1;sketch=0;entryX=1;entryY=0.5;entryDx=0;entryDy=0;exitX=0;exitY=0.5;exitDx=0;exitDy=0;" parent="1" source="VaGtuXmXfvkTdjbK2FE8-228" target="VaGtuXmXfvkTdjbK2FE8-147" edge="1">
          <mxGeometry width="100" height="100" relative="1" as="geometry">
            <mxPoint x="-256" y="45" as="sourcePoint" />
            <mxPoint x="-326" y="265" as="targetPoint" />
            <Array as="points">
              <mxPoint x="-291" y="555" />
              <mxPoint x="-291" y="315" />
            </Array>
          </mxGeometry>
        </mxCell>
        <mxCell id="VaGtuXmXfvkTdjbK2FE8-483" value="" style="edgeStyle=orthogonalEdgeStyle;fontSize=12;html=1;endArrow=ERzeroToOne;startArrow=ERmandOne;rounded=1;sketch=0;entryX=1;entryY=0.5;entryDx=0;entryDy=0;" parent="1" source="VaGtuXmXfvkTdjbK2FE8-293" target="VaGtuXmXfvkTdjbK2FE8-129" edge="1">
          <mxGeometry width="100" height="100" relative="1" as="geometry">
            <mxPoint x="-36" y="325" as="sourcePoint" />
            <mxPoint x="-326" y="325" as="targetPoint" />
            <Array as="points">
              <mxPoint x="-311" y="615" />
              <mxPoint x="-311" y="345" />
            </Array>
          </mxGeometry>
        </mxCell>
        <mxCell id="VaGtuXmXfvkTdjbK2FE8-484" value="Repliable_Ranges" style="shape=table;startSize=30;container=1;collapsible=1;childLayout=tableLayout;fixedRows=1;rowLines=0;fontStyle=1;align=center;resizeLast=1;rounded=0;sketch=0;" parent="1" vertex="1">
          <mxGeometry x="-241" y="70" width="180" height="100" as="geometry" />
        </mxCell>
        <mxCell id="VaGtuXmXfvkTdjbK2FE8-485" value="" style="shape=partialRectangle;collapsible=0;dropTarget=0;pointerEvents=0;fillColor=none;top=0;left=0;bottom=1;right=0;points=[[0,0.5],[1,0.5]];portConstraint=eastwest;rounded=0;sketch=0;" parent="VaGtuXmXfvkTdjbK2FE8-484" vertex="1">
          <mxGeometry y="30" width="180" height="30" as="geometry" />
        </mxCell>
        <mxCell id="VaGtuXmXfvkTdjbK2FE8-486" value="PK" style="shape=partialRectangle;connectable=0;fillColor=none;top=0;left=0;bottom=0;right=0;fontStyle=1;overflow=hidden;rounded=0;sketch=0;" parent="VaGtuXmXfvkTdjbK2FE8-485" vertex="1">
          <mxGeometry width="30" height="30" as="geometry">
            <mxRectangle width="30" height="30" as="alternateBounds" />
          </mxGeometry>
        </mxCell>
        <mxCell id="VaGtuXmXfvkTdjbK2FE8-487" value="repliable_range_id" style="shape=partialRectangle;connectable=0;fillColor=none;top=0;left=0;bottom=0;right=0;align=left;spacingLeft=6;fontStyle=5;overflow=hidden;rounded=0;sketch=0;" parent="VaGtuXmXfvkTdjbK2FE8-485" vertex="1">
          <mxGeometry x="30" width="150" height="30" as="geometry">
            <mxRectangle width="150" height="30" as="alternateBounds" />
          </mxGeometry>
        </mxCell>
        <mxCell id="VaGtuXmXfvkTdjbK2FE8-488" value="" style="shape=partialRectangle;collapsible=0;dropTarget=0;pointerEvents=0;fillColor=none;top=0;left=0;bottom=0;right=0;points=[[0,0.5],[1,0.5]];portConstraint=eastwest;rounded=0;sketch=0;" parent="VaGtuXmXfvkTdjbK2FE8-484" vertex="1">
          <mxGeometry y="60" width="180" height="30" as="geometry" />
        </mxCell>
        <mxCell id="VaGtuXmXfvkTdjbK2FE8-489" value="" style="shape=partialRectangle;connectable=0;fillColor=none;top=0;left=0;bottom=0;right=0;editable=1;overflow=hidden;rounded=0;sketch=0;" parent="VaGtuXmXfvkTdjbK2FE8-488" vertex="1">
          <mxGeometry width="30" height="30" as="geometry">
            <mxRectangle width="30" height="30" as="alternateBounds" />
          </mxGeometry>
        </mxCell>
        <mxCell id="VaGtuXmXfvkTdjbK2FE8-490" value="range" style="shape=partialRectangle;connectable=0;fillColor=none;top=0;left=0;bottom=0;right=0;align=left;spacingLeft=6;overflow=hidden;rounded=0;sketch=0;" parent="VaGtuXmXfvkTdjbK2FE8-488" vertex="1">
          <mxGeometry x="30" width="150" height="30" as="geometry">
            <mxRectangle width="150" height="30" as="alternateBounds" />
          </mxGeometry>
        </mxCell>
        <mxCell id="VaGtuXmXfvkTdjbK2FE8-491" value="" style="edgeStyle=orthogonalEdgeStyle;fontSize=12;html=1;endArrow=ERzeroToMany;startArrow=ERmandOne;rounded=1;sketch=0;entryX=1;entryY=0.5;entryDx=0;entryDy=0;exitX=0;exitY=0.5;exitDx=0;exitDy=0;" parent="1" source="VaGtuXmXfvkTdjbK2FE8-485" target="VaGtuXmXfvkTdjbK2FE8-107" edge="1">
          <mxGeometry width="100" height="100" relative="1" as="geometry">
            <mxPoint x="-256" y="255" as="sourcePoint" />
            <mxPoint x="-326" y="295" as="targetPoint" />
          </mxGeometry>
        </mxCell>
        <mxCell id="1y2QQ3OM-oPzrHKGGQTs-1" value="" style="fontSize=12;html=1;endArrow=ERzeroToOne;startArrow=ERmandOne;rounded=1;sketch=0;entryX=0;entryY=0.037;entryDx=0;entryDy=0;entryPerimeter=0;edgeStyle=entityRelationEdgeStyle;exitX=1;exitY=0.5;exitDx=0;exitDy=0;endFill=0;" parent="1" source="VaGtuXmXfvkTdjbK2FE8-61" target="VaGtuXmXfvkTdjbK2FE8-100" edge="1">
          <mxGeometry width="100" height="100" relative="1" as="geometry">
            <mxPoint x="-655" y="72" as="sourcePoint" />
            <mxPoint x="-535" y="111" as="targetPoint" />
          </mxGeometry>
        </mxCell>
      </root>
    </mxGraphModel>
  </diagram>
</mxfile>
